<?xml version="1.0" encoding="utf-8"?>
<!-- Generator: Adobe Illustrator 22.1.0, SVG Export Plug-In . SVG Version: 6.00 Build 0)  -->
<svg version="1.1" id="Layer_1" xmlns="http://www.w3.org/2000/svg" xmlns:xlink="http://www.w3.org/1999/xlink" x="0px" y="0px"
	 viewBox="0 0 500 254.7" style="enable-background:new 0 0 500 254.7;" xml:space="preserve">
<style type="text/css">
	.st0{opacity:0.15;fill:#FF6E60;enable-background:new    ;}
	.st1{opacity:0.2;}
	.st2{fill:#FF6E60;}
	.st3{fill:#B56561;}
	.st4{fill:#01719A;}
</style>
<g>
	<title>MLM-4</title>
	<g id="Layer_2_2_">
		<g id="Layer_1-2_1_">
			<path class="st0" d="M209.9,54.8c-0.5,9.7,2.6,20.3-2.5,28.5c-5.9,9.2-15.1,2.3-23.9,2.6c-10,0.4-20.3,3-28.6,8.7
				c-9.1,6.2-13.6,18.6-15.8,29.1c-4.8,23,1.2,48.3,12.5,68.7c14.9,26.8,45.9,41.8,74.3,26.8c3.7-1.9,7.2-4.3,11-5.9
				c14.5-6.4,31.6-0.1,46.7-1.1c18-1.3,35-1.2,51.1-11c22.5-13.5,34.1-46.4,18.5-68.9c-6.9-10-16-18.7-20.3-30.1
				c-6.1-16-1.9-34.4-7.7-50.4c-6-16.7-22.4-28.3-39.8-31.7c-22-4.3-65.4,2.5-74.1,27.5C210.4,49.9,209.9,52.4,209.9,54.8z"/>
			<g class="st1">
				<path class="st2" d="M205.9,47.2c-18,0.6-36,6.5-49.9,17.9c-7.8,6.4-14.3,14.7-17.1,24.4c-4.6,16,1.4,33.1,9.3,47.7
					c16.3,30.4,40.5,55.8,70,73.6c4.3,2.7,8.9,4.9,13.7,6.6c6.7,2.1,13.8,2.2,20.8,2.4c9,0.2,18.1,0.4,26.8-1.9
					c8.2-2.1,15.7-6.2,22.8-10.7c21.3-13.6,40.3-32.5,49-56.3s5.4-52.8-12.2-71c-9.4-9.7-22-15.7-34.9-19.2
					c-15.2-4.1-30.5-4.2-46-5.7C240.4,53.3,224.1,46.5,205.9,47.2z"/>
				<path class="st2" d="M207.9,35.9c3.9-2.7,5.6-7.7,4.2-12.2c-0.3-0.8-0.6-1.5-1.1-2.1c-1.5-1.9-4.2-2.4-6.6-2.3
					C186.1,20.4,192.6,46.1,207.9,35.9z"/>
				<path class="st2" d="M219.9,227c-7.6,4.6-9,13.8,0.6,12.7c2.8-0.4,5.4-1.2,7.9-2.5c3.4-1.6,6.9-4,8.2-6.7
					C241.1,220.5,228.4,221.8,219.9,227z"/>
			</g>
			<path class="st3" d="M249.1,129l-0.8,0.8C248.6,129.5,248.9,129.3,249.1,129z"/>
			<path class="st2" d="M262.6,26.9v-11c0-6.7-5.4-12.1-12.1-12.1c0,0,0,0-0.1,0H248c-6.7,0-12.1,5.4-12.1,12.1v11
				c0,1.9,0.8,3.9,2.2,5.2v8.4c-5.4,2.7-10.4,6.1-15.1,9.8c-1.7,1.4-2.8,3.6-2.7,5.9v7.5c0,1.2,0.9,2.2,2.1,2.3h0.1h53.4
				c1.2,0,2.2-1,2.2-2.2l0,0v-7.6c0-2.3-1-4.4-2.8-5.9c-4.7-3.8-9.7-7.1-15-9.8v-8.4C261.9,30.8,262.6,28.9,262.6,26.9z M272.6,53.8
				c0.7,0.6,1.1,1.4,1.1,2.4v5.3h-49v-5.3c0-0.9,0.4-1.8,1.1-2.4c4.7-3.8,9.8-7.1,15.2-9.7c0.9-0.4,1.5-1.4,1.5-2.4V31.1
				c0-0.7-0.4-1.4-1-1.9c-0.8-0.5-1.2-1.4-1.2-2.2V16c0-4.2,3.4-7.7,7.7-7.7h2.4c4.2,0,7.7,3.4,7.7,7.7v11.1c0,0.9-0.4,1.8-1.2,2.2
				c-0.6,0.4-1,1.1-1,1.9v10.5c0,1,0.6,2,1.5,2.4C262.9,46.8,268,50.1,272.6,53.8L272.6,53.8z"/>
			<path class="st2" d="M203.8,121.3v-11c0-6.7-5.4-12.1-12.1-12.1h-2.3c-6.7,0-12.1,5.4-12.1,12.1v11c0,1.9,0.8,3.8,2.2,5.2v8.4
				c-5.4,2.7-10.4,6.1-15,9.8c-1.8,1.4-2.8,3.6-2.8,5.9v7.5c0,1.2,0.9,2.1,2.1,2.2h53.4c1.2,0,2.2-1,2.2-2.2l0,0v-7.5
				c0-2.3-1-4.4-2.7-5.9c-4.7-3.8-9.7-7.1-15.1-9.8v-8.4C202.9,125.1,203.8,123.2,203.8,121.3z M213.9,148.2
				c0.7,0.6,1.1,1.4,1.1,2.4v5.3h-49v-5.3c0-0.9,0.4-1.8,1.1-2.4c4.7-3.8,9.8-7.1,15.2-9.8c0.9-0.4,1.5-1.4,1.5-2.4v-10.6
				c0-0.7-0.4-1.4-1-1.9c-0.8-0.5-1.2-1.4-1.2-2.2v-11c0-4.2,3.5-7.7,7.7-7.6h2.4c4.2,0,7.7,3.4,7.7,7.7v11c0,0.9-0.4,1.7-1.2,2.2
				c-0.6,0.4-1,1.1-1,1.9v10.6c0,1,0.6,2,1.5,2.4C204.1,141.2,209.1,144.4,213.9,148.2L213.9,148.2z"/>
			<path class="st4" d="M249.3,73.9c-1.5,0-2.6,1.1-2.7,2.6v0.1v21.8l-18.4,12c-1.2,0.8-1.6,2.4-0.8,3.7l0,0
				c0.8,1.2,2.4,1.6,3.7,0.9l18-11.7l18,11.7c0.4,0.3,0.9,0.4,1.4,0.4c1.5,0.1,2.7-1.1,2.8-2.6c0-1-0.4-1.9-1.3-2.4l-18.2-11.9V76.7
				C251.9,75.1,250.8,73.9,249.3,73.9z"/>
			<path class="st2" d="M320.5,121.1v-11c0-6.7-5.4-12.1-12.1-12.2l0,0H306c-6.7,0-12.1,5.4-12.1,12.1l0,0v11c0,1.9,0.8,3.8,2.2,5.2
				v8.4c-5.4,2.7-10.4,6-15.1,9.8c-1.7,1.4-2.8,3.6-2.7,5.9v7.5c0,1.2,1,2.2,2.2,2.2l0,0h53.4c1.2,0,2.2-1,2.2-2.2l0,0v-7.5
				c0-2.3-1-4.4-2.8-5.9c-4.7-3.8-9.7-7.1-15.1-9.8v-8.4C319.5,125,320.5,123.1,320.5,121.1z M330.5,148c0.7,0.6,1.1,1.5,1.1,2.4
				v5.3h-49v-5.3c0-0.9,0.4-1.8,1.1-2.4c4.7-3.8,9.8-7.1,15.2-9.8c0.9-0.4,1.5-1.4,1.5-2.4v-10.6c0-0.7-0.4-1.4-1-1.9
				c-0.7-0.5-1.2-1.3-1.2-2.1v-11c0-4.2,3.4-7.7,7.7-7.7h2.4c4.2,0,7.7,3.4,7.7,7.7v11c0,0.9-0.5,1.7-1.3,2.2c-0.6,0.4-1,1.1-1,1.9
				v10.6c0,1,0.6,2,1.5,2.4C320.6,141,325.8,144.3,330.5,148L330.5,148z"/>
			<path class="st2" d="M294.4,215.9v-11c0-6.7-5.4-12.1-12.1-12.1h-2.4c-6.7,0-12.1,5.4-12.1,12.1v11c0,1.9,0.8,3.9,2.2,5.2v8.5
				c-5.4,2.7-10.5,6-15.1,9.8c-1.7,1.4-2.8,3.6-2.7,5.9v7.5c0,1.2,1,2.2,2.2,2.2l0,0h53.4c1.2,0,2.2-1,2.2-2.2l0,0v-7.5
				c0-2.3-1-4.4-2.7-5.9c-4.7-3.8-9.7-7.1-15.1-9.8v-8.4C293.5,219.7,294.4,217.9,294.4,215.9z M304.5,242.8
				c0.7,0.6,1.1,1.4,1.1,2.4v5.3h-49v-5.3c0-0.9,0.4-1.8,1.1-2.4c4.7-3.8,9.8-7.1,15.2-9.7c0.9-0.4,1.5-1.4,1.5-2.4v-10.6
				c0-0.7-0.4-1.4-1-1.9c-0.8-0.5-1.2-1.4-1.2-2.2v-11c0-4.2,3.4-7.7,7.7-7.7h2.4c4.2,0,7.7,3.4,7.7,7.7v11c0,0.9-0.4,1.8-1.2,2.2
				c-0.6,0.4-1,1.1-1,1.9v10.6c0,1,0.6,2,1.5,2.4C294.6,235.8,299.6,239,304.5,242.8L304.5,242.8z"/>
			<path class="st4" d="M339.9,168.5c-1.5,0-2.6,1.1-2.7,2.6c0,0,0,0,0,0.1V193l-18.4,11.9c-1.2,0.8-1.6,2.4-0.8,3.7l0,0
				c0.5,0.8,1.4,1.2,2.3,1.2c0.5,0,1-0.1,1.4-0.4l18-11.7l18.1,11.7c0.4,0.3,0.9,0.4,1.4,0.4c1.5,0.1,2.7-1.1,2.8-2.6
				c0-1-0.4-1.9-1.3-2.4l-18.3-11.9v-21.8C342.5,169.7,341.3,168.5,339.9,168.5z"/>
			<path class="st2" d="M411,215.7v-11c0-6.7-5.4-12.1-12.1-12.1h-2.4c-6.7,0-12.1,5.4-12.1,12.1v11c0,1.9,0.8,3.9,2.2,5.2v8.4
				c-5.4,2.7-10.5,6-15.1,9.8c-1.7,1.4-2.8,3.6-2.7,5.9v7.5c0,1.2,1,2.2,2.2,2.2l0,0h53.5c1.2,0,2.2-1,2.2-2.2l0,0V245
				c0-2.3-1-4.4-2.7-5.9c-4.7-3.8-9.7-7.1-15.1-9.8v-8.4C410.3,219.6,411,217.7,411,215.7z M421,242.6c0.7,0.6,1.1,1.5,1.1,2.4v5.3
				h-49V245c0-0.9,0.4-1.8,1.1-2.4c4.7-3.8,9.8-7.1,15.2-9.7c0.9-0.4,1.5-1.4,1.5-2.4v-10.6c0-0.7-0.4-1.4-1-1.9
				c-0.8-0.5-1.2-1.4-1.2-2.3v-11c0-4.2,3.4-7.7,7.7-7.7h2.4c4.2,0,7.7,3.4,7.7,7.7v11c0,0.9-0.4,1.8-1.2,2.3c-0.6,0.4-1,1.1-1,1.9
				v10.5c0,1,0.6,2,1.5,2.4C411.3,235.6,416.4,238.9,421,242.6z"/>
			<path class="st2" d="M113.3,215.9v-11c0-6.7-5.4-12.1-12.1-12.1h-2.4c-6.7,0-12.1,5.4-12.1,12.1v11c0,1.9,0.8,3.8,2.2,5.2v8.5
				c-5.4,2.7-10.5,6-15.1,9.8c-1.7,1.4-2.7,3.6-2.7,5.8v7.5c0,1.2,1,2.2,2.2,2.2l0,0h53.5c1.2,0,2.2-1,2.2-2.2l0,0v-7.5
				c0-2.3-1-4.4-2.7-5.9c-4.7-3.8-9.8-7-15.1-9.8v-8.4C112.4,219.7,113.3,217.9,113.3,215.9z M123.3,242.8c0.7,0.6,1.1,1.4,1.1,2.4
				v5.3h-49v-5.3c0-0.9,0.4-1.8,1.1-2.4c4.7-3.8,9.8-7.1,15.2-9.7c0.9-0.4,1.5-1.4,1.5-2.4v-10.6c0-0.7-0.4-1.4-1-1.9
				c-0.8-0.5-1.2-1.4-1.2-2.2v-11c0-4.2,3.4-7.7,7.7-7.7h2.4c4.2,0,7.7,3.4,7.7,7.7v11c0,0.9-0.4,1.7-1.2,2.2c-0.6,0.4-1,1.1-1,1.9
				v10.6c0,1,0.6,2,1.5,2.4C113.4,235.8,118.6,239,123.3,242.8L123.3,242.8z"/>
			<path class="st4" d="M158.6,168.5c-1.5,0-2.6,1.1-2.7,2.6c0,0,0,0,0,0.1V193l-18.3,11.9c-1.2,0.8-1.6,2.4-0.8,3.7l0,0
				c0.8,1.2,2.4,1.6,3.7,0.9l18-11.7l18,11.7c0.4,0.3,0.9,0.4,1.4,0.4c0.9,0,1.8-0.4,2.3-1.2c0.8-1.2,0.5-2.9-0.7-3.7l0,0
				l-18.3-11.9v-21.8C161.4,169.7,160.1,168.5,158.6,168.5z"/>
			<path class="st2" d="M229.9,215.7v-11c0-6.7-5.4-12.1-12.1-12.1h-2.3c-6.7,0-12.1,5.4-12.1,12.1v11c0,1.9,0.8,3.8,2.2,5.2v8.4
				c-5.4,2.7-10.5,6-15.1,9.8c-1.7,1.4-2.8,3.6-2.7,5.9v7.5c0,1.2,1,2.2,2.2,2.2l0,0h53.4c1.2,0,2.2-1,2.2-2.2l0,0V245
				c0-2.3-1-4.4-2.7-5.9c-4.7-3.8-9.7-7.1-15.1-9.8v-8.4C229.1,219.5,229.9,217.7,229.9,215.7z M239.9,242.6
				c0.7,0.6,1.1,1.5,1.1,2.4v5.3h-49V245c0-0.9,0.4-1.8,1.1-2.4c4.7-3.8,9.8-7.1,15.2-9.7c0.9-0.4,1.5-1.4,1.5-2.4v-10.6
				c0-0.7-0.4-1.4-1-1.9c-0.8-0.5-1.2-1.4-1.2-2.3v-11c0-4.2,3.4-7.7,7.7-7.7h2.4c4.2,0,7.7,3.4,7.7,7.7v11c0,0.9-0.4,1.8-1.2,2.3
				c-0.6,0.4-1,1.1-1,1.9v10.6c0,1,0.6,2,1.5,2.4C230.1,235.6,235.1,238.9,239.9,242.6L239.9,242.6z"/>
		</g>
	</g>
</g>
</svg>
