<?xml version="1.0" encoding="utf-8"?>
<!-- Generator: Adobe Illustrator 22.1.0, SVG Export Plug-In . SVG Version: 6.00 Build 0)  -->
<svg version="1.1" id="Layer_1" xmlns="http://www.w3.org/2000/svg" xmlns:xlink="http://www.w3.org/1999/xlink" x="0px" y="0px"
	 viewBox="0 0 500 258.3" style="enable-background:new 0 0 500 258.3;" xml:space="preserve">
<style type="text/css">
	.st0{opacity:0.15;fill:#FF6E60;enable-background:new    ;}
	.st1{opacity:0.2;}
	.st2{fill:#FF6E60;}
	.st3{fill:#B56561;}
	.st4{fill:#01719A;}
</style>
<title>MLM-plan-5</title>
<g id="Layer_2_3_">
	<g id="Layer_1-2_2_">
		<path class="st0" d="M209.6,51.6c-0.5,10,2.8,21.2-2.6,29.7c-6.2,9.6-15.8,2.3-25,2.8c-10.5,0.4-21.1,3.2-29.8,9
			c-9.5,6.4-14.2,19.5-16.4,30.4c-5,24,1.3,50.4,13,71.6c15.5,27.9,47.8,43.6,77.5,27.9c3.8-2.1,7.4-4.5,11.4-6.2
			c15.1-6.6,32.9-0.1,48.7-1.2c18.8-1.3,36.4-1.3,53.3-11.4c23.5-14.2,35.7-48.3,19.3-71.8c-7.3-10.4-16.7-19.5-21.2-31.3
			c-6.4-16.6-2-35.8-8-52.6c-6.3-17.4-23.4-29.6-41.5-33.1c-23-4.5-68.1,2.6-77.2,28.6C210.1,46.5,209.6,49.1,209.6,51.6z"/>
		<g class="st1">
			<path class="st2" d="M205.4,43.8c-18.8,0.7-37.6,6.8-52.1,18.8c-8.2,6.7-14.9,15.4-17.9,25.5c-4.8,16.6,1.5,34.5,9.7,49.7
				c17,31.6,42.3,58.1,73,76.7c4.5,2.8,9.4,5.2,14.4,6.9c7,2.2,14.4,2.3,21.7,2.5c9.4,0.2,18.8,0.3,28-1.9
				c8.5-2.2,16.4-6.4,23.9-11.2c22.3-14.2,42-33.9,51-58.7c9.1-24.8,5.7-55.1-12.6-74.1c-9.8-10-22.9-16.4-36.4-20
				c-15.9-4.3-31.7-4.4-47.9-5.9C241.4,50,224.4,43,205.4,43.8z"/>
			<path class="st2" d="M207.4,32c4.1-2.8,5.8-8,4.3-12.7c-0.3-0.8-0.7-1.6-1.2-2.3c-1.6-2-4.4-2.5-6.9-2.3
				C184.7,15.8,191.4,42.5,207.4,32z"/>
			<path class="st2" d="M220,231.2c-7.9,4.8-9.4,14.4,0.7,13.3c2.8-0.4,5.7-1.3,8.3-2.7c3.6-1.8,7.2-4.2,8.5-7
				C242,224.4,228.9,225.8,220,231.2z"/>
		</g>
		<path class="st3" d="M250.5,129l-0.8,0.8C249.9,129.5,250.2,129.2,250.5,129z"/>
		<path class="st3" d="M250.5,129l-0.8,0.8C249.9,129.5,250.2,129.2,250.5,129z"/>
		<path class="st4" d="M396.7,77.1c-3.5-0.5-7.2-1-10.8-1.5c-0.4-0.1-0.8-0.3-0.9-0.8c-1.7-6.1-4.1-11.9-7.2-17.4
			c-0.3-0.3-0.2-0.8,0.1-1.2c2.3-2.9,4.5-5.8,6.6-8.7c2.9-4,2.5-9.4-1-12.9l-11.9-11.9c-3.5-3.4-8.9-3.8-12.9-1
			c-2.8,2.1-5.8,4.3-8.8,6.6c-0.3,0.3-0.8,0.3-1.2,0.1c-5.5-3.1-11.4-5.5-17.5-7.2c-0.4-0.1-0.8-0.5-0.8-0.9
			c-0.5-3.7-1-7.3-1.6-10.8c-0.8-4.8-4.9-8.4-9.8-8.4h-16.9c-4.9,0-9,3.6-9.8,8.4c-0.5,3.5-1,7.2-1.5,10.8c-0.1,0.4-0.3,0.8-0.8,0.9
			c-6.1,1.7-11.9,4.1-17.4,7.2c-0.3,0.3-0.8,0.2-1.2-0.1c-2.9-2.3-5.8-4.5-8.7-6.6c-4-2.8-9.4-2.5-12.9,1l-12,11.9
			c-3.5,3.5-3.9,8.9-1,12.9c2.1,2.8,4.3,5.8,6.6,8.7c0.3,0.3,0.3,0.8,0.1,1.2c-3.1,5.4-5.5,11.3-7.2,17.4c-0.1,0.4-0.5,0.7-0.8,0.8
			c-3.6,0.5-7.3,1-10.8,1.5c-4.8,0.8-8.4,4.9-8.4,9.8v16.9c0,3.1,1.5,6.1,4,7.9c1.3,1,2.8,1.6,4.4,1.8l5.7,0.8
			c1.3-3.3,3.4-6,6.2-8.1c-3.6-0.4-7.2-0.9-10.6-1.5c-0.5-0.1-0.9-0.5-0.8-1V86.8c0-0.5,0.3-0.9,0.8-1c3.5-0.5,7.1-1,10.7-1.5
			c4-0.5,7.2-3.3,8.3-7.2c1.5-5.4,3.7-10.5,6.4-15.4c2-3.5,1.7-7.8-0.8-10.9c-2.2-2.8-4.4-5.7-6.4-8.6c-0.3-0.4-0.3-1.1,0.1-1.3
			L256.2,29c0.3-0.3,0.9-0.4,1.3-0.1c2.8,2.1,5.7,4.3,8.6,6.4c3.2,2.4,7.4,2.8,10.9,0.8c4.8-2.8,10-4.9,15.4-6.4
			c3.8-1.1,6.7-4.3,7.2-8.3c0.5-3.6,1-7.2,1.5-10.7c0.1-0.5,0.5-0.9,1-0.8H319c0.6,0,1,0.3,1.1,0.8c0.5,3.5,1,7.1,1.5,10.7
			c0.5,4,3.3,7.2,7.2,8.3c5.4,1.5,10.5,3.7,15.4,6.4c3.5,2,7.8,1.7,10.9-0.8c2.8-2.3,5.8-4.4,8.6-6.4c0.4-0.3,1-0.3,1.3,0.1l12,11.9
			c0.3,0.3,0.4,1,0.1,1.3c-2.1,2.8-4.3,5.7-6.4,8.6c-2.4,3.2-2.8,7.4-0.8,10.9c2.8,4.8,4.9,10,6.4,15.4c1.1,3.8,4.3,6.7,8.3,7.2
			c3.6,0.5,7.2,1,10.7,1.5c0.5,0.1,0.9,0.5,0.9,1v16.9c0,0.5-0.3,0.9-0.9,1c-3.5,0.5-7.1,1-10.7,1.5c-4,0.5-7.2,3.3-8.3,7.2
			c-1.5,5.4-3.6,10.7-6.4,15.5c-2,3.5-1.7,7.8,0.8,10.9c2.2,2.8,4.4,5.7,6.4,8.6c0.3,0.4,0.3,1.1-0.1,1.3l-12,11.9
			c-0.3,0.3-0.9,0.4-1.3,0.1c-2.8-2.1-5.7-4.3-8.6-6.4c-3.2-2.4-7.4-2.8-10.9-0.8c-4.8,2.8-10,4.9-15.4,6.4
			c-3.8,1.1-6.7,4.3-7.2,8.3c-0.4,3.6-0.9,7.2-1.5,10.6c-0.1,0.6-0.6,0.9-1.1,0.9h-16.9c-0.5,0-1-0.3-1-0.9c-0.5-3.5-1-7.1-1.5-10.6
			c-0.5-4-3.3-7.2-7.2-8.3c-4.9-1.3-9.7-3.3-14.2-5.7l-1.3-0.7c-3.5-1.9-7.8-1.7-10.9,0.8l-0.8,0.7v11c2.1-1.6,4.2-3.2,6.3-4.8
			c0.3-0.3,0.8-0.3,1.2-0.1c0.9,0.6,1.9,1,2.8,1.6c4.7,2.4,9.6,4.3,14.6,5.7c0.4,0.1,0.8,0.5,0.8,0.9c0.5,3.6,1,7.3,1.5,10.8
			c0.8,4.8,4.9,8.4,9.8,8.4h16.9c4.9,0,9-3.6,9.8-8.4c0.6-3.5,1-7.2,1.6-10.8c0.1-0.4,0.3-0.8,0.8-0.9c6.1-1.7,11.9-4.1,17.5-7.2
			c0.3-0.3,0.8-0.2,1.2,0.1c2.9,2.3,5.8,4.5,8.8,6.6c3.9,2.8,9.4,2.5,12.9-1l11.9-11.9c3.5-3.5,3.8-8.9,1-12.9
			c-2.1-2.8-4.3-5.8-6.6-8.8c-0.3-0.3-0.3-0.8-0.1-1.2c3.1-5.4,5.5-11.3,7.3-17.4c0.1-0.4,0.5-0.8,0.9-0.8c3.6-0.5,7.3-1,10.8-1.5
			c4.8-0.8,8.4-4.9,8.4-9.8V86.7C405.1,82,401.6,77.9,396.7,77.1z"/>
		<path class="st4" d="M310.9,54.5c-22.6,0-40.9,18.3-40.9,40.9c0,1.1,0,2.2,0.1,3.3c1.8,22.5,21.5,39.3,44,37.6s39.3-21.5,37.6-44
			C350,70.8,332.3,54.5,310.9,54.5L310.9,54.5z M310.9,127.5c-17.8,0-32.1-14.4-32.1-32.1s14.4-32.1,32.1-32.1
			c17.8,0,32.1,14.4,32.1,32.1l0,0C343,113.1,328.7,127.5,310.9,127.5z"/>
		<path class="st4" d="M221,144.5c-0.9,1.3-1.5,2.7-1.7,4.3c-0.1,1.6,0.2,3.3,1,4.8c1.6,2.8,2.9,5.7,4,8.7c0.5,1.3,0.8,2.6,1.3,3.9
			c0.8,3.1,3.5,5.4,6.8,5.8l2.4,0.3V165l-1.5-0.2c-0.3-0.1-0.6-0.3-0.8-0.6c-1.3-4.9-3.3-9.8-5.9-14.3c-0.2-0.3-0.1-0.7,0.1-1
			c1-1.3,1.9-2.5,2.9-3.8v-15.4l-8.1-8.1c-0.7-0.7-1.4-1.3-2.3-1.6c-2.7-1.3-5.8-0.9-8.2,0.8c-2.3,1.8-4.8,3.5-7.2,5.4
			c-0.3,0.3-0.7,0.3-0.9,0.1c-4.5-2.5-9.3-4.5-14.2-5.9c-0.3-0.1-0.6-0.3-0.6-0.8c-0.3-3-0.8-5.9-1.3-8.9c-0.6-3.9-4-6.8-8-6.9H165
			c-4,0-7.3,2.9-8,6.9c-0.4,2.9-0.8,5.8-1.3,8.9c-0.1,0.3-0.3,0.6-0.6,0.8c-4.9,1.3-9.8,3.3-14.2,5.9c-0.3,0.2-0.7,0.1-0.9-0.1
			c-2.3-1.8-4.8-3.6-7.2-5.4c-3.3-2.3-7.7-2.1-10.5,0.8l-9.7,9.8c-2.8,2.8-3.2,7.3-0.8,10.5c1.8,2.3,3.5,4.8,5.4,7.2
			c0.3,0.3,0.3,0.7,0.1,1c-2.5,4.5-4.5,9.3-5.9,14.3c-0.1,0.3-0.3,0.6-0.8,0.6c-3,0.3-5.9,0.8-8.9,1.3c-3.9,0.6-6.8,4-6.9,7.9V188
			c0,4,2.9,7.3,6.9,8c2.9,0.4,5.8,0.8,8.9,1.3c0.3,0.1,0.6,0.3,0.8,0.6c1.3,4.9,3.3,9.8,5.9,14.3c0.2,0.3,0.1,0.7-0.1,0.9
			c-1.8,2.3-3.6,4.8-5.4,7.2c-2.3,3.3-2,7.7,0.8,10.5l9.8,9.8c2.8,2.8,7.3,3.2,10.5,0.8c2.3-1.8,4.8-3.5,7.2-5.4
			c0.3-0.3,0.6-0.3,1-0.1c4.5,2.5,9.3,4.5,14.2,5.9c0.3,0.1,0.6,0.3,0.6,0.8c0.3,3,0.8,5.9,1.3,8.9c0.6,3.9,4,6.8,8,6.8H179
			c4,0,7.3-2.9,8-6.8c0.4-2.9,0.8-5.9,1.3-8.9c0.1-0.3,0.3-0.6,0.6-0.8c3.7-1,7.2-2.3,10.6-4c1.3-0.6,2.4-1.3,3.6-1.8
			c0.3-0.2,0.7-0.1,0.9,0.1l2.3,1.8c1.6,1.2,3.2,2.4,4.8,3.5c3.3,2.3,7.7,2.1,10.5-0.8l2.8-2.8l6.9-6.9c0.9-0.9,1.7-2.1,2.1-3.4
			h-8.8l-8.1,8.1c-0.3,0.3-0.8,0.3-1.1,0.1c-2.3-1.8-4.7-3.5-7-5.3c-2.5-2-6.1-2.3-8.9-0.6c-4,2.3-8.3,4-12.7,5.2
			c-3.1,0.8-5.4,3.5-5.8,6.8c-0.3,2.9-0.8,5.8-1.2,8.7c-0.1,0.4-0.4,0.8-0.8,0.8h-13.8c-0.4,0-0.8-0.3-0.8-0.8
			c-0.4-2.8-0.8-5.8-1.3-8.7c-0.4-3.3-2.8-5.9-5.8-6.8c-4.4-1.3-8.6-3-12.6-5.2c-1.3-0.7-2.6-1.1-4-1c-1.8,0-3.5,0.6-4.9,1.7
			c-2.3,1.8-4.8,3.6-7,5.3c-0.3,0.3-0.8,0.2-1.1-0.1l-9.8-9.8c-0.3-0.3-0.3-0.8-0.1-1.1c1.8-2.3,3.5-4.7,5.3-7
			c2-2.5,2.3-6.1,0.6-8.9c-2.3-4-4-8.2-5.2-12.6c-0.8-3.1-3.5-5.4-6.8-5.8c-2.9-0.3-5.8-0.8-8.7-1.3c-0.4-0.1-0.8-0.4-0.8-0.8v-13.8
			c0-0.4,0.3-0.8,0.8-0.8c2.8-0.4,5.8-0.8,8.7-1.3c3.3-0.4,5.9-2.8,6.8-5.8c1.2-4.4,3-8.6,5.2-12.6c1.6-2.8,1.3-6.3-0.6-8.9
			c-1.8-2.3-3.6-4.7-5.3-7c-0.3-0.3-0.2-0.8,0.1-1.1l9.8-9.8c0.3-0.3,0.8-0.3,1.1-0.1c2.3,1.8,4.7,3.5,7,5.3c2.5,2,6.1,2.3,8.9,0.6
			c4-2.3,8.2-4,12.6-5.2c3.1-0.8,5.4-3.5,5.8-6.7c0.3-2.9,0.8-5.8,1.3-8.7c0.1-0.4,0.4-0.8,0.8-0.8H179c0.4,0,0.8,0.3,0.8,0.8
			c0.4,2.8,0.8,5.8,1.2,8.7c0.4,3.3,2.8,5.9,5.8,6.7c4.3,1.3,8.6,3,12.5,5.2c2.8,1.6,6.3,1.3,8.9-0.6c2.3-1.8,4.8-3.6,7-5.3
			c0.3-0.3,0.8-0.2,1.1,0.1l2.8,2.8l7,7c0.3,0.3,0.3,0.8,0.1,1.1C224.6,139.8,222.7,142.1,221,144.5z"/>
		<path class="st4" d="M172,147.4c-18.5-0.1-33.5,14.9-33.6,33.4s14.9,33.5,33.4,33.6s33.5-14.9,33.6-33.4c0-0.1,0-0.1,0-0.1
			C205.3,162.4,190.4,147.4,172,147.4z M172,207c-14.4,0-26.2-11.8-26.2-26.2s11.8-26.2,26.2-26.2s26.2,11.8,26.2,26.2
			S186.4,207,172,207L172,207z"/>
		<path class="st2" d="M232.3,151.7c-1.8-1.2-2.8-3.1-2.8-5.2v-1.4c-0.9,1.3-1.9,2.5-2.9,3.8c-0.3,0.3-0.3,0.7-0.1,1
			c2.5,4.5,4.5,9.3,5.9,14.3c0.1,0.3,0.3,0.6,0.8,0.6l1.5,0.2v-8.9C234.7,154.3,233.8,152.7,232.3,151.7z M225.6,166
			c-0.3-1.3-0.8-2.7-1.3-3.9v16.1c-6.9,3.6-13.7,7.6-20.2,11.9c-5.1,3.4-10.1,7.1-14.9,10.9c-3.4,2.8-5.7,6.8-6.3,11.3
			c-0.1,0.8-0.1,1.5-0.1,2.3v17.5c0,1.3,0.5,2.6,1.4,3.5c0.8-0.6,1.7-1.1,2.6-1.3c4.4-1.2,8.6-3,12.6-5.2c2.8-1.6,6.3-1.3,8.9,0.6
			c2.3,1.8,4.8,3.6,7,5.3c0.3,0.3,0.8,0.2,1.1-0.1l8.1-8.1h-31.3v-12.4c0-2.2,1-4.3,2.7-5.5c10.9-8.9,22.8-16.4,35.3-22.7
			c2.2-1.1,3.5-3.3,3.6-5.7V172l-2.4-0.3C229.1,171.5,226.4,169.1,225.6,166L225.6,166z M232.3,151.7c-1.8-1.2-2.8-3.1-2.8-5.2v-1.4
			c-0.9,1.3-1.9,2.5-2.9,3.8c-0.3,0.3-0.3,0.7-0.1,1c2.5,4.5,4.5,9.3,5.9,14.3c0.1,0.3,0.3,0.6,0.8,0.6l1.5,0.2v-8.9
			C234.7,154.3,233.8,152.7,232.3,151.7z M311.1,201c-10.9-8.8-22.7-16.4-35.2-22.8v-19.7c1.1-1,1.9-2.1,2.8-3.3
			c1.7-2.7,2.5-5.7,2.5-8.9v-25.6c0-15.6-12.7-28.2-28.2-28.2h-5.5c-12,0-22.8,7.6-26.7,19c-0.9,2.6-1.4,5.4-1.5,8.2
			c0,0.3,0,0.7,0,1v25.6c0,4.5,1.8,8.9,5.1,12V178c-6.9,3.6-13.7,7.6-20.2,11.9c-5.1,3.4-10.1,7.1-14.9,10.9
			c-3.4,2.8-5.7,6.8-6.3,11.3c-0.1,0.8-0.1,1.5-0.1,2.3v17.5c0,2.8,2.3,5.2,5.1,5.2h124.3c2.8,0,5.2-2.3,5.2-5.2v-17.5
			C317.4,209.4,315.2,204.4,311.1,201z M307,226.9H193.2v-12.4c0-2.2,1-4.3,2.7-5.5c10.9-8.9,22.8-16.4,35.3-22.7
			c2.2-1.1,3.5-3.3,3.6-5.7V156c0-1.8-0.8-3.3-2.3-4.3c-1.8-1.2-2.8-3.1-2.8-5.2v-25.7c0-2.2,0.4-4.4,1.3-6.4
			c2.7-6.9,9.3-11.4,16.6-11.4h5.5c9.8,0,17.8,8,17.8,17.8v25.7c0,2.1-1.1,4.1-2.8,5.2c-1.4,0.9-2.3,2.5-2.3,4.3v24.6
			c0,2.4,1.3,4.6,3.5,5.7c12.5,6.3,24.4,13.9,35.4,22.7l0,0c1.7,1.3,2.7,3.4,2.6,5.5L307,226.9z M232.3,151.7
			c-1.8-1.2-2.8-3.1-2.8-5.2v-1.4c-0.9,1.3-1.9,2.5-2.9,3.8c-0.3,0.3-0.3,0.7-0.1,1c2.5,4.5,4.5,9.3,5.9,14.3
			c0.1,0.3,0.3,0.6,0.8,0.6l1.5,0.2v-8.9C234.7,154.3,233.8,152.7,232.3,151.7L232.3,151.7z"/>
	</g>
</g>
</svg>
