<?xml version="1.0" encoding="utf-8"?>
<!-- Generator: Adobe Illustrator 22.1.0, SVG Export Plug-In . SVG Version: 6.00 Build 0)  -->
<svg version="1.1" id="Layer_1" xmlns="http://www.w3.org/2000/svg" xmlns:xlink="http://www.w3.org/1999/xlink" x="0px" y="0px"
	 viewBox="0 0 500 213.4" style="enable-background:new 0 0 500 213.4;" xml:space="preserve">
<style type="text/css">
	.st0{opacity:0.15;fill:#FF6E60;enable-background:new    ;}
	.st1{opacity:0.2;}
	.st2{fill:#FF6E60;}
	.st3{fill:#B56561;}
	.st4{fill:#01719A;}
</style>
<title>MLM-3_1</title>
<g id="Layer_2_1_">
	<g id="Layer_1-2">
		<path class="st0" d="M217,43.5c-0.4,8.2,2.3,17.3-2.1,24.2c-4.9,7.8-12.8,1.9-20.2,2.2c-8.4,0.3-17.1,2.5-24.2,7.4
			c-7.7,5.3-11.6,15.8-13.3,24.7c-4.1,19.5,1,40.9,10.7,58.2c12.6,22.7,38.9,35.4,62.9,22.7c3.1-1.7,6-3.6,9.3-5
			c12.3-5.4,26.7-0.1,39.5-1c15.3-1.1,29.6-1.1,43.2-9.3c19-11.5,28.9-39.3,15.6-58.3c-5.9-8.4-13.6-15.9-17.3-25.4
			c-5.2-13.5-1.6-29.1-6.5-42.7c-5.1-14.2-19-24-33.6-26.8c-18.7-3.6-55.4,2.1-62.8,23.2C217.5,39.5,217.1,41.5,217,43.5z"/>
		<g class="st1">
			<path class="st2" d="M213.7,37.1c-15.3,0.6-30.5,5.5-42.3,15.2c-6.6,5.5-12.1,12.5-14.5,20.7c-3.9,13.5,1.2,28,7.9,40.4
				c13.8,25.7,34.3,47.2,59.3,62.3c3.6,2.3,7.6,4.2,11.7,5.6c5.7,1.8,11.7,1.8,17.6,2c7.6,0.2,15.4,0.3,22.7-1.6
				c7-1.8,13.3-5.2,19.4-9.1c18-11.5,34.1-27.5,41.5-47.7c7.4-20.1,4.6-44.7-10.3-60.2c-8-8.2-18.5-13.3-29.6-16.3
				c-12.9-3.4-25.8-3.6-38.9-4.8C242.9,42.1,229.2,36.5,213.7,37.1z"/>
			<path class="st2" d="M215.3,27.5c3.4-2.3,4.8-6.5,3.4-10.3c-0.2-0.7-0.5-1.3-0.9-1.8c-1.3-1.6-3.5-2.1-5.6-1.9
				C196.9,14.4,202.4,36.1,215.3,27.5z"/>
			<path class="st2" d="M225.5,189.3c-6.4,3.9-7.6,11.7,0.6,10.7c2.3-0.3,4.6-1.1,6.7-2.1c2.9-1.4,5.9-3.4,6.9-5.7
				C243.4,183.8,232.8,184.9,225.5,189.3z"/>
		</g>
		<path class="st3" d="M250.3,106.3l-0.7,0.7C249.9,106.7,250.1,106.6,250.3,106.3z"/>
		<path class="st2" d="M208.1,27.2V14.3c0-7.9-6.4-14.3-14.3-14.3H191c-7.9,0-14.3,6.4-14.3,14.3v12.9c0,2.3,0.9,4.4,2.6,6v9.9
			c-6.3,3.2-12.2,7-17.7,11.6c-2.1,1.7-3.3,4.2-3.3,6.9v8.8c0,1.5,1.2,2.6,2.6,2.6c0,0,0,0,0.1,0h62.7c1.5,0,2.6-1.2,2.6-2.6l0,0
			v-8.8c0-2.7-1.2-5.1-3.2-6.9c-5.5-4.4-11.4-8.3-17.7-11.6v-9.9C207.2,31.7,208.1,29.5,208.1,27.2z M219.9,58.8
			c0.8,0.7,1.3,1.8,1.3,2.8v6.2h-57.5v-6.2c0-1.1,0.5-2.1,1.3-2.8c5.5-4.4,11.5-8.3,17.9-11.4c1.1-0.5,1.8-1.7,1.8-2.9V32.1
			c0-0.8-0.5-1.7-1.2-2.2c-0.8-0.6-1.4-1.5-1.4-2.6v-13c0-4.9,4-9.1,9.1-9.1h2.8c4.9,0,9.1,4,9.1,9.1v12.9c0,1.1-0.5,2.1-1.4,2.7
			c-0.8,0.5-1.2,1.3-1.2,2.2v12.4c0,1.2,0.8,2.3,1.8,2.9C208.4,50.5,214.4,54.3,219.9,58.8z"/>
		<path class="st2" d="M208.1,167.4v-12.9c0-7.9-6.4-14.3-14.3-14.3l0,0H191c-7.9,0-14.3,6.4-14.3,14.3v13c0,2.3,0.9,4.4,2.6,6v9.9
			c-6.3,3.2-12.2,7-17.7,11.5c-2.1,1.7-3.3,4.2-3.2,6.9v8.9c0,1.5,1.2,2.6,2.5,2.7h0.1h62.7c1.5,0,2.6-1.2,2.6-2.6l0,0V202
			c0-2.7-1.2-5.1-3.2-6.9c-5.5-4.4-11.4-8.3-17.7-11.6v-10C207.2,171.9,208.1,169.7,208.1,167.4z M219.9,199
			c0.8,0.7,1.3,1.8,1.3,2.8v6.2h-57.5v-6.2c0-1.1,0.5-2.1,1.3-2.8c5.5-4.4,11.5-8.3,17.9-11.4c1.1-0.5,1.8-1.7,1.8-2.9v-12.5
			c0-0.8-0.5-1.7-1.2-2.2c-0.8-0.6-1.4-1.6-1.4-2.7v-12.9c0-4.9,4-9.1,9.1-9.1h2.8c4.9,0,9.1,4,9.1,9.1v12.9c0,1.1-0.5,2.1-1.4,2.7
			c-0.8,0.5-1.2,1.3-1.2,2.2v12.5c0,1.2,0.8,2.3,1.8,2.9C208.4,190.7,214.4,194.6,219.9,199L219.9,199z"/>
		<path class="st2" d="M132.6,167.4v-12.9c0-7.9-6.4-14.3-14.3-14.3l0,0h-2.8c-7.9,0-14.3,6.4-14.3,14.3v13c0,2.3,0.9,4.4,2.6,6v9.9
			c-6.3,3.2-12.2,7-17.7,11.5c-2.1,1.7-3.3,4.2-3.2,6.9v8.9c0,1.5,1.2,2.6,2.5,2.7h0.1h62.8c1.5,0,2.6-1.2,2.6-2.6v-0.1v-8.8
			c0-2.7-1.2-5.1-3.2-6.9c-5.5-4.4-11.4-8.3-17.7-11.6v-9.9C131.6,171.9,132.5,169.7,132.6,167.4z M144.3,199
			c0.8,0.7,1.3,1.8,1.3,2.8v6.2H88.2v-6.2c0-1.1,0.5-2.1,1.3-2.8c5.5-4.4,11.5-8.3,17.9-11.4c1.1-0.5,1.8-1.7,1.8-2.9v-12.5
			c0-0.8-0.5-1.7-1.2-2.2c-0.8-0.6-1.4-1.6-1.4-2.7v-12.9c0-4.9,4-9.1,9.1-9.1h2.8c4.9,0,9,4,9.1,9.1v12.9c0,1.1-0.5,2.1-1.4,2.7
			c-0.8,0.5-1.2,1.3-1.2,2.2v12.5c0,1.2,0.8,2.3,1.8,2.9C132.8,190.7,138.8,194.6,144.3,199L144.3,199z"/>
		<path class="st2" d="M283.8,167.4v-12.9c0-7.9-6.4-14.3-14.3-14.3l0,0h-2.8c-7.9,0-14.3,6.4-14.3,14.3v13c0,2.3,0.9,4.4,2.5,6v9.9
			c-6.3,3.2-12.2,7-17.7,11.6c-2.1,1.7-3.3,4.2-3.2,6.9v8.8c0,1.5,1.2,2.6,2.6,2.6l0,0h62.8c1.5,0,2.6-1.2,2.6-2.6l0,0v-8.8
			c0-2.7-1.2-5.1-3.2-6.9c-5.5-4.4-11.4-8.3-17.7-11.6v-10C282.8,171.9,283.8,169.7,283.8,167.4z M295.6,199
			c0.8,0.7,1.3,1.8,1.3,2.8v6.2h-57.5v-6.2c0-1.1,0.5-2.1,1.3-2.8c5.5-4.4,11.5-8.3,17.9-11.4c1.1-0.5,1.8-1.7,1.8-2.9v-12.5
			c0-0.8-0.5-1.7-1.2-2.2c-0.8-0.6-1.4-1.6-1.4-2.7v-12.9c0-4.9,4-9.1,9.1-9.1h2.8c4.9,0,9.1,4,9.1,9.1v12.9c0,1.1-0.5,2.1-1.4,2.7
			c-0.8,0.5-1.2,1.3-1.2,2.2v12.5c0,1.2,0.8,2.3,1.8,2.9C284.1,190.7,290.1,194.6,295.6,199L295.6,199z"/>
		<path class="st2" d="M398.7,167.4v-12.9c0-7.9-6.4-14.3-14.3-14.3l0,0h-2.8c-7.9,0-14.3,6.4-14.3,14.3c0,0,0,0,0,0.1v12.9
			c0,2.3,0.9,4.4,2.6,6v9.9c-6.3,3.2-12.2,7-17.7,11.6c-2.1,1.7-3.3,4.2-3.2,6.9v8.8c0,1.5,1.2,2.6,2.6,2.6c0,0,0,0,0.1,0h62.6
			c1.5,0,2.6-1.2,2.6-2.6c0,0,0,0,0-0.1v-8.8c0-2.7-1.2-5.1-3.2-6.9c-5.5-4.4-11.4-8.3-17.7-11.6v-10
			C397.8,171.9,398.7,169.7,398.7,167.4z M410.5,199c0.8,0.7,1.3,1.8,1.3,2.8v6.2h-57.5v-6.2c0-1.1,0.5-2.1,1.3-2.8
			c5.5-4.4,11.5-8.3,17.9-11.4c1.1-0.5,1.8-1.7,1.8-2.9v-12.5c0-0.8-0.5-1.7-1.2-2.2c-0.8-0.6-1.4-1.6-1.4-2.7v-12.9
			c0-4.9,4-9.1,9.1-9.1h2.8c4.9,0,9,4,9.1,9.1v12.9c0,1.1-0.5,2.1-1.4,2.7c-0.8,0.5-1.2,1.3-1.2,2.2v12.5c0,1.2,0.8,2.3,1.8,2.9
			C399,190.7,405,194.6,410.5,199L410.5,199z"/>
		<path class="st4" d="M383.1,131c-0.2,1.5-1.4,2.6-2.9,2.6H380l-175.8-16.9l13,8.5c1.5,0.9,1.8,2.9,0.9,4.4c-0.9,1.5-2.9,1.8-4.4,1
			l-18-11.7v9.1c0,1.8-1.4,3.1-3.1,3.1c-1.8,0-3.1-1.4-3.1-3.1v-0.1v-9.2l-18,11.7c-0.5,0.3-1.1,0.5-1.7,0.5c-1.1,0-2.1-0.5-2.7-1.5
			c-0.9-1.5-0.5-3.4,0.8-4.4l0,0l21.5-13.9V85.4c0-1.8,1.4-3.1,3.1-3.1h0.1c1.8,0,3.1,1.4,3.1,3.1v24.5l0,0l184.7,17.9
			C382,128,383.2,129.4,383.1,131z"/>
		<circle class="st4" cx="312.1" cy="208" r="5"/>
		<circle class="st4" cx="325.6" cy="208" r="5"/>
		<circle class="st4" cx="339.1" cy="208.2" r="5"/>
	</g>
</g>
</svg>
