<?xml version="1.0" encoding="utf-8"?>
<!-- Generator: Adobe Illustrator 22.1.0, SVG Export Plug-In . SVG Version: 6.00 Build 0)  -->
<svg version="1.1" id="Layer_1" xmlns="http://www.w3.org/2000/svg" xmlns:xlink="http://www.w3.org/1999/xlink" x="0px" y="0px"
	 viewBox="0 0 500 500" style="enable-background:new 0 0 500 500;" xml:space="preserve">
<style type="text/css">
	.st0{fill:#CC2229;}
</style>
<g>
	<path d="M384.3,49.6h23l-0.7,4.1h-4.3c-2.2,0-3.6-0.5-3.6-0.5v7.4c0,2.6-0.7,5.3-0.7,7.9c0,2.6-0.7,5.3-0.7,6.7h-5.8v-6.7
		c0-2.6,0.7-5.3,0.7-7.9c0-2.9,0.7-6.2,0.7-7.4h-2.9h-2.9c-1.4,0-2.9,0.5-2.9,0.5L384.3,49.6L384.3,49.6L384.3,49.6z M410.2,49.6
		h7.9c0,1.4,0.7,2.9,0.7,3.6c0,1.2,1.4,3.4,2.2,6c0,0.7,0.7,2.6,0.7,4.1c0.7,2.6,2.2,5.3,2.2,5.3c0-1.4,1.4-3.4,2.2-6
		c0.7-1.9,2.2-4.8,2.9-6.7c0.7-2.2,2.2-4.8,2.2-6.2h8.6v8.2c0,2.9-0.7,6.7-0.7,9.4v8.2h-5.8V70v-6.7c0-2.2,0.7-4.1,0.7-5.5v-2.6
		l-7.9,20.2h-5.8c0-1.4-1.4-4.1-1.4-6c-0.7-3.4-2.2-6-2.2-6.7c0-1.4-1.4-4.1-2.2-6.7v6.7c0,1.9-0.7,4.6-0.7,6.7v6h-5.8
		c0-2.6,0.7-6,0.7-8.9c0-2.4,0.7-5.8,0.7-8.6C409.5,55.1,410.2,52.4,410.2,49.6L410.2,49.6z M133.2,458.3h-15.4l-6-21.6H83.5
		l-6,21.6H62.7l26.2-95.5h16.8L133.2,458.3z M107.5,421.1l-10.1-36l-9.4,36H107.5z M188.4,458.3h-13v-9.8c-2.2,4.3-5,7.2-7.7,8.4
		c-2.6,1.4-5.5,3.1-8.4,3.1c-5.3,0-10.6-3.6-14.4-9.6c-4.3-5.5-6.2-15.1-6.2-26.4c0-11.5,1.9-21.6,5.5-27.6
		c3.8-5.8,9.4-9.4,15.8-9.4c5,0,10.3,3.6,14.9,10.1v-34.3h13.4L188.4,458.3L188.4,458.3z M151.9,422.3c0,7.2,1,13.7,2.2,16.6
		c2.2,4.3,5.3,7.2,8.9,7.2c3.4,0,6-2.2,8.2-4.8c2.2-3.6,3.8-9.6,3.8-16.8c0-7.7-1.2-14.2-3.4-17.8c-1.9-3.6-5.3-6-8.6-6
		c-2.9,0-5.5,2.4-7.9,5.3C152.9,409.6,151.9,415.1,151.9,422.3L151.9,422.3z M199.5,422.3c0-5.5,0.7-11.5,2.9-17
		c2.4-5.8,5.5-10.1,9.4-13c4.1-3.1,9.1-5.3,13.9-5.3c7.4,0,14.4,3.6,19,10.1c5,7.2,7.7,16.8,7.7,26.9c0,10.1-2.6,19.2-7.7,25.7
		c-5.3,6.7-11.5,10.3-19,10.3c-4.6,0-9.1-1.7-13.4-4.3c-4.3-2.9-7.4-7.2-9.8-12.5c-2.2-5.5-2.9-12.7-2.9-19.9L199.5,422.3
		L199.5,422.3L199.5,422.3z M212.9,424c0,7.2,0.7,12.7,2.9,16.3c2.4,3.6,6,5.8,9.4,5.8c3.1,0,6.7-2.2,8.9-5.8
		c2.4-3.6,3.8-9.1,3.8-16.3s-1.4-13.2-3.8-16.8c-2.2-4.1-5.8-6.5-8.9-6.5c-3.4,0-6.7,2.4-8.6,6C214.4,410.8,212.9,416.8,212.9,424
		L212.9,424z M262.8,458.3v-95.5h13.4v34.3c3.8-6.5,9.4-10.1,14.6-10.1c6.2,0,11.5,3.6,15.6,9.4c4.1,6,6.5,15.1,6.5,26.9
		c0,11.5-2.4,21.6-6.5,27.1c-4.3,6-9.6,9.6-14.9,9.6c-2.9,0-6-1.7-8.6-3.1c-2.9-1.2-5.5-4.8-7-8.4v9.8L262.8,458.3L262.8,458.3z
		 M276.3,422.3c0,7.2,1.2,13.7,2.4,16.6c2.2,4.3,5.8,7.2,9.6,7.2c3.4,0,6-2.2,7.9-4.8c2.2-2.9,3.4-9.6,3.4-16.8
		c0-7.7-1.2-14.2-3.4-17.8c-1.9-3.6-5.3-6-8.6-6c-3.1,0-5.8,2.4-7.9,5.3C277.5,409.6,276.3,415.1,276.3,422.3L276.3,422.3z
		 M353.8,436.7l13.4,2.2c-1.4,7.2-4.8,13.2-8.2,15.8c-3.8,2.9-9.1,5.3-14.6,5.3c-8.2,0-15.4-4.3-19.4-11.5c-3.4-6-4.8-14.4-4.8-24
		c0-11.3,1.9-20.9,6.2-27.4c4.3-6.5,10.6-10.1,17.3-10.1c7.4,0,13.4,3.6,17.5,10.1c4.6,7.2,7.2,18,7.2,31.7h-34.8
		c0,6,0.7,10.1,3.1,13.2c2.2,2.9,4.8,4.1,7.7,4.1c2.4,0,4.6-0.5,5.5-2.2C351.2,442.5,352.6,439.6,353.8,436.7L353.8,436.7z
		 M355,417.5c0-5-1.9-9.6-3.4-12.2c-1.9-2.9-4.8-4.6-7.4-4.6c-3.1,0-6,2.4-7.4,5.3c-2.4,2.9-3.1,7.2-3.1,11.5L355,417.5L355,417.5z"
		/>
	<path class="st0" d="M60.3,40h115.2L60.3,320.6V40z M254,40h116.7v277L254,40z M216,147.3l63.6,168.3h-39.4l-27.1-53.3h-43.2
		L216,147.3z"/>
</g>
</svg>
