<?xml version="1.0" encoding="utf-8"?>
<!-- Generator: Adobe Illustrator 22.1.0, SVG Export Plug-In . SVG Version: 6.00 Build 0)  -->
<svg version="1.1" id="Layer_1" xmlns="http://www.w3.org/2000/svg" xmlns:xlink="http://www.w3.org/1999/xlink" x="0px" y="0px"
	 viewBox="0 0 500 500" style="enable-background:new 0 0 500 500;" xml:space="preserve">
<style type="text/css">
	.st0{fill:#264DE4;}
	.st1{fill:#2965F1;}
	.st2{fill:#EBEBEB;}
	.st3{fill:#FFFFFF;}
</style>
<g>
	<polygon id="polygon2989" class="st0" points="249.8,455.7 101.6,414.6 68.6,44.3 431.4,44.3 398.3,414.5 	"/>
	<polygon id="polygon2991" class="st1" points="370,390.9 398.3,74.6 250,74.6 250,424.2 	"/>
	<polygon id="polygon2993" class="st2" points="144.3,211.9 148.4,257.3 250,257.3 250,211.9 	"/>
	<polygon id="polygon2995" class="st2" points="136.1,120 140.3,165.4 250,165.4 250,120 249.8,120 	"/>
	<polygon id="polygon2997" class="st2" points="250,329.8 249.8,329.9 199.2,316.2 196,280 171.4,280 150.4,280 156.8,351.3 
		249.8,377.1 250,377.1 	"/>
	<polygon id="polygon3005" class="st3" points="355.4,211.9 363.6,120 249.8,120 249.8,165.4 313.8,165.4 309.7,211.9 249.8,211.9 
		249.8,257.3 305.8,257.3 300.5,316.2 249.8,329.9 249.8,377.1 342.9,351.3 343.6,343.7 354.3,224.1 	"/>
</g>
</svg>
