<?xml version="1.0" encoding="utf-8"?>
<!-- Generator: Adobe Illustrator 22.1.0, SVG Export Plug-In . SVG Version: 6.00 Build 0)  -->
<svg version="1.1" id="Layer_1" xmlns="http://www.w3.org/2000/svg" xmlns:xlink="http://www.w3.org/1999/xlink" x="0px" y="0px"
	 viewBox="0 0 500 500" style="enable-background:new 0 0 500 500;" xml:space="preserve">
<style type="text/css">
	.st0{fill:#F0543F;}
</style>
<g>
	<path class="st0" d="M306,407.5c-2.5,0-4.8-1.3-6.1-3.5L246,314.1l-100.7,27.4c-3.2,0.9-6.6-0.6-8.2-3.5L19.3,116.4
		c-1.1-2.1-1.1-4.5,0-6.6c1.1-2.1,3.1-3.5,5.4-3.8l100.1-13.5c2.8-0.4,5.6,1,7.1,3.4l120.9,201.5L393,259.3l-46.9-66.1
		c-1.4-1.9-1.7-4.4-0.8-6.6c0.8-2.2,2.7-3.9,5-4.4l65.7-15.5c2.7-0.6,5.5,0.3,7.2,2.5l56.8,70.9c1.5,1.9,2,4.4,1.2,6.7
		c-0.8,2.3-2.6,4-4.9,4.7l-59.9,16.3l52.2,73.6c1.3,1.8,1.7,4.2,1,6.3c-0.7,2.1-2.3,3.8-4.4,4.6l-156.8,54.9
		C307.6,407.3,306.8,407.5,306,407.5z M260.3,310.2l48.9,81.5l142.4-49.9l-49.7-70.1L260.3,310.2z M36.7,118.8L147,326.2l91.4-24.9
		L122,107.3L36.7,118.8z M363.9,193.6l43.8,61.7l54.4-14.8l-47.2-59L363.9,193.6z"/>
</g>
</svg>
