<?xml version="1.0" encoding="utf-8"?>
<!-- Generator: Adobe Illustrator 22.1.0, SVG Export Plug-In . SVG Version: 6.00 Build 0)  -->
<svg version="1.1" id="Layer_1" xmlns="http://www.w3.org/2000/svg" xmlns:xlink="http://www.w3.org/1999/xlink" x="0px" y="0px"
	 viewBox="0 0 500 500" style="enable-background:new 0 0 500 500;" xml:space="preserve">
<style type="text/css">
	.st0{fill:#8993BE;}
	.st1{fill:#232531;}
</style>
<g>
	<ellipse class="st0" cx="250" cy="246.2" rx="225.6" ry="117.4"/>
	<path class="st1" d="M168.9,200.5h-57.2L87,325.7h29.4l6.2-32.4h27.8c26.3,1.5,55.6-20.1,55.6-57.2
		C206,214.4,193.6,202.1,168.9,200.5z M147.3,270h-18.5l7.7-46.4h20.1c10.8,0,18.5,4.6,18.5,13.9C173.5,263.9,161.2,268.5,147.3,270
		z M275.9,200.5h-27.8l6.2-32.4h-29.4l-24.7,125.1h29.4l13.9-69.5h23.2c10.8,0,10.8,4.6,9.3,12.4l-10.8,57.2H296l10.8-63.3
		C309.9,214.4,300.6,202.1,275.9,200.5z M375.9,200.5h-57.2L294,325.7h29.4l6.2-32.4h27.8c26.3,1.5,55.6-20.1,55.6-57.2
		C413,214.4,400.6,202.1,375.9,200.5z M354.3,270h-18.5l7.7-46.4h20.1c10.8,0,18.5,4.6,18.5,13.9C380.6,263.9,368.2,268.5,354.3,270
		z"/>
</g>
</svg>
