<?xml version="1.0" encoding="utf-8"?>
<!-- Generator: Adobe Illustrator 22.1.0, SVG Export Plug-In . SVG Version: 6.00 Build 0)  -->
<svg version="1.1" id="Layer_1" xmlns="http://www.w3.org/2000/svg" xmlns:xlink="http://www.w3.org/1999/xlink" x="0px" y="0px"
	 viewBox="0 0 500 500" style="enable-background:new 0 0 500 500;" xml:space="preserve">
<style type="text/css">
	.st0{fill:#CF649A;}
</style>
<path class="st0" d="M408.9,274.5c-15.4,0.1-28.7,3.8-39.9,9.3c-4.1-8.2-8.3-15.3-8.9-20.6c-0.8-6.2-1.7-10-0.8-17.4
	c0.9-7.4,5.2-17.9,5.2-18.8c-0.1-0.8-0.9-4.6-9.8-4.6c-8.9-0.1-16.5,1.7-17.4,4c-0.9,2.3-2.6,7.7-3.7,13.2
	c-1.5,8.1-17.7,36.7-26.9,51.8c-3-5.8-5.6-11-6.1-15.1c-0.8-6.2-1.7-10-0.8-17.4c0.9-7.4,5.2-17.9,5.2-18.8
	c-0.1-0.8-0.9-4.6-9.8-4.6c-8.9-0.1-16.5,1.7-17.4,4c-0.9,2.3-1.8,7.8-3.7,13.2c-1.8,5.3-23.3,53.2-28.9,65.6
	c-2.8,6.4-5.3,11.4-7.1,14.9c-1.8,3.4-0.1,0.3-0.3,0.6c-1.5,2.9-2.4,4.6-2.4,4.6v0.1c-1.2,2.2-2.5,4.2-3.1,4.2
	c-0.4,0-1.3-5.8,0.2-13.7c3.2-16.6,10.9-42.5,10.8-43.4c0-0.4,1.5-5-5-7.3c-6.3-2.3-8.5,1.5-9,1.5c-0.5,0-0.9,1.4-0.9,1.4
	s7-29.2-13.3-29.2c-12.7,0-30.3,13.9-39,26.5c-5.5,3-17.2,9.4-29.6,16.2c-4.7,2.6-9.6,5.3-14.3,7.8l-0.9-1
	c-24.6-26.2-70.1-44.8-68.2-80.1c0.7-12.8,5.2-46.6,87.4-87.6c67.4-33.6,121.3-24.3,130.7-3.9c13.3,29.2-28.8,83.6-98.8,91.4
	c-26.7,3-40.7-7.3-44.2-11.2c-3.7-4-4.2-4.2-5.6-3.4c-2.2,1.2-0.9,4.8,0,7c2.1,5.4,10.7,15.1,25.3,19.9c12.8,4.2,44.1,6.5,82-8.1
	c42.4-16.4,75.5-62,65.8-100.1c-9.9-38.8-74.2-51.5-135.1-29.9c-36.2,12.9-75.4,33-103.7,59.4c-33.6,31.3-38.9,58.7-36.6,70
	c7.8,40.5,63.7,66.9,86,86.5c-1.1,0.6-2.2,1.2-3.1,1.7c-11.2,5.5-53.8,27.8-64.4,51.4c-12,26.7,1.9,45.9,11.2,48.4
	c28.7,8,58.2-6.4,74.1-30c15.8-23.7,13.9-54.4,6.6-68.4l-0.3-0.5l8.8-5.2c5.7-3.4,11.3-6.5,16.2-9.1c-2.8,7.5-4.7,16.3-5.8,29.2
	c-1.2,15.1,5,34.8,13.2,42.5c3.6,3.4,7.9,3.4,10.6,3.4c9.5,0,13.8-7.8,18.5-17.2c5.8-11.4,11-24.7,11-24.7s-6.5,35.9,11.2,35.9
	c6.5,0,12.9-8.3,15.8-12.6v0.1c0,0,0.2-0.3,0.5-0.9c0.4-0.5,0.7-1.1,1-1.6v-0.2c2.6-4.5,8.3-14.7,16.9-31.7
	c11.1-21.9,21.8-49.2,21.8-49.2s1,6.7,4.2,17.7c1.9,6.5,6,13.7,9.2,20.6c-2.6,3.6-4.1,5.7-4.1,5.7l0.1,0.1c-2.1,2.8-4.4,5.7-6.8,8.6
	c-8.8,10.5-19.3,22.5-20.6,25.9c-1.6,4-1.3,7.1,1.9,9.5c2.3,1.7,6.5,2.1,10.8,1.7c7.9-0.5,13.4-2.5,16.2-3.7
	c4.3-1.5,9.2-3.9,13.9-7.3c8.6-6.4,13.9-15.4,13.3-27.4c-0.3-6.6-2.4-13.2-5.1-19.4c0.8-1.1,1.5-2.2,2.3-3.4
	c13.6-19.9,24.1-41.7,24.1-41.7s1,6.7,4.2,17.7c1.6,5.6,4.9,11.7,7.8,17.7c-12.7,10.4-20.7,22.5-23.5,30.4
	c-5.1,14.6-1.1,21.2,6.4,22.8c3.4,0.7,8.2-0.9,11.8-2.4c4.5-1.5,9.9-4,14.9-7.7c8.6-6.4,16.9-15.2,16.4-27.2
	c-0.3-5.5-1.7-10.9-3.7-16.1c10.8-4.5,24.9-7.1,42.7-4.9c38.3,4.5,45.9,28.4,44.4,38.4c-1.5,10-9.5,15.5-12.1,17.2
	c-2.7,1.6-3.5,2.2-3.3,3.4c0.3,1.8,1.5,1.7,3.9,1.4c3.2-0.5,20.1-8.2,20.8-26.6C471.2,300.1,448.8,274.2,408.9,274.5L408.9,274.5z
	 M113.7,374c-12.6,13.9-30.5,19.1-38,14.6c-8.2-4.7-5-25.1,10.6-39.8c9.5-8.9,21.8-17.2,29.9-22.3c1.8-1.1,4.6-2.8,7.8-4.7
	c0.5-0.3,0.9-0.5,0.9-0.5c0.6-0.3,1.3-0.8,2-1.2C132.5,341.1,127,359.5,113.7,374L113.7,374z M206.2,311.2
	c-4.4,10.8-13.7,38.4-19.3,36.8c-4.8-1.3-7.7-22.2-0.9-42.8c3.4-10.4,10.8-22.8,15.1-27.6c7-7.7,14.5-10.3,16.4-7.1
	C219.7,274.5,208.9,304.4,206.2,311.2z M282.5,347.6c-1.9,0.9-3.6,1.6-4.4,1.1c-0.6-0.3,0.8-1.6,0.8-1.6s9.5-10.2,13.3-15
	c2.2-2.8,4.7-5.9,7.5-9.5v1C299.7,336,287.8,344.3,282.5,347.6L282.5,347.6z M341.3,334.2c-1.4-1-1.2-4.2,3.4-14.2
	c1.8-4,5.9-10.6,13.1-16.9c0.9,2.6,1.4,5.1,1.3,7.4C359,326,348,331.8,341.3,334.2z"/>
</svg>
