<?xml version="1.0" encoding="utf-8"?>
<!-- Generator: Adobe Illustrator 22.1.0, SVG Export Plug-In . SVG Version: 6.00 Build 0)  -->
<svg version="1.1" id="Layer_1" xmlns="http://www.w3.org/2000/svg" xmlns:xlink="http://www.w3.org/1999/xlink" x="0px" y="0px"
	 viewBox="0 0 467.8 409.6" style="enable-background:new 0 0 467.8 409.6;" xml:space="preserve">
<style type="text/css">
	.st0{fill:#FFFFFF;}
</style>
<title>Asset 2</title>
<path class="st0" d="M451.9,331.9c-33.4,54.4-96.8,63.9-153.4,36.9c-30.9-14.7-60.3-14.8-83.4,1.7c-55.4,39.5-100.1,54.2-154.6,20.5
	c-66.1-40.9-72.4-123.3-46.1-187c6.2-15.1,16.7-43,12.6-58.9C15.5,99.8,13.9,73.7,41.6,39.8c34.6-42.3,96.3-52.3,142.4-23
	c31.6,20,53.9,54.1,70,84.3c11.9,22.4,37.9,56.3,78.5,57.7c33.1,1.1,66,8.6,94.3,31.1C469.6,223.8,480.5,285.4,451.9,331.9z"/>
</svg>
