<svg id="Layer_1" data-name="Layer 1" xmlns="http://www.w3.org/2000/svg" viewBox="0 0 135.54 135.54"><defs><style>.cls-1{fill:#fff;}</style></defs><title>circle-1</title><g id="Layer_2" data-name="Layer 2"><g id="OBJECTS"><path class="cls-1" d="M-217.45,39.82A45.56,45.56,0,0,0-263,85.37a45.56,45.56,0,0,0,45.52,45.57A45.56,45.56,0,0,0-171.9,85.39h0a45.55,45.55,0,0,0-45.53-45.57h0Zm0,87.8A42.27,42.27,0,0,1-259.7,85.37a42.27,42.27,0,0,1,42.25-42.25A42.27,42.27,0,0,1-175.2,85.37h0a42.26,42.26,0,0,1-42.25,42.22Z" transform="translate(284.99 -15.82)"/><path class="cls-1" d="M-217.45,51.37a34,34,0,0,0-34,34h0a34,34,0,0,0,34,34h0a34,34,0,0,0,34-34A34,34,0,0,0-217.45,51.37Z" transform="translate(284.99 -15.82)"/><path class="cls-1" d="M-217.23,15.82A67.78,67.78,0,0,0-285,83.59a67.77,67.77,0,0,0,67.77,67.77,67.77,67.77,0,0,0,67.77-67.77h0a67.76,67.76,0,0,0-67.76-67.76h0Zm-.22,123.24a53.71,53.71,0,0,1-53.72-53.7,53.71,53.71,0,0,1,53.7-53.72h0a53.71,53.71,0,0,1,53.72,53.7h0a53.71,53.71,0,0,1-53.7,53.72Z" transform="translate(284.99 -15.82)"/></g></g></svg>