<svg id="Layer_1" data-name="Layer 1" xmlns="http://www.w3.org/2000/svg" viewBox="0 0 134.88 134.96"><defs><style>.cls-1{fill:#fff;}</style></defs><title>circle-2</title><g id="Layer_2" data-name="Layer 2"><g id="OBJECTS"><path class="cls-1" d="M-195.37,43.41a67.48,67.48,0,0,0-67.44,67.52h0a67.47,67.47,0,0,0,67.44,67.44,67.48,67.48,0,0,0,67.44-67.48A67.48,67.48,0,0,0-195.37,43.41Zm0,128.24a60.76,60.76,0,0,1-60.76-60.76h0a60.76,60.76,0,0,1,60.76-60.76h0a60.76,60.76,0,0,1,60.76,60.76,60.76,60.76,0,0,1-60.76,60.76Z" transform="translate(262.81 -43.41)"/><path class="cls-1" d="M-195.37,60.52a50.37,50.37,0,0,0-50.37,50.37,50.37,50.37,0,0,0,50.33,50.41h0A50.37,50.37,0,0,0-145,110.93a50.37,50.37,0,0,0-50.33-50.41Zm0,93.74a43.37,43.37,0,0,1-43.37-43.37h0a43.37,43.37,0,0,1,43.37-43.37A43.37,43.37,0,0,1-152,110.89a43.37,43.37,0,0,1-43.33,43.41h0Z" transform="translate(262.81 -43.41)"/><path class="cls-1" d="M-195.37,77.77a33.12,33.12,0,0,0-33.12,33.12A33.12,33.12,0,0,0-195.37,144h0a33.12,33.12,0,0,0,33.12-33.12h0A33.12,33.12,0,0,0-195.37,77.77Zm0,59.85a26.73,26.73,0,0,1-26.73-26.73h0a26.73,26.73,0,0,1,26.73-26.73h0a26.73,26.73,0,0,1,26.73,26.73h0a26.73,26.73,0,0,1-26.73,26.73Z" transform="translate(262.81 -43.41)"/></g></g></svg>