<svg xmlns="http://www.w3.org/2000/svg" viewBox="0 0 111.2 111.2"><defs><style>.cls-1{fill:#fff;}</style></defs><title>Asset 3</title><g id="Layer_2" data-name="Layer 2"><g id="Layer_1-2" data-name="Layer 1"><path class="cls-1" d="M8,4A4,4,0,1,1,4,0,4,4,0,0,1,8,4Z"/><path class="cls-1" d="M28.66,4a4,4,0,1,1-4-4A4,4,0,0,1,28.66,4Z"/><path class="cls-1" d="M49.3,4a4,4,0,1,1-4-4A4,4,0,0,1,49.3,4Z"/><path class="cls-1" d="M69.93,4a4,4,0,1,1-4-4A4,4,0,0,1,69.93,4Z"/><path class="cls-1" d="M90.57,4a4,4,0,1,1-4-4A4,4,0,0,1,90.57,4Z"/><path class="cls-1" d="M111.2,4a4,4,0,1,1-4-4A4,4,0,0,1,111.2,4Z"/><path class="cls-1" d="M8,24.65a4,4,0,1,1-4-4A4,4,0,0,1,8,24.65Z"/><path class="cls-1" d="M28.66,24.65a4,4,0,1,1-4-4A4,4,0,0,1,28.66,24.65Z"/><path class="cls-1" d="M49.3,24.65a4,4,0,1,1-4-4A4,4,0,0,1,49.3,24.65Z"/><path class="cls-1" d="M69.93,24.65a4,4,0,1,1-4-4A4,4,0,0,1,69.93,24.65Z"/><path class="cls-1" d="M90.57,24.65a4,4,0,1,1-4-4A4,4,0,0,1,90.57,24.65Z"/><path class="cls-1" d="M111.2,24.65a4,4,0,1,1-4-4A4,4,0,0,1,111.2,24.65Z"/><path class="cls-1" d="M8,45.28a4,4,0,1,1-4-4A4,4,0,0,1,8,45.28Z"/><path class="cls-1" d="M28.66,45.28a4,4,0,1,1-4-4A4,4,0,0,1,28.66,45.28Z"/><path class="cls-1" d="M49.3,45.28a4,4,0,1,1-4-4A4,4,0,0,1,49.3,45.28Z"/><path class="cls-1" d="M69.93,45.28a4,4,0,1,1-4-4A4,4,0,0,1,69.93,45.28Z"/><path class="cls-1" d="M90.57,45.28a4,4,0,1,1-4-4A4,4,0,0,1,90.57,45.28Z"/><path class="cls-1" d="M111.2,45.28a4,4,0,1,1-4-4A4,4,0,0,1,111.2,45.28Z"/><path class="cls-1" d="M8,65.92a4,4,0,1,1-4-4A4,4,0,0,1,8,65.92Z"/><path class="cls-1" d="M28.66,65.92a4,4,0,1,1-4-4A4,4,0,0,1,28.66,65.92Z"/><path class="cls-1" d="M49.3,65.92a4,4,0,1,1-4-4A4,4,0,0,1,49.3,65.92Z"/><path class="cls-1" d="M69.93,65.92a4,4,0,1,1-4-4A4,4,0,0,1,69.93,65.92Z"/><path class="cls-1" d="M90.57,65.92a4,4,0,1,1-4-4A4,4,0,0,1,90.57,65.92Z"/><path class="cls-1" d="M111.2,65.92a4,4,0,1,1-4-4A4,4,0,0,1,111.2,65.92Z"/><path class="cls-1" d="M8,86.55a4,4,0,1,1-4-4A4,4,0,0,1,8,86.55Z"/><path class="cls-1" d="M28.66,86.55a4,4,0,1,1-4-4A4,4,0,0,1,28.66,86.55Z"/><path class="cls-1" d="M49.3,86.55a4,4,0,1,1-4-4A4,4,0,0,1,49.3,86.55Z"/><path class="cls-1" d="M69.93,86.55a4,4,0,1,1-4-4A4,4,0,0,1,69.93,86.55Z"/><path class="cls-1" d="M90.57,86.55a4,4,0,1,1-4-4A4,4,0,0,1,90.57,86.55Z"/><path class="cls-1" d="M111.2,86.55a4,4,0,1,1-4-4A4,4,0,0,1,111.2,86.55Z"/><path class="cls-1" d="M8,107.19a4,4,0,1,1-4-4A4,4,0,0,1,8,107.19Z"/><path class="cls-1" d="M28.66,107.19a4,4,0,1,1-4-4A4,4,0,0,1,28.66,107.19Z"/><path class="cls-1" d="M49.3,107.19a4,4,0,1,1-4-4A4,4,0,0,1,49.3,107.19Z"/><path class="cls-1" d="M69.93,107.19a4,4,0,1,1-4-4A4,4,0,0,1,69.93,107.19Z"/><path class="cls-1" d="M90.57,107.19a4,4,0,1,1-4-4A4,4,0,0,1,90.57,107.19Z"/><path class="cls-1" d="M111.2,107.19a4,4,0,1,1-4-4A4,4,0,0,1,111.2,107.19Z"/></g></g></svg>