<?xml version="1.0" encoding="utf-8"?>
<!-- Generator: Adobe Illustrator 22.1.0, SVG Export Plug-In . SVG Version: 6.00 Build 0)  -->
<svg version="1.1" id="Layer_1" xmlns="http://www.w3.org/2000/svg" xmlns:xlink="http://www.w3.org/1999/xlink" x="0px" y="0px"
	 viewBox="0 0 400 400" style="enable-background:new 0 0 400 400;" xml:space="preserve">
<style type="text/css">
	.st0{fill:#FF6E60;}
</style>
<g>
	<path class="st0" d="M18.3,218.3h323.6l-77.2,77.2c-6.8,6.8-6.8,17.7,0,24.5c6.8,6.8,17.7,6.8,24.5,0l106.8-106.8
		c6.8-6.8,6.8-17.7,0-24.5L289.2,82c-3.4-3.4-7.8-5.1-12.2-5.1s-8.9,1.7-12.2,5.1c-6.8,6.8-6.8,17.7,0,24.5l77.2,77.2H18.3
		C8.8,183.7,1,191.4,1,201C1,210.6,8.8,218.3,18.3,218.3z"/>
</g>
</svg>
