<svg id="Layer_1" data-name="Layer 1" xmlns="http://www.w3.org/2000/svg" viewBox="0 0 556.7 558.64"><defs><style>.cls-1{fill:#fff;}</style></defs><title>contact-3</title><path class="cls-1" d="M-405.51,337.47q-11.65,3.24-23.13,7.55a111.29,111.29,0,0,1-16-47.73h33.24A204.45,204.45,0,0,0-405.51,337.47Z" transform="translate(611.59 -7.32)"/><path class="cls-1" d="M-411.36,276H-444.6a111.2,111.2,0,0,1,16-47.72q11.47,4.31,23.13,7.55A204.35,204.35,0,0,0-411.36,276Z" transform="translate(611.59 -7.32)"/><path class="cls-1" d="M-390.38,376.05a113.1,113.1,0,0,0,6.69,10.43,112.61,112.61,0,0,1-31.44-23.7q8-2.77,16.09-5A140.43,140.43,0,0,0-390.38,376.05Z" transform="translate(611.59 -7.32)"/><path class="cls-1" d="M-399,215.52q-8.08-2.22-16.09-5a112.42,112.42,0,0,1,31.44-23.7,111.76,111.76,0,0,0-6.69,10.43A139.2,139.2,0,0,0-399,215.52Z" transform="translate(611.59 -7.32)"/><path class="cls-1" d="M-343.88,180.3v43.92A246,246,0,0,1-378,220.34C-369.59,200.09-357.52,185.41-343.88,180.3Z" transform="translate(611.59 -7.32)"/><path class="cls-1" d="M-384.74,240.75a267.71,267.71,0,0,0,40.86,4.81V276H-390A183.84,183.84,0,0,1-384.74,240.75Z" transform="translate(611.59 -7.32)"/><path class="cls-1" d="M-390,297.29h46.15v30.44a269,269,0,0,0-40.86,4.81A183.72,183.72,0,0,1-390,297.29Z" transform="translate(611.59 -7.32)"/><path class="cls-1" d="M-378,353a247.48,247.48,0,0,1,34.13-3.88V393C-357.52,387.88-369.59,373.21-378,353Z" transform="translate(611.59 -7.32)"/><path class="cls-1" d="M-322.59,349.07A247.48,247.48,0,0,1-288.46,353c-8.42,20.26-20.49,34.93-34.13,40Z" transform="translate(611.59 -7.32)"/><path class="cls-1" d="M-288.46,220.35a247.46,247.46,0,0,1-34.13,3.87V180.3C-308.95,185.41-296.88,200.09-288.46,220.35Z" transform="translate(611.59 -7.32)"/><path class="cls-1" d="M-281.73,332.54a267.71,267.71,0,0,0-40.86-4.81V297.29h46.15A183.84,183.84,0,0,1-281.73,332.54Z" transform="translate(611.59 -7.32)"/><path class="cls-1" d="M-276.44,276h-46.15V245.56a267.69,267.69,0,0,0,40.86-4.8A183.62,183.62,0,0,1-276.44,276Z" transform="translate(611.59 -7.32)"/><path class="cls-1" d="M-267.43,357.77q8.08,2.24,16.09,5a112.46,112.46,0,0,1-31.44,23.7,113.1,113.1,0,0,0,6.69-10.43A140,140,0,0,0-267.43,357.77Z" transform="translate(611.59 -7.32)"/><path class="cls-1" d="M-276.09,197.25a111.76,111.76,0,0,0-6.69-10.43,112.46,112.46,0,0,1,31.44,23.7q-8,2.78-16.09,5A139.2,139.2,0,0,0-276.09,197.25Z" transform="translate(611.59 -7.32)"/><path class="cls-1" d="M-255.11,297.29h33.24a111.2,111.2,0,0,1-16,47.72q-11.47-4.31-23.13-7.55A204.24,204.24,0,0,0-255.11,297.29Z" transform="translate(611.59 -7.32)"/><path class="cls-1" d="M-261,235.83q11.65-3.24,23.13-7.55a111.24,111.24,0,0,1,16,47.72h-33.24A204.46,204.46,0,0,0-261,235.83Z" transform="translate(611.59 -7.32)"/><path class="cls-1" d="M-91.49,288.11c-7.31-7.36-15.44-13.95-22.19-21.85-25.71-30.15-23.07-75.38-36.61-110.83-16.16-42.29-28.36-82.75-63.32-114.27-48.79-44-135.75-48.11-178.08,5.69-18.77,23.86-33.15,51.85-57.09,70.51-33.7,26.2-80.8,29.46-115,54.86-35.64,26.49-51.56,74.16-47,118.28,5.77,55.78,53.47,154.57,119.52,157.35a63.28,63.28,0,0,0,18.06-2.14c23.47-5.89,46.75-21.19,70.05-14.67,26.33,7.36,16.41,34.52,23.65,55.33,8.19,23.58,21.85,46.22,41.42,62.06,21.44,17.31,54.38,19.09,81.23,16.67,58.8-5.29,114.77-37.94,155.3-79.82C-48.36,430.3-34.89,345.14-91.49,288.11ZM-333.23,417A130.36,130.36,0,0,1-463.6,286.65,130.37,130.37,0,0,1-333.23,156.28,130.37,130.37,0,0,1-202.87,286.65,130.36,130.36,0,0,1-333.23,417Z" transform="translate(611.59 -7.32)"/></svg>