<?xml version="1.0" encoding="utf-8"?>
<!-- Generator: Adobe Illustrator 22.1.0, SVG Export Plug-In . SVG Version: 6.00 Build 0)  -->
<svg version="1.1" id="Layer_1" xmlns="http://www.w3.org/2000/svg" xmlns:xlink="http://www.w3.org/1999/xlink" x="0px" y="0px"
	 viewBox="0 0 500 500" style="enable-background:new 0 0 500 500;" xml:space="preserve">
<style type="text/css">
	.st0{fill:#FFFFFF;}
</style>
<title>contact-3</title>
<path class="st0" d="M199.6,150.2c-2.4,3.3-4.7,6.8-6.7,10.4c-3.3,5.9-6.2,12-8.7,18.3c-5.4-1.5-10.8-3.2-16.1-5
	C177.1,164.2,187.8,156.2,199.6,150.2z"/>
<path class="st0" d="M250,0C111.9,0,0,111.9,0,250s111.9,250,250,250s250-111.9,250-250S388.1,0,250,0z M250,380.4
	c-72,0-130.4-58.3-130.4-130.3c0-72,58.4-130.4,130.4-130.4c72,0,130.4,58.4,130.4,130.4C380.4,322,322,380.4,250,380.4z
	 M205.2,183.7c11.3,2.1,22.7,3.4,34.1,3.9v-43.9C225.7,148.8,213.6,163.5,205.2,183.7z"/>
<path class="st0" d="M331.9,173.9c-5.3,1.8-10.7,3.5-16.1,5c-2.4-6.3-5.3-12.4-8.7-18.3c-2-3.6-4.3-7.1-6.7-10.4
	C312.2,156.2,322.9,164.2,331.9,173.9z"/>
<path class="st0" d="M361.4,239.4h-33.2c-0.6-13.5-2.6-27-5.9-40.2c7.8-2.2,15.5-4.7,23.1-7.5C354.3,206.1,359.7,222.4,361.4,239.4z
	"/>
<path class="st0" d="M361.4,260.6c-1.6,16.9-7.1,33.3-16,47.7c-7.6-2.9-15.4-5.4-23.1-7.5c3.3-13.2,5.3-26.6,5.9-40.2H361.4z"/>
<path class="st0" d="M331.9,326.1c-9,9.7-19.7,17.7-31.4,23.7c2.4-3.4,4.7-6.8,6.7-10.4c3.3-5.9,6.2-12,8.7-18.3
	C321.2,322.6,326.6,324.3,331.9,326.1z"/>
<path class="st0" d="M294.8,316.4c-8.4,20.3-20.5,34.9-34.1,40v-43.9C272.1,313,283.5,314.3,294.8,316.4z"/>
<path class="st0" d="M306.8,260.6c-0.6,11.9-2.4,23.7-5.3,35.3c-13.5-2.6-27.1-4.3-40.9-4.8v-30.4H306.8z"/>
<path class="st0" d="M306.8,239.4h-46.2v-30.4c13.7-0.5,27.4-2.1,40.9-4.8C304.4,215.7,306.2,227.5,306.8,239.4z"/>
<path class="st0" d="M294.8,183.7c-11.3,2.1-22.7,3.4-34.1,3.9v-43.9C274.3,148.8,286.4,163.5,294.8,183.7z"/>
<path class="st0" d="M239.4,208.9v30.4h-46.1c0.6-11.9,2.4-23.7,5.3-35.3C212,206.8,225.6,208.4,239.4,208.9z"/>
<path class="st0" d="M239.4,260.6v30.4c-13.7,0.6-27.4,2.2-40.9,4.8c-2.9-11.5-4.7-23.4-5.3-35.3H239.4z"/>
<path class="st0" d="M239.4,312.5v43.9c-13.6-5.1-25.7-19.8-34.1-40C216.5,314.3,227.9,313,239.4,312.5z"/>
<path class="st0" d="M199.6,349.8c-11.8-6-22.4-14-31.4-23.7c5.3-1.9,10.7-3.5,16.1-5c2.4,6.3,5.3,12.4,8.7,18.3
	C194.9,343,197.1,346.5,199.6,349.8z"/>
<path class="st0" d="M177.7,300.8c-7.8,2.2-15.5,4.7-23.1,7.5c-8.9-14.5-14.4-30.8-16-47.7h33.2
	C172.5,274.2,174.4,287.7,177.7,300.8z"/>
<path class="st0" d="M177.8,199.2c-3.3,13.2-5.3,26.6-5.9,40.2h-33.2c1.6-16.9,7.1-33.3,16-47.7C162.3,194.5,170,197,177.8,199.2z"
	/>
</svg>
