<?xml version="1.0" encoding="utf-8"?>
<!-- Generator: Adobe Illustrator 22.1.0, SVG Export Plug-In . SVG Version: 6.00 Build 0)  -->
<svg version="1.1" id="Layer_1" xmlns="http://www.w3.org/2000/svg" xmlns:xlink="http://www.w3.org/1999/xlink" x="0px" y="0px"
	 viewBox="0 0 500 500" style="enable-background:new 0 0 500 500;" xml:space="preserve">
<style type="text/css">
	.st0{fill:#FFFFFF;}
</style>
<title>contact-1</title>
<path class="st0" d="M250,0C111.9,0,0,111.9,0,250s111.9,250,250,250s250-111.9,250-250S388.1,0,250,0z M378.5,338.6
	c-0.9,4.3-2.2,8.6-3.9,12.7c-2.6,6.2-10.1,12.7-22.6,19.6c-11.6,6.3-23.1,9.5-34.4,9.4c-3.3,0-6.5-0.2-9.7-0.6
	c-3.6-0.5-7.2-1.3-10.6-2.3c-3.9-1.1-6.9-2-8.8-2.7c-1.9-0.7-5.3-1.9-10.3-3.8c-4.9-1.9-8-3-9.1-3.3c-11.3-4-22.2-9.1-32.4-15.4
	c-15.8-9.7-32.1-23-49-39.9s-30.2-33.2-39.9-49c-6.3-10.2-11.4-21.1-15.4-32.4c-0.4-1.1-1.5-4.1-3.3-9.1s-3.1-8.4-3.8-10.3
	c-0.7-1.9-1.6-4.9-2.7-8.8c-1-3.5-1.8-7-2.3-10.6c-0.4-3.2-0.7-6.5-0.7-9.7c0-11.3,3.2-22.8,9.4-34.4c6.9-12.5,13.5-20,19.6-22.6
	c4.1-1.7,8.3-3,12.7-3.9c4.3-1.1,8.6-1.7,13-1.8c1.3-0.1,2.6,0.1,3.9,0.6c2.2,0.7,5.5,5.4,9.8,14.1c1.4,2.3,3.2,5.7,5.5,10
	c2.3,4.3,4.5,8.2,6.5,11.8c2,3.5,3.9,6.8,5.7,9.9c0.4,0.5,1.5,2,3.2,4.6c1.5,2.1,2.8,4.3,4,6.6c0.8,1.6,1.3,3.4,1.3,5.3
	c0,2.5-1.8,5.5-5.3,9.3c-3.5,3.7-7.4,7.1-11.5,10.2c-4,3-7.9,6.3-11.5,9.8c-3.5,3.5-5.3,6.3-5.3,8.5c0.1,1.4,0.4,2.8,0.9,4.2
	c0.5,1.3,1,2.6,1.6,3.8c0.4,0.9,1.3,2.3,2.6,4.4c1.3,2.1,2,3.3,2.1,3.5c8.6,15.9,19.5,30.6,32.2,43.5c12.9,12.7,27.6,23.5,43.5,32.2
	c0.2,0.1,1.4,0.8,3.5,2.1c2.1,1.3,3.6,2.2,4.4,2.6c0.9,0.4,2.1,1,3.8,1.6c1.3,0.5,2.7,0.9,4.2,0.9c2.2,0,5.1-1.8,8.5-5.3
	c3.5-3.6,6.8-7.4,9.8-11.5c3.1-4.1,6.5-7.9,10.2-11.5c3.7-3.5,6.8-5.3,9.3-5.3c1.8,0,3.6,0.5,5.3,1.3c2.3,1.2,4.5,2.5,6.6,4
	c2.6,1.8,4.1,2.9,4.6,3.2c3.1,1.8,6.4,3.8,9.9,5.7c3.5,2,7.4,4.1,11.8,6.5c4.3,2.3,7.7,4.2,10,5.5c8.7,4.3,13.4,7.6,14.1,9.8
	c0.4,1.3,0.6,2.6,0.5,3.9C380.1,329.9,379.6,334.3,378.5,338.6z"/>
</svg>
