<?xml version="1.0" encoding="utf-8"?>
<!-- Generator: Adobe Illustrator 22.1.0, SVG Export Plug-In . SVG Version: 6.00 Build 0)  -->
<svg version="1.1" id="Layer_1" xmlns="http://www.w3.org/2000/svg" xmlns:xlink="http://www.w3.org/1999/xlink" x="0px" y="0px"
	 viewBox="0 0 500 500" style="enable-background:new 0 0 500 500;" xml:space="preserve">
<style type="text/css">
	.st0{fill:#FFFFFF;}
</style>
<title>contact-2</title>
<path class="st0" d="M250,0C111.9,0,0,111.9,0,250s111.9,250,250,250s250-111.9,250-250S388.1,0,250,0z M119.7,213.6
	c4.3,4.8,9.3,9.1,14.7,12.6c20.6,14,37.4,25.5,50.4,34.6L119.7,326V213.6z M357.1,352.4H142.9c-5.6,0.1-11.1-2-15.3-5.8l73.9-73.9
	c1.8,1.3,3.6,2.6,5.1,3.7c5.5,4.1,10,7.2,13.5,9.5c4.4,2.8,9,5.1,13.8,7c5,2.2,10.5,3.4,16,3.6h0.3c5.5-0.1,11-1.3,16-3.6
	c4.8-1.9,9.4-4.3,13.7-7c3.5-2.3,7.9-5.5,13.5-9.5c1.6-1.2,3.3-2.4,5.1-3.7l73.9,73.8C368.1,350.4,362.7,352.5,357.1,352.4z
	 M315.2,260.9c13.9-9.7,30.7-21.2,50.5-34.6c5.3-3.6,10.2-7.9,14.5-12.6l0,112.4L315.2,260.9z M373.2,192.8
	c-4.8,7-10.8,13.1-17.8,17.9l-53.4,37L287.4,258l-2.2,1.5c-1,0.8-2.4,1.7-4,2.9c-3.2,2.3-5.8,4.1-7.9,5.5c-2.1,1.4-4.6,3-7.6,4.7
	c-2.6,1.6-5.4,2.9-8.4,3.9c-2.3,0.8-4.8,1.3-7.3,1.3h-0.3c-2.5,0-4.9-0.5-7.3-1.3c-2.9-1-5.7-2.3-8.4-3.9c-3-1.7-5.5-3.3-7.6-4.7
	c-2.1-1.4-4.7-3.3-7.9-5.5l-4-2.9l-2.2-1.5c-4.1-2.9-9-6.3-14.7-10.3c-6.7-4.7-14.5-10.1-23.4-16.3C157.9,220,148,213,144.7,210.7
	c-6.6-4.6-12.3-10.3-17-16.8c-5.3-7.1-8-13.8-8-19.9c0-7.6,2-13.9,6-18.9c4-5,9.7-7.6,17.2-7.6h214.1c6.2-0.1,12.1,2.4,16.4,6.8
	c4.5,4.3,7,10.2,6.9,16.4C380.3,178.8,377.8,186.4,373.2,192.8z"/>
</svg>
