<svg xmlns="http://www.w3.org/2000/svg" viewBox="0 0 500 500"><defs><style>.cls-1,.cls-2{fill:#fff;}.cls-1{opacity:0.3;}</style></defs><title>contact-3</title><g id="Layer_2" data-name="Layer 2"><g id="Layer_1-2" data-name="Layer 1"><path class="cls-1" d="M207.59,279.82q-6.84,1.9-13.57,4.43a65.23,65.23,0,0,1-9.37-28h19.51A119.54,119.54,0,0,0,207.59,279.82Z"/><path class="cls-1" d="M204.16,243.75H184.65a65.23,65.23,0,0,1,9.37-28q6.72,2.52,13.57,4.43A119.54,119.54,0,0,0,204.16,243.75Z"/><path class="cls-1" d="M216.46,302.46a69.92,69.92,0,0,0,3.93,6.12A65.79,65.79,0,0,1,202,294.67q4.68-1.62,9.44-2.93A83.34,83.34,0,0,0,216.46,302.46Z"/><path class="cls-1" d="M211.39,208.26q-4.75-1.31-9.44-2.93a65.79,65.79,0,0,1,18.44-13.91,69.92,69.92,0,0,0-3.93,6.12A83.34,83.34,0,0,0,211.39,208.26Z"/><path class="cls-1" d="M243.75,187.6v25.77a144.35,144.35,0,0,1-20-2.28C228.66,199.2,235.75,190.6,243.75,187.6Z"/><path class="cls-1" d="M219.78,223.07a156.71,156.71,0,0,0,24,2.82v17.86H216.67A107.73,107.73,0,0,1,219.78,223.07Z"/><path class="cls-1" d="M216.67,256.25h27.08v17.86a156.71,156.71,0,0,0-24,2.82A107.73,107.73,0,0,1,216.67,256.25Z"/><path class="cls-1" d="M223.72,288.91a144.35,144.35,0,0,1,20-2.28V312.4C235.75,309.4,228.66,300.79,223.72,288.91Z"/><path class="cls-1" d="M256.25,286.63a144.35,144.35,0,0,1,20,2.28c-4.94,11.88-12,20.49-20,23.49Z"/><path class="cls-1" d="M276.28,211.09a144.35,144.35,0,0,1-20,2.28V187.6C264.25,190.6,271.34,199.21,276.28,211.09Z"/><path class="cls-1" d="M280.22,276.93a156.71,156.71,0,0,0-24-2.82V256.25h27.08A107.73,107.73,0,0,1,280.22,276.93Z"/><path class="cls-1" d="M283.33,243.75H256.25V225.89a156.71,156.71,0,0,0,24-2.82A107.73,107.73,0,0,1,283.33,243.75Z"/><path class="cls-1" d="M288.61,291.74q4.75,1.31,9.45,2.93a66,66,0,0,1-18.45,13.91,69.92,69.92,0,0,0,3.93-6.12A82,82,0,0,0,288.61,291.74Z"/><path class="cls-1" d="M283.54,197.54a69.92,69.92,0,0,0-3.93-6.12,66,66,0,0,1,18.45,13.91q-4.69,1.62-9.45,2.93A82,82,0,0,0,283.54,197.54Z"/><path class="cls-1" d="M295.84,256.25h19.51a65.23,65.23,0,0,1-9.37,28q-6.72-2.53-13.57-4.43A119.54,119.54,0,0,0,295.84,256.25Z"/><path class="cls-1" d="M292.41,220.18q6.84-1.91,13.57-4.43a65.23,65.23,0,0,1,9.37,28H295.84A119.54,119.54,0,0,0,292.41,220.18Z"/><path class="cls-1" d="M250,0C111.93,0,0,111.93,0,250S111.93,500,250,500,500,388.07,500,250,388.07,0,250,0Zm0,326.5A76.5,76.5,0,1,1,326.5,250,76.5,76.5,0,0,1,250,326.5Z"/><path class="cls-1" d="M207.59,279.82q-6.84,1.9-13.57,4.43a65.23,65.23,0,0,1-9.37-28h19.51A119.54,119.54,0,0,0,207.59,279.82Z"/><path class="cls-1" d="M204.16,243.75H184.65a65.23,65.23,0,0,1,9.37-28q6.72,2.52,13.57,4.43A119.54,119.54,0,0,0,204.16,243.75Z"/><path class="cls-1" d="M216.46,302.46a69.92,69.92,0,0,0,3.93,6.12A65.79,65.79,0,0,1,202,294.67q4.68-1.62,9.44-2.93A83.34,83.34,0,0,0,216.46,302.46Z"/><path class="cls-1" d="M211.39,208.26q-4.75-1.31-9.44-2.93a65.79,65.79,0,0,1,18.44-13.91,69.92,69.92,0,0,0-3.93,6.12A83.34,83.34,0,0,0,211.39,208.26Z"/><path class="cls-1" d="M243.75,187.6v25.77a144.35,144.35,0,0,1-20-2.28C228.66,199.2,235.75,190.6,243.75,187.6Z"/><path class="cls-1" d="M219.78,223.07a156.71,156.71,0,0,0,24,2.82v17.86H216.67A107.73,107.73,0,0,1,219.78,223.07Z"/><path class="cls-1" d="M216.67,256.25h27.08v17.86a156.71,156.71,0,0,0-24,2.82A107.73,107.73,0,0,1,216.67,256.25Z"/><path class="cls-1" d="M223.72,288.91a144.35,144.35,0,0,1,20-2.28V312.4C235.75,309.4,228.66,300.79,223.72,288.91Z"/><path class="cls-1" d="M256.25,286.63a144.35,144.35,0,0,1,20,2.28c-4.94,11.88-12,20.49-20,23.49Z"/><path class="cls-1" d="M276.28,211.09a144.35,144.35,0,0,1-20,2.28V187.6C264.25,190.6,271.34,199.21,276.28,211.09Z"/><path class="cls-1" d="M280.22,276.93a156.71,156.71,0,0,0-24-2.82V256.25h27.08A107.73,107.73,0,0,1,280.22,276.93Z"/><path class="cls-1" d="M283.33,243.75H256.25V225.89a156.71,156.71,0,0,0,24-2.82A107.73,107.73,0,0,1,283.33,243.75Z"/><path class="cls-1" d="M288.61,291.74q4.75,1.31,9.45,2.93a66,66,0,0,1-18.45,13.91,69.92,69.92,0,0,0,3.93-6.12A82,82,0,0,0,288.61,291.74Z"/><path class="cls-1" d="M283.54,197.54a69.92,69.92,0,0,0-3.93-6.12,66,66,0,0,1,18.45,13.91q-4.69,1.62-9.45,2.93A82,82,0,0,0,283.54,197.54Z"/><path class="cls-1" d="M295.84,256.25h19.51a65.23,65.23,0,0,1-9.37,28q-6.72-2.53-13.57-4.43A119.54,119.54,0,0,0,295.84,256.25Z"/><path class="cls-1" d="M292.41,220.18q6.84-1.91,13.57-4.43a65.23,65.23,0,0,1,9.37,28H295.84A119.54,119.54,0,0,0,292.41,220.18Z"/><path class="cls-1" d="M250,50C139.54,50,50,139.54,50,250s89.54,200,200,200,200-89.54,200-200S360.46,50,250,50Zm0,276.5A76.5,76.5,0,1,1,326.5,250,76.5,76.5,0,0,1,250,326.5Z"/><path class="cls-2" d="M207.59,279.82q-6.84,1.9-13.57,4.43a65.23,65.23,0,0,1-9.37-28h19.51A119.54,119.54,0,0,0,207.59,279.82Z"/><path class="cls-2" d="M204.16,243.75H184.65a65.23,65.23,0,0,1,9.37-28q6.72,2.52,13.57,4.43A119.54,119.54,0,0,0,204.16,243.75Z"/><path class="cls-2" d="M216.46,302.46a69.92,69.92,0,0,0,3.93,6.12A65.79,65.79,0,0,1,202,294.67q4.68-1.62,9.44-2.93A83.34,83.34,0,0,0,216.46,302.46Z"/><path class="cls-2" d="M211.39,208.26q-4.75-1.31-9.44-2.93a65.79,65.79,0,0,1,18.44-13.91,69.92,69.92,0,0,0-3.93,6.12A83.34,83.34,0,0,0,211.39,208.26Z"/><path class="cls-2" d="M243.75,187.6v25.77a144.35,144.35,0,0,1-20-2.28C228.66,199.2,235.75,190.6,243.75,187.6Z"/><path class="cls-2" d="M219.78,223.07a156.71,156.71,0,0,0,24,2.82v17.86H216.67A107.73,107.73,0,0,1,219.78,223.07Z"/><path class="cls-2" d="M216.67,256.25h27.08v17.86a156.71,156.71,0,0,0-24,2.82A107.73,107.73,0,0,1,216.67,256.25Z"/><path class="cls-2" d="M223.72,288.91a144.35,144.35,0,0,1,20-2.28V312.4C235.75,309.4,228.66,300.79,223.72,288.91Z"/><path class="cls-2" d="M256.25,286.63a144.35,144.35,0,0,1,20,2.28c-4.94,11.88-12,20.49-20,23.49Z"/><path class="cls-2" d="M276.28,211.09a144.35,144.35,0,0,1-20,2.28V187.6C264.25,190.6,271.34,199.21,276.28,211.09Z"/><path class="cls-2" d="M280.22,276.93a156.71,156.71,0,0,0-24-2.82V256.25h27.08A107.73,107.73,0,0,1,280.22,276.93Z"/><path class="cls-2" d="M283.33,243.75H256.25V225.89a156.71,156.71,0,0,0,24-2.82A107.73,107.73,0,0,1,283.33,243.75Z"/><path class="cls-2" d="M288.61,291.74q4.75,1.31,9.45,2.93a66,66,0,0,1-18.45,13.91,69.92,69.92,0,0,0,3.93-6.12A82,82,0,0,0,288.61,291.74Z"/><path class="cls-2" d="M283.54,197.54a69.92,69.92,0,0,0-3.93-6.12,66,66,0,0,1,18.45,13.91q-4.69,1.62-9.45,2.93A82,82,0,0,0,283.54,197.54Z"/><path class="cls-2" d="M295.84,256.25h19.51a65.23,65.23,0,0,1-9.37,28q-6.72-2.53-13.57-4.43A119.54,119.54,0,0,0,295.84,256.25Z"/><path class="cls-2" d="M292.41,220.18q6.84-1.91,13.57-4.43a65.23,65.23,0,0,1,9.37,28H295.84A119.54,119.54,0,0,0,292.41,220.18Z"/><path class="cls-2" d="M250,100A150,150,0,1,0,400,250,150,150,0,0,0,250,100Zm0,226.5A76.5,76.5,0,1,1,326.5,250,76.5,76.5,0,0,1,250,326.5Z"/></g></g></svg>