<svg id="Layer_1" data-name="Layer 1" xmlns="http://www.w3.org/2000/svg" viewBox="0 0 556.7 558.64"><defs><style>.cls-1{fill:#fff;}</style></defs><title>contact-1</title><path class="cls-1" d="M-403.45,181.47c-7.31-7.37-15.44-13.95-22.18-21.85-25.72-30.15-23.08-75.38-36.62-110.83C-478.4,6.5-490.6-34-525.56-65.48c-48.79-44-135.75-48.11-178.08,5.69-18.78,23.86-33.15,51.85-57.1,70.51-33.7,26.2-80.8,29.46-115,54.86-35.64,26.49-51.56,74.16-47,118.28,5.77,55.78,53.47,154.57,119.51,157.35a63.23,63.23,0,0,0,18.06-2.14c23.47-5.89,46.76-21.19,70.06-14.67,26.33,7.36,16.41,34.52,23.64,55.33,8.2,23.58,21.85,46.22,41.42,62.06,21.45,17.3,54.38,19.09,81.24,16.67,58.8-5.29,114.76-37.94,155.29-79.82C-360.32,323.66-346.84,238.5-403.45,181.47Zm-113.3,87.1a73.75,73.75,0,0,1-3.89,12.67q-3.89,9.27-22.57,19.62-17.4,9.45-34.43,9.44a73.21,73.21,0,0,1-9.71-.64A81.87,81.87,0,0,1-598,307.34c-3.94-1.11-6.88-2-8.79-2.69s-5.33-1.94-10.27-3.79-8-3-9.07-3.33a167.23,167.23,0,0,1-32.38-15.37q-23.7-14.61-49-39.88t-39.88-49a167.8,167.8,0,0,1-15.36-32.38q-.56-1.66-3.33-9.07t-3.79-10.27c-.68-1.91-1.58-4.85-2.68-8.79a78.36,78.36,0,0,1-2.32-10.65,71.65,71.65,0,0,1-.65-9.71q0-17,9.44-34.43,10.37-18.69,19.62-22.57a73.61,73.61,0,0,1,12.68-3.89,61.21,61.21,0,0,1,13-1.85,10.33,10.33,0,0,1,3.88.56c2.22.73,5.49,5.43,9.81,14.06,1.36,2.34,3.21,5.68,5.55,10s4.5,8.24,6.48,11.76,3.89,6.81,5.74,9.9q.56.73,3.24,4.62a52.22,52.22,0,0,1,4,6.58,12.06,12.06,0,0,1,1.29,5.27q0,3.7-5.27,9.25a89.82,89.82,0,0,1-11.48,10.18,109.88,109.88,0,0,0-11.47,9.81q-5.28,5.17-5.28,8.51a12.41,12.41,0,0,0,.93,4.16,38.57,38.57,0,0,0,1.57,3.8c.43.86,1.3,2.34,2.59,4.44s2,3.27,2.13,3.52a194.42,194.42,0,0,0,32.2,43.49,194.18,194.18,0,0,0,43.5,32.2q.36.19,3.51,2.13c2.1,1.3,3.58,2.16,4.44,2.6s2.14,1,3.8,1.57a12.61,12.61,0,0,0,4.16.92q3.33,0,8.52-5.27a111.15,111.15,0,0,0,9.8-11.48,91.2,91.2,0,0,1,10.18-11.47q5.55-5.28,9.25-5.28a12.15,12.15,0,0,1,5.28,1.3,51,51,0,0,1,6.57,4q3.88,2.69,4.63,3.24,4.62,2.77,9.9,5.73t11.75,6.48c4.32,2.35,7.65,4.19,10,5.55q13,6.48,14.07,9.81a10.48,10.48,0,0,1,.55,3.9A60.74,60.74,0,0,1-516.75,268.57Z" transform="translate(923.54 99.32)"/></svg>