<svg xmlns="http://www.w3.org/2000/svg" viewBox="0 0 500 500"><defs><style>.cls-1,.cls-2{fill:#fff;}.cls-1{opacity:0.3;}</style></defs><title>contact-2</title><g id="Layer_2" data-name="Layer 2"><g id="Layer_1-2" data-name="Layer 1"><path class="cls-1" d="M250,0C111.93,0,0,111.93,0,250S111.93,500,250,500,500,388.07,500,250,388.07,0,250,0ZM174.69,229a44.44,44.44,0,0,0,8.49,7.31q17.85,12.13,29.12,20l-37.61,37.61ZM222,263.16c1.07.77,2.06,1.48,2.95,2.14q4.8,3.52,7.78,5.5a47.73,47.73,0,0,0,7.94,4,24.3,24.3,0,0,0,9.25,2.06h.16a24.3,24.3,0,0,0,9.25-2.06,48.55,48.55,0,0,0,7.94-4q3-2,7.78-5.5l2.95-2.13,42.68,42.68a12.88,12.88,0,0,1-8.82,3.32H188.14a12.88,12.88,0,0,1-8.82-3.32Zm65.71-6.84q12-8.4,29.2-20a46.63,46.63,0,0,0,8.4-7.31v64.93ZM321.2,217a40,40,0,0,1-10.26,10.33l-30.83,21.41-8.5,5.91q-.42.28-1.26.9L268,257.19c-1.82,1.31-3.33,2.38-4.54,3.19s-2.66,1.72-4.37,2.73a25.21,25.21,0,0,1-4.83,2.27,13.22,13.22,0,0,1-4.2.76h-.17a13.17,13.17,0,0,1-4.2-.76,25,25,0,0,1-4.84-2.27c-1.71-1-3.17-1.91-4.37-2.73s-2.72-1.88-4.54-3.19c-.94-.69-1.71-1.24-2.32-1.67l-1.25-.9c-2.35-1.65-5.19-3.64-8.48-5.93-3.87-2.7-8.37-5.82-13.54-9.41q-14.38-10-17.23-12a41.47,41.47,0,0,1-9.84-9.7q-4.62-6.18-4.62-11.48a16.91,16.91,0,0,1,3.49-10.92q3.48-4.38,10-4.37H311.86a13.56,13.56,0,0,1,13.45,13.44A22.28,22.28,0,0,1,321.2,217Z"/><path class="cls-1" d="M250,50C139.54,50,50,139.54,50,250s89.54,200,200,200,200-89.54,200-200S360.46,50,250,50ZM174.69,229a44.44,44.44,0,0,0,8.49,7.31q17.85,12.13,29.12,20l-37.61,37.61Zm4.63,76.86L222,263.16c1.07.77,2.06,1.48,2.95,2.14q4.8,3.52,7.78,5.5a47.73,47.73,0,0,0,7.94,4,24.3,24.3,0,0,0,9.25,2.06h.16a24.3,24.3,0,0,0,9.25-2.06,48.55,48.55,0,0,0,7.94-4q3-2,7.78-5.5l2.95-2.13,42.68,42.68a12.88,12.88,0,0,1-8.82,3.32H188.14A12.88,12.88,0,0,1,179.32,305.85Zm108.39-49.53q12-8.4,29.2-20a46.63,46.63,0,0,0,8.4-7.31v64.93ZM321.2,217a40,40,0,0,1-10.26,10.33l-30.83,21.41-8.5,5.91q-.42.28-1.26.9L268,257.19c-1.82,1.31-3.33,2.38-4.54,3.19s-2.66,1.72-4.37,2.73a25.21,25.21,0,0,1-4.83,2.27,13.22,13.22,0,0,1-4.2.76h-.17a13.17,13.17,0,0,1-4.2-.76,25,25,0,0,1-4.84-2.27c-1.71-1-3.17-1.91-4.37-2.73s-2.72-1.88-4.54-3.19c-.94-.69-1.71-1.24-2.32-1.67l-1.25-.9c-2.35-1.65-5.19-3.64-8.48-5.93-3.87-2.7-8.37-5.82-13.54-9.41q-14.38-10-17.23-12a41.47,41.47,0,0,1-9.84-9.7q-4.62-6.18-4.62-11.48a16.91,16.91,0,0,1,3.49-10.92q3.48-4.38,10-4.37H311.86a13.56,13.56,0,0,1,13.45,13.44A22.28,22.28,0,0,1,321.2,217Z"/><path class="cls-2" d="M250,100A150,150,0,1,0,400,250,150,150,0,0,0,250,100ZM174.69,229a44.44,44.44,0,0,0,8.49,7.31q17.85,12.13,29.12,20l-37.61,37.61Zm137.17,80.18H188.14a12.88,12.88,0,0,1-8.82-3.32L222,263.16c1.07.77,2.06,1.48,2.95,2.14q4.8,3.52,7.78,5.5a47.73,47.73,0,0,0,7.94,4,24.3,24.3,0,0,0,9.25,2.06h.16a24.3,24.3,0,0,0,9.25-2.06,48.55,48.55,0,0,0,7.94-4q3-2,7.78-5.5l2.95-2.13,42.68,42.68A12.88,12.88,0,0,1,311.86,309.17Zm13.45-15.25-37.6-37.6q12-8.4,29.2-20a46.63,46.63,0,0,0,8.4-7.31Zm-4.11-77a40,40,0,0,1-10.26,10.33l-30.83,21.41-8.5,5.91q-.42.28-1.26.9L268,257.19c-1.82,1.31-3.33,2.38-4.54,3.19s-2.66,1.72-4.37,2.73a25.21,25.21,0,0,1-4.83,2.27,13.22,13.22,0,0,1-4.2.76h-.17a13.17,13.17,0,0,1-4.2-.76,25,25,0,0,1-4.84-2.27c-1.71-1-3.17-1.91-4.37-2.73s-2.72-1.88-4.54-3.19c-.94-.69-1.71-1.24-2.32-1.67l-1.25-.9c-2.35-1.65-5.19-3.64-8.48-5.93-3.87-2.7-8.37-5.82-13.54-9.41q-14.38-10-17.23-12a41.47,41.47,0,0,1-9.84-9.7q-4.62-6.18-4.62-11.48a16.91,16.91,0,0,1,3.49-10.92q3.48-4.38,10-4.37H311.86a13.56,13.56,0,0,1,13.45,13.44A22.28,22.28,0,0,1,321.2,217Z"/></g></g></svg>