<svg id="Layer_1" data-name="Layer 1" xmlns="http://www.w3.org/2000/svg" viewBox="0 0 556.7 558.64"><defs><style>.cls-1{fill:#fff;}</style></defs><title>contact-2</title><path class="cls-1" d="M-193.49,144.46c-7.31-7.36-15.44-14-22.19-21.85-25.71-30.14-23.07-75.38-36.61-110.82C-268.45-30.5-280.65-71-315.61-102.49c-48.79-44-135.75-48.1-178.08,5.69-18.77,23.86-33.15,51.86-57.09,70.52-33.7,26.19-80.8,29.45-115,54.86-35.64,26.48-51.56,74.15-47,118.27,5.77,55.79,53.47,154.57,119.52,157.35a63.62,63.62,0,0,0,18.06-2.13c23.47-5.9,46.75-21.19,70.05-14.67,26.33,7.35,16.41,34.51,23.65,55.33,8.19,23.57,21.85,46.21,41.42,62.06,21.44,17.3,54.38,19.09,81.23,16.66,58.8-5.29,114.77-37.94,155.3-79.82C-150.36,286.66-136.89,201.49-193.49,144.46Zm-372.07-37.82a77.32,77.32,0,0,0,14.69,12.65q30.9,21,50.4,34.61L-565.56,219ZM-328.18,245.4H-542.29a22.27,22.27,0,0,1-15.25-5.76l73.86-73.86c1.85,1.32,3.56,2.56,5.1,3.69q8.29,6.1,13.45,9.53a83,83,0,0,0,13.75,7,41.81,41.81,0,0,0,16,3.56h.29a41.85,41.85,0,0,0,16-3.56,83.23,83.23,0,0,0,13.74-7q5.18-3.42,13.46-9.53c1.62-1.17,3.34-2.41,5.11-3.67l73.85,73.84A22.28,22.28,0,0,1-328.18,245.4Zm23.27-26.4L-370,153.93q20.81-14.52,50.52-34.64a80.53,80.53,0,0,0,14.54-12.65ZM-312,85.84a69.23,69.23,0,0,1-17.75,17.89l-53.35,37L-397.85,151l-2.17,1.55c-1.05.75-2.38,1.7-4,2.89q-4.73,3.42-7.86,5.52t-7.56,4.73a43.91,43.91,0,0,1-8.36,3.93,23.25,23.25,0,0,1-7.28,1.31h-.29a23.19,23.19,0,0,1-7.27-1.31,43.36,43.36,0,0,1-8.36-3.93q-4.44-2.61-7.57-4.73t-7.85-5.52l-4-2.89-2.17-1.55c-4.06-2.86-9-6.3-14.69-10.27-6.69-4.67-14.47-10.07-23.42-16.28q-24.88-17.24-29.82-20.72a72.48,72.48,0,0,1-17-16.8q-8-10.7-8-19.86,0-11.34,6-18.91t17.23-7.56h214.11a22.46,22.46,0,0,1,16.36,6.84,22.31,22.31,0,0,1,6.91,16.43A38.54,38.54,0,0,1-312,85.84Z" transform="translate(713.59 136.32)"/></svg>