<?xml version="1.0" encoding="utf-8"?>
<!-- Generator: Adobe Illustrator 22.1.0, SVG Export Plug-In . SVG Version: 6.00 Build 0)  -->
<svg version="1.1" id="Layer_1" xmlns="http://www.w3.org/2000/svg" xmlns:xlink="http://www.w3.org/1999/xlink" x="0px" y="0px"
	 viewBox="0 0 60.2 60.2" style="enable-background:new 0 0 60.2 60.2;" xml:space="preserve">
<style type="text/css">
	.st0{fill:#888888;}
</style>
<title>next_2</title>
<g id="Layer_2_1_">
	<g id="Capa_1">
		<path class="st0" d="M46.5,26c-0.2-0.2-0.6-0.6-1-0.8l-23-23c-2-2.6-5.5-3-8.1-1.2s-3,5.5-1.2,8.1c0.4,0.4,0.8,0.8,1.2,1.2
			l19.7,19.9L14.2,50c-2.6,2-2.8,5.7-0.8,8.1c2,2.6,5.7,2.8,8.1,0.8c0.2-0.2,0.6-0.6,0.8-0.8l23.2-23c0.4-0.2,0.6-0.4,1-0.8
			C48.6,31.9,48.6,28.2,46.5,26L46.5,26z"/>
	</g>
</g>
</svg>
