<?xml version="1.0" encoding="utf-8"?>
<!-- Generator: Adobe Illustrator 22.1.0, SVG Export Plug-In . SVG Version: 6.00 Build 0)  -->
<svg version="1.1" id="Layer_1" xmlns="http://www.w3.org/2000/svg" xmlns:xlink="http://www.w3.org/1999/xlink" x="0px" y="0px"
	 viewBox="0 0 60.2 60.2" style="enable-background:new 0 0 60.2 60.2;" xml:space="preserve">
<style type="text/css">
	.st0{fill:#888888;}
</style>
<title>prev_1</title>
<path class="st0" d="M11.9,30c0,1.6,0.6,3.2,1.8,4.2c0.2,0.4,0.6,0.6,1,0.8l23.7,23.5c2.2,2.2,6,2.2,8.2,0c2.2-2.2,2.2-6,0-8.2
	L26.2,30L46.4,9.8c2.2-2.4,2-6-0.4-8.2c-2.2-2-5.6-2-8,0L14.7,25c-0.4,0.2-0.6,0.4-1,0.8C12.5,26.8,11.9,28.4,11.9,30z"/>
</svg>
