<svg xmlns="http://www.w3.org/2000/svg" viewBox="0 0 649.5 507.5"><defs><style>.cls-1{fill:#ff6e60;}.cls-2{fill:#01719a;}</style></defs><title>Asset 5</title><g id="Layer_2" data-name="Layer 2"><g id="Layer_1-2" data-name="Layer 1"><path class="cls-1" d="M437.5,290.6v26.09a31.79,31.79,0,0,0,4.5.31h20.5V292H442A7.92,7.92,0,0,1,437.5,290.6ZM385.91,0H76.59A76.68,76.68,0,0,0,0,76.59V385.91A76.68,76.68,0,0,0,76.59,462.5H385.91c1,0,2,0,3-.07a31.91,31.91,0,0,1-2.37-12.11V437.49H244V243H386.5V229.68A31.92,31.92,0,0,1,388.7,218H244V25H385.91A51.64,51.64,0,0,1,437.5,76.59V197.5h25V76.59A76.68,76.68,0,0,0,385.91,0ZM219,437.5H76.59A51.64,51.64,0,0,1,25,385.91V243H219ZM219,218H25V76.59A51.64,51.64,0,0,1,76.59,25H219ZM435,401.9a51.81,51.81,0,0,1-21.52,27.62A17.72,17.72,0,1,0,435,401.9Zm2.54-56.28v27.52a17.71,17.71,0,0,0,0-27.52ZM442,221a33,33,0,0,0-31.11,22H437.5v4.4A7.92,7.92,0,0,1,442,246h20.5V221Z"/><path class="cls-1" d="M372.57,115.57H308.21a10.43,10.43,0,0,0,0,20.86h64.36a10.43,10.43,0,0,0,0-20.86Z"/><path class="cls-1" d="M91.94,134.47h21.83v22.17a10.47,10.47,0,0,0,20.93,0V134.47h21.83a10.47,10.47,0,1,0,0-20.93H134.7V91.36a10.47,10.47,0,0,0-20.93,0v22.18H91.94a10.47,10.47,0,0,0,0,20.93Z"/><path class="cls-1" d="M84.73,379.66a13.24,13.24,0,0,0,18.75-.1L123,359.85l19.51,19.71a13.26,13.26,0,1,0,18.85-18.65L141.64,341l19.71-19.92a13.26,13.26,0,1,0-18.85-18.65L123,322.15l-19.51-19.71A13.26,13.26,0,1,0,84.63,321.1l19.7,19.9-19.7,19.9A13.27,13.27,0,0,0,84.73,379.66Z"/><path class="cls-1" d="M371.34,330.61H307a10.43,10.43,0,1,0,0,20.86h64.36a10.43,10.43,0,0,0,0-20.86Z"/><path class="cls-1" d="M348.87,309.38a9.76,9.76,0,1,0-9.76,9.86A9.81,9.81,0,0,0,348.87,309.38Z"/><path class="cls-1" d="M348.87,372.61a9.76,9.76,0,1,0-9.76,9.86A9.81,9.81,0,0,0,348.87,372.61Z"/><path class="cls-2" d="M444.06,359.29a17.73,17.73,0,1,1-6.56-13.67A17.68,17.68,0,0,1,444.06,359.29Z"/><path class="cls-2" d="M485.24,341.66a17.72,17.72,0,1,1-17.62,17.82,17.72,17.72,0,0,1,17.62-17.82Z"/><path class="cls-2" d="M444.06,417.29A17.73,17.73,0,1,1,435,401.9,17.72,17.72,0,0,1,444.06,417.29Z"/><path class="cls-2" d="M485.24,399.66a17.72,17.72,0,1,1-17.62,17.82,17.72,17.72,0,0,1,17.62-17.82Z"/><path class="cls-2" d="M418.68,172.5a57.28,57.28,0,0,0-56,45.5h26a32.2,32.2,0,0,1,30-20.5H437.5v-25Zm173.64,0H418.68a57.15,57.15,0,0,0-57.18,57.18V450.32a57.17,57.17,0,0,0,57.18,57.18H592.32a57.24,57.24,0,0,0,57.18-57.18V229.68A57.24,57.24,0,0,0,592.32,172.5ZM624.5,450.32a32.21,32.21,0,0,1-32.18,32.18H418.68a32.19,32.19,0,0,1-32.18-32.18V229.68a32.2,32.2,0,0,1,32.18-32.18H592.32a32.21,32.21,0,0,1,32.18,32.18ZM418.68,172.5a57.28,57.28,0,0,0-56,45.5h26a32.2,32.2,0,0,1,30-20.5H437.5v-25Z"/><path class="cls-2" d="M568,221H442a33,33,0,0,0-31.11,22A32.59,32.59,0,0,0,409,254v30a33,33,0,0,0,28.5,32.69,31.79,31.79,0,0,0,4.5.31H568a33,33,0,0,0,33-33V254A33,33,0,0,0,568,221Zm8,63a8,8,0,0,1-8,8H442a8,8,0,0,1-8-8V254a8,8,0,0,1,8-8H568a8,8,0,0,1,8,8Z"/><path class="cls-2" d="M571.5,342h-14A29.53,29.53,0,0,0,528,371.5v56A29.53,29.53,0,0,0,557.5,457h14A29.53,29.53,0,0,0,601,427.5v-56A29.53,29.53,0,0,0,571.5,342Zm4.5,85.5a4.51,4.51,0,0,1-4.5,4.5h-14a4.51,4.51,0,0,1-4.5-4.5v-56a4.51,4.51,0,0,1,4.5-4.5h14a4.51,4.51,0,0,1,4.5,4.5Z"/></g></g></svg>