<svg xmlns="http://www.w3.org/2000/svg" viewBox="0 0 590 500.46"><defs><style>.cls-1{fill:#ff6e60;}.cls-2{fill:#01719a;}</style></defs><title>Asset 3</title><g id="Layer_2" data-name="Layer 2"><g id="Layer_1-2" data-name="Layer 1"><path class="cls-1" d="M205.42,0C130.89,0,70.26,60.64,70.26,135.16v55.33a29.84,29.84,0,0,0,17.56,27.14v8a29.81,29.81,0,0,0,29.78,29.78h5.54A98.47,98.47,0,0,0,137.46,277c.73.85,1.49,1.69,2.31,2.55L126.5,306.09,86.1,319.56C36.21,336.2,0,388.65,0,444.3a12.21,12.21,0,0,0,12.2,12.2H295.58a91.36,91.36,0,0,0,6.75-10.6l.11-.22c1.63-3.16,3.41-7.07,5.32-11.62a10.91,10.91,0,0,0,.56-1.39c.08-.19.16-.38.23-.58H227.39l7.48-12a358.52,358.52,0,0,0,20.85-31.23c1.19-2,2.35-4,3.5-6l.14-.26q3.52-6.22,6.81-12.61l-1.39-2-.38-.57-.3-.46a81.11,81.11,0,0,1-10.16-19.84q-3.54,7.68-7.44,15.17l-12.64-12.64-17.17-17.18,12.82-13.56,24.68-26.1a90.08,90.08,0,0,1,15.69-27.21l.09-.11a126.26,126.26,0,0,1,22.4-21.37,94.79,94.79,0,0,0,3.95-15.53l1.4-8.35H310.8a29.77,29.77,0,0,0,29.78-29.76V135.16C340.58,60.64,279.94,0,205.42,0ZM281,131.12l-7.14-1a137.69,137.69,0,0,1-77.41-38.7,12.14,12.14,0,0,0-8.63-3.58,83.47,83.47,0,0,0-55.64,21.66,67.59,67.59,0,0,1,65.35-49.94h15.71A68,68,0,0,1,281,127.61C281,128.86,281,130,281,131.12Zm35.14,59.37a5.38,5.38,0,0,1-5.37,5.36h-9.52c1.91-15.72,3.22-32.37,3.79-48.49h11.1ZM205.42,24.41c56.3,0,104,43,110.07,98.54H305.33a92.39,92.39,0,0,0-92.06-87.82H197.56a92.39,92.39,0,0,0-92,87.82H95.33C101.41,67.4,149.06,24.41,205.42,24.41ZM94.66,190.49V147.36h11.11c.56,16,1.87,32.72,3.79,48.49H100A5.38,5.38,0,0,1,94.66,190.49Zm22.94,47.33a12.21,12.21,0,0,1-12.21-12.21v-12.2h13.52l2.34,14.07c.33,2,.75,4,1.25,6.12l1,4.22ZM25.11,432.09c4.69-40.88,32.51-77.31,68.71-89.37l33.82-11.27A356.48,356.48,0,0,0,151.72,383l.06.11a355.87,355.87,0,0,0,24.19,37l7.47,12ZM144.66,316.7l10.47-20.93,37.06,37.06-27.86,29.46A335.68,335.68,0,0,1,144.66,316.7Zm88.64,62.09c-5.67,9.36-11.81,18.47-18.31,27.13-.32.41-.32.41-2.91,4.59l-6.66,10.7-9-14.46c-.18-.29-.38-.58-.59-.87-6.48-8.64-12.62-17.73-18.26-27l27.12-28.68Zm-29-58.73-17.14-17.15a88.08,88.08,0,0,0,32.66.74Zm36.92-47a61.18,61.18,0,0,1-19.32,8.73,68,68,0,0,1-32.88,0c-14.64-3.66-28-13.17-37.54-26.43h9.26A29.87,29.87,0,0,0,187.85,273h17.57a29.77,29.77,0,0,0,0-59.54H187.85A29.83,29.83,0,0,0,160.68,231H140c-3.9-15.38-8.48-53.36-9.68-80.75l11.09-14.78a58,58,0,0,1,41.72-23,162.55,162.55,0,0,0,87.31,41.84l9.83,1.41c-.9,17.17-2.61,34.47-4.95,50.17l0,.21c-.55,3.7-1,6.51-1.79,11.13-.34,2-.74,4.44-1.23,7.4a71.26,71.26,0,0,1-3.64,13.47A73.91,73.91,0,0,1,241.18,273.09Zm-65.53-29.91a12.21,12.21,0,0,1,12.2-12.2h17.57a12.21,12.21,0,0,1,0,24.41H187.85A12.22,12.22,0,0,1,175.65,243.18ZM410.24,432h-.37c-8.09,0-16.26-.44-24.31-1.26.06.46.12.92.17,1.38h-9.05l-.95.84a196.62,196.62,0,0,1-32.94,23.57h35.65q3.63-2.83,7.14-5.81c7.52.7,15.12,1.08,22.64,1.14a12.14,12.14,0,0,0,2.61-7.53C410.83,440.17,410.63,436.05,410.24,432Z"/><path class="cls-2" d="M308.55,406.85c-4.42-2.5-8.67-5.19-12.65-8a134.18,134.18,0,0,1-15.32-12.52L278,383.12h-.71A116.07,116.07,0,0,1,266.17,370q-3.29,6.39-6.81,12.61l-.14.26c-1.15,2-2.31,4-3.5,6q3.89,4.67,8.17,8.95c.81.83,1.64,1.63,2.47,2.42l2.88,2.74h.05a153.81,153.81,0,0,0,15.2,12.15q3.57,2.5,7.37,4.89-1,2.87-2.13,5.62l-.76,1.82h0q-1.05,2.47-2,4.61h21.61a123,123,0,0,0,4.69-14l2-7.43Zm-54.36-114-24.68,26.1c0,.47,0,.94,0,1.41a101.6,101.6,0,0,0,4.36,29.33L246.5,362.3q3.9-7.49,7.44-15.17a81.7,81.7,0,0,1-4.57-26.86,79.63,79.63,0,0,1,3-22.08Q253.23,295.48,254.19,292.82Zm313-37v-.09L564.91,253c-16.17-19.9-38.32-35.78-65.89-47.22a229.61,229.61,0,0,0-89.28-17A229.37,229.37,0,0,0,339.33,199q-9.52,2.94-18.85,6.73l-1.4.59c-19.67,8.31-36.57,18.94-50.46,31.71a142,142,0,0,0-14,14.86,110.36,110.36,0,0,0-21.26,39.74,99.15,99.15,0,0,0-3.83,26.27c0,.47,0,.94,0,1.41a101.33,101.33,0,0,0,18.16,57.81c.26.41.53.8.79,1.18,2.27,3.28,4.7,6.48,7.27,9.56s5.32,6.1,8.17,8.95c.81.83,1.64,1.63,2.47,2.42l2.88,2.74h.05a153.81,153.81,0,0,0,15.2,12.15q3.57,2.5,7.37,4.89-1,2.87-2.13,5.62l-.76,1.82h0q-1.05,2.47-2,4.61c-.74,1.63-1.45,3.11-2.12,4.41a70.61,70.61,0,0,1-5.37,8.39l-.08.11c-3,4.08-4.51,5.95-5.18,6.72l-4.34,4.78-2.18,2.4c-2.73,3-4.66,5.2-5.75,6.48A26.44,26.44,0,0,0,260,467.6l-1.59,1.92L257,471.63a13.4,13.4,0,0,0-2.52,6.4,12.37,12.37,0,0,0,.05,8,19.45,19.45,0,0,0,6,10l.09.08a17.65,17.65,0,0,0,11.61,4.38h1.57l.55-.06A153.09,153.09,0,0,0,297.41,496a219.17,219.17,0,0,0,81-39.49q3.63-2.83,7.14-5.81c7.52.7,15.12,1.08,22.64,1.14h1.55a234.89,234.89,0,0,0,79-13c3.19-1.13,6.53-2.41,9.93-3.81l.42-.17c27.5-11.43,49.64-27.3,65.82-47.17,16.61-20.42,25-43.09,25-67.4C590,297.13,582.28,275.45,567.14,255.79Zm-17.6,119.32c-14.06,17.27-33.55,31.18-57.93,41.33l-.38.15c-3.12,1.29-6.19,2.47-9,3.48a214.61,214.61,0,0,1-72,11.9h-.37c-8.09,0-16.26-.44-24.31-1.26l-2.16-.22L379,430l-2.34,2.07-.95.84a199.1,199.1,0,0,1-83.23,43.81l-.2.05a135.22,135.22,0,0,1-17,3.47l.26-.31a6,6,0,0,1,.59-.67l.39-.38.35-.42c.38-.45,1.66-2,5.53-6.24L289,465l.09-.09c1.56-1.78,3.7-4.53,6.36-8.19l.17-.23a91.36,91.36,0,0,0,6.75-10.6l.11-.22c1.63-3.16,3.41-7.07,5.32-11.62a10.91,10.91,0,0,0,.56-1.39c.08-.19.16-.38.23-.58a123,123,0,0,0,4.69-14l2-7.43-6.71-3.81c-4.42-2.5-8.67-5.19-12.65-8a134.18,134.18,0,0,1-15.32-12.52L278,383.12h-.71A116.07,116.07,0,0,1,266.17,370l-1.39-2-.38-.57-.3-.46a81.6,81.6,0,0,1-14.73-46.7,79.63,79.63,0,0,1,3-22.08q.81-2.71,1.77-5.37a90.08,90.08,0,0,1,15.69-27.21l.09-.11a126.26,126.26,0,0,1,22.4-21.37,162.9,162.9,0,0,1,34.44-19.49l1.22-.51a210.13,210.13,0,0,1,81.61-15.5h.21a210.13,210.13,0,0,1,81.62,15.5c24,9.94,43.21,23.53,57.22,40.39l.81,1c13.86,17,20.6,34.94,20.63,54.76S563.39,358.09,549.54,375.11ZM252.42,298.19q.81-2.71,1.77-5.37l-24.68,26.1c0,.47,0,.94,0,1.41a101.6,101.6,0,0,0,4.36,29.33L246.5,362.3q3.9-7.49,7.44-15.17a81.7,81.7,0,0,1-4.57-26.86A79.63,79.63,0,0,1,252.42,298.19Zm56.13,108.66c-4.42-2.5-8.67-5.19-12.65-8a134.18,134.18,0,0,1-15.32-12.52L278,383.12h-.71A116.07,116.07,0,0,1,266.17,370q-3.29,6.39-6.81,12.61l-.14.26c-1.15,2-2.31,4-3.5,6q3.89,4.67,8.17,8.95c.81.83,1.64,1.63,2.47,2.42l2.88,2.74h.05a153.81,153.81,0,0,0,15.2,12.15q3.57,2.5,7.37,4.89-1,2.87-2.13,5.62l-.76,1.82h0q-1.05,2.47-2,4.61h21.61a123,123,0,0,0,4.69-14l2-7.43Z"/><rect class="cls-2" x="332.5" y="271" width="159.65" height="24" rx="12" ry="12" transform="translate(824.65 566) rotate(180)"/><rect class="cls-2" x="332.5" y="312" width="159.65" height="24" rx="12" ry="12" transform="translate(824.65 648) rotate(-180)"/><rect class="cls-2" x="412.15" y="354" width="80" height="24" rx="12" ry="12" transform="translate(904.3 732) rotate(180)"/></g></g></svg>