<svg xmlns="http://www.w3.org/2000/svg" viewBox="0 0 591.32 503.91"><defs><style>.cls-1{fill:#ff6e60;}.cls-2{fill:#01719a;}</style></defs><title>Asset 1</title><g id="Layer_2" data-name="Layer 2"><g id="Layer_1-2" data-name="Layer 1"><path class="cls-1" d="M521.92,260.68h25v-24h-25ZM496.29,0H50.63A50.68,50.68,0,0,0,0,50.62V356.68a50.68,50.68,0,0,0,50.63,50.63h145.9V436H153.46a12.5,12.5,0,0,0,0,25h240a12.5,12.5,0,1,0,0-25H350.39V407.31h61.07v-25H50.63A25.66,25.66,0,0,1,25,356.68v-42.8H411.46v-25H25V50.62A25.65,25.65,0,0,1,50.63,25H496.29a25.65,25.65,0,0,1,25.63,25.62V216.5h25V50.62A50.68,50.68,0,0,0,496.29,0ZM221.53,407.31H325.39V436H221.53Z"/><path class="cls-2" d="M411.54,235.06a15.6,15.6,0,0,1,.23-1.82,6.18,6.18,0,0,1,.12-.62c.06-.31.13-.61.21-.91s.14-.53.22-.79q.21-.71.48-1.38c.08-.24.18-.47.28-.71a21.29,21.29,0,0,1,1.51-2.88c.12-.18.23-.36.36-.54q.56-.81,1.17-1.56a17.76,17.76,0,0,1,1.31-1.43,21.17,21.17,0,0,1,2.21-1.91,21.05,21.05,0,0,1,3.38-2,19.28,19.28,0,0,1,2.71-1.06,20.13,20.13,0,0,1,6-.91h90.19v-24H431.73a44.32,44.32,0,0,0-44.27,44.27v52.11h24v-28.2H521.92v-24H411.46c0-.32,0-.63,0-1S411.51,235.28,411.54,235.06ZM547.06,192.5H431.73a44.32,44.32,0,0,0-44.27,44.27V459.65c0,.45,0,.9,0,1.35a44.32,44.32,0,0,0,44.25,42.91H547.06a44.31,44.31,0,0,0,44.26-44.26V236.77A44.31,44.31,0,0,0,547.06,192.5Zm20.26,267.15a20.28,20.28,0,0,1-20.26,20.26H431.73a20.29,20.29,0,0,1-20.27-20.26v-1.78H567.32Zm0-25.78H411.46V260.68H567.32ZM411.46,236.68c0-.32,0-.63,0-1s0-.45.05-.67a15.6,15.6,0,0,1,.23-1.82,6.18,6.18,0,0,1,.12-.62c.06-.31.13-.61.21-.91s.14-.53.22-.79q.21-.71.48-1.38c.08-.24.18-.47.28-.71a21.29,21.29,0,0,1,1.51-2.88c.12-.18.23-.36.36-.54q.56-.81,1.17-1.56a17.76,17.76,0,0,1,1.31-1.43,21.17,21.17,0,0,1,2.21-1.91,21.05,21.05,0,0,1,3.38-2,19.28,19.28,0,0,1,2.71-1.06,20.13,20.13,0,0,1,6-.91H547.06a20.18,20.18,0,0,1,6,.91c.4.12.79.26,1.18.41s1,.41,1.5.64a17.16,17.16,0,0,1,1.79,1,14.53,14.53,0,0,1,1.36.9,19.68,19.68,0,0,1,2.46,2.09,17.76,17.76,0,0,1,1.31,1.43q.62.75,1.17,1.56c.13.18.24.36.36.54a21.29,21.29,0,0,1,1.51,2.88c.1.24.2.47.28.71q.27.68.48,1.38c.08.26.15.53.22.79s.15.6.21.91a6.18,6.18,0,0,1,.12.62,15.6,15.6,0,0,1,.23,1.82c0,.22,0,.45,0,.67s0,.63,0,1Z"/></g></g></svg>