<svg xmlns="http://www.w3.org/2000/svg" viewBox="0 0 592.02 501.43"><defs><style>.cls-1{fill:#ff6e60;}.cls-2{fill:#01719a;}</style></defs><title>Asset 2</title><g id="Layer_2" data-name="Layer 2"><g id="Layer_1-2" data-name="Layer 1"><path class="cls-1" d="M423.22,337.67a10.92,10.92,0,1,0-15.44,15.45l3.2,3.2h30.89ZM449.87,0H74.6A55.15,55.15,0,0,0,19.51,55.09V331.88A27.18,27.18,0,0,0,0,357.92v40.23A58.93,58.93,0,0,0,58.87,457H417a158.14,158.14,0,0,1-21.36-17.56q-3.58-3.58-6.89-7.42H58.87A33.91,33.91,0,0,1,25,398.15V357.92a2.13,2.13,0,0,1,.72-1.6H190.4a4.39,4.39,0,0,1,4,2.7l10.13,24.16H319.92L330.05,359a4.38,4.38,0,0,1,3.67-2.68H355.6c-1.38-8.27-2.35-16.61-2.93-25H334.09a30.5,30.5,0,0,0-3.18.17A29.26,29.26,0,0,0,307,349.37l-3.7,8.83H221.18l-3.7-8.84a29.31,29.31,0,0,0-27.08-18H44.49V55.09A30.14,30.14,0,0,1,74.6,25H449.87A30.14,30.14,0,0,1,480,55.09V229.52A160.28,160.28,0,0,0,496.49,239q4.17,2,8.47,3.84V55.09A55.15,55.15,0,0,0,449.87,0Zm48.57,307.44L480,325.9v5.45h-5.45l-25,25h30.89l16-16L505,331.8V304.31A10.85,10.85,0,0,0,498.44,307.44Zm-75.22,30.23a10.92,10.92,0,1,0-15.44,15.45l3.2,3.2h30.89Z"/><path class="cls-1" d="M399.66,71.85H124.82c-13.69,0-24.82,13.31-24.82,29.67V281.26c0,16.36,11.13,29.66,24.82,29.66h227c-.1-4.77-.13-9.53-.12-14.27V296q0-5.85.08-11.67H124.82a2.88,2.88,0,0,1-2.6-3.09V101.52a2.88,2.88,0,0,1,2.6-3.1H399.66a2.88,2.88,0,0,1,2.6,3.1V248c1.11-.34,2.22-.7,3.32-1.08,4.49-1.5,8.93-3.19,13.27-5.08l.75-.33,1.76-.78c1.05-.47,2.08-1,3.12-1.46V101.52C424.48,85.16,413.35,71.85,399.66,71.85Z"/><path class="cls-2" d="M355.6,356.32c-1.38-8.27-2.35-16.61-2.93-25-.11-1.49-.2-3-.28-4.48-.31-5.3-.51-10.63-.62-15.95-.1-4.77-.13-9.53-.12-14.27V296q0-5.85.08-11.67c.06-4.25.14-8.49.22-12.68l0-1.61c0-4.72.17-9.32.23-13.81h0c-.05,4.49-.23,9.09-.23,13.81l0,1.61c-.07,4.19-.15,8.43-.21,12.68-.05,3.88-.09,7.77-.09,11.67v.63c0,4.74,0,9.5.12,14.27.11,5.32.31,10.65.62,15.95.08,1.49.17,3,.28,4.48.58,8.36,1.56,16.7,2.93,25q.72,4.37,1.59,8.68h0Q356.32,360.68,355.6,356.32Zm70.95-118.1-2.07,1c-1,.51-2.08,1-3.12,1.48,1.05-.47,2.08-1,3.12-1.46l2.11-1,1.13-.59ZM355.6,356.32c-1.38-8.27-2.35-16.61-2.93-25-.11-1.49-.2-3-.28-4.48-.31-5.3-.51-10.63-.62-15.95-.1-4.77-.13-9.53-.12-14.27V296q0-5.85.08-11.67c.06-4.25.14-8.49.22-12.68l0-1.61c0-4.72.17-9.32.23-13.81h0c-.05,4.49-.23,9.09-.23,13.81l0,1.61c-.07,4.19-.15,8.43-.21,12.68-.05,3.88-.09,7.77-.09,11.67v.63c0,4.74,0,9.5.12,14.27.11,5.32.31,10.65.62,15.95.08,1.49.17,3,.28,4.48.58,8.36,1.56,16.7,2.93,25q.72,4.37,1.59,8.68h0Q356.32,360.68,355.6,356.32Zm70.95-118.1-2.07,1c-1,.51-2.08,1-3.12,1.48,1.05-.47,2.08-1,3.12-1.46l2.11-1,1.13-.59Zm32.31-48.72a12.86,12.86,0,0,1,1.52-.18A9.7,9.7,0,0,0,458.86,189.5Zm-2,.58a12,12,0,0,1,2-.58A9.09,9.09,0,0,0,456.86,190.08ZM355.6,356.32c-1.38-8.27-2.35-16.61-2.93-25-.11-1.49-.2-3-.28-4.48-.31-5.3-.51-10.63-.62-15.95-.1-4.77-.13-9.53-.12-14.27V296q0-5.85.08-11.67c.06-4.25.14-8.49.22-12.68l0-1.61c0-4.72.17-9.32.23-13.81h0c-.05,4.49-.23,9.09-.23,13.81l0,1.61c-.07,4.19-.15,8.43-.21,12.68-.05,3.88-.09,7.77-.09,11.67v.63c0,4.74,0,9.5.12,14.27.11,5.32.31,10.65.62,15.95.08,1.49.17,3,.28,4.48.58,8.36,1.56,16.7,2.93,25q.72,4.37,1.59,8.68h0Q356.32,360.68,355.6,356.32Zm70.95-118.1-2.07,1c-1,.51-2.08,1-3.12,1.48,1.05-.47,2.08-1,3.12-1.46l2.11-1,1.13-.59Zm-96.15,7.33c0,7.78-.13,15.56-.31,24.09,0,.67,0,1.35,0,2-.08,4.16-.16,8.39-.21,12.68q-.07,5.76-.08,11.67h0q0-5.91.08-11.67c.05-4.29.13-8.52.21-12.68,0-.68,0-1.36,0-2,.18-8.53.31-16.31.31-24.09a11.09,11.09,0,0,1,2.94-7.44A10.81,10.81,0,0,0,330.4,245.55Zm64.67-18.33,3.27-1v0Z"/><path class="cls-2" d="M591.68,269.64h0c-.17-8.43-.31-16.39-.31-24.09a10.93,10.93,0,0,0-10.93-10.91c-29.06,0-53.84-5.21-75.52-16.1q-4.29-2.14-8.43-4.6A146.11,146.11,0,0,1,480,202.51a150.42,150.42,0,0,1-11.45-10.13,10.73,10.73,0,0,0-2.27-1.69c-.22-.12-.43-.24-.64-.33a8.38,8.38,0,0,0-1.33-.53,12.56,12.56,0,0,0-2-.45h0a12.75,12.75,0,0,0-1.38-.07h-.51a12.86,12.86,0,0,0-1.52.18h0a12,12,0,0,0-2,.58,10.88,10.88,0,0,0-3.56,2.3q-4.21,4.13-8.73,7.9a147.54,147.54,0,0,1-18,12.9c-.7.43-1.4.85-2.11,1.26-1.61.94-3.23,1.84-4.88,2.72a135.42,135.42,0,0,1-17.34,7.68c-1.28.47-2.58.92-3.88,1.35h0v0l-3.27,1a178.52,178.52,0,0,1-53.73,7.42,11,11,0,0,0-3.21.48,11.2,11.2,0,0,0-3.08,1.52,14.71,14.71,0,0,0-1.3,1.09c-.13.12-.25.25-.37.38a11.09,11.09,0,0,0-2.94,7.44c0,7.78-.13,15.56-.31,24.09,0,.67,0,1.35,0,2-.08,4.16-.16,8.39-.21,12.68q-.08,5.76-.08,11.67v.63q0,7.05.17,14.27c.11,5.27.32,10.6.65,15.95.08,1.55.18,3.1.29,4.65q.88,12.47,2.81,24.81c.44,2.89.94,5.79,1.47,8.67a203.88,203.88,0,0,0,8.13,30.27A160.7,160.7,0,0,0,361.62,432q2.53,3.78,5.28,7.42A156.19,156.19,0,0,0,382.54,457a158.47,158.47,0,0,0,14.89,12.71,214.12,214.12,0,0,0,59.92,31.13,11.11,11.11,0,0,0,7.16,0C595.32,455.45,593.18,348.06,591.68,269.64ZM460.89,478.87a224.24,224.24,0,0,1-21.75-9.16,159.47,159.47,0,0,1-43.5-30.27q-3.58-3.58-6.89-7.42a133.27,133.27,0,0,1-22.43-36.75A173.47,173.47,0,0,1,357.15,365q-.87-4.32-1.59-8.68c-1.37-8.27-2.35-16.61-2.93-25-.11-1.49-.2-3-.28-4.48-.31-5.3-.51-10.63-.62-15.95-.1-4.77-.13-9.53-.12-14.27V296c0-3.9,0-7.79.09-11.67.06-4.25.14-8.49.21-12.68l0-1.61c0-4.72.18-9.32.23-13.81h0a198.84,198.84,0,0,0,46.13-7.1c1.31-.37,2.62-.75,3.92-1.16,1.11-.34,2.22-.7,3.32-1.08,4.49-1.5,8.93-3.19,13.27-5.08l.75-.33,1.76-.78c1-.48,2.09-1,3.12-1.48l2.07-1,1.17-.59c.38-.19.77-.39,1.15-.6.77-.41,1.53-.8,2.29-1.23h0q4.56-2.48,8.93-5.25c.58-.35,1.17-.72,1.73-1.11.92-.59,1.83-1.18,2.73-1.79s1.61-1.1,2.41-1.67a166.25,166.25,0,0,0,13.91-10.93c1.75,1.53,3.54,3,5.33,4.45a158.38,158.38,0,0,0,13.76,10A160.28,160.28,0,0,0,496.49,239q4.17,2,8.47,3.84c19.32,8.09,40.67,12.53,64.64,13.55,0,4.49.14,9.06.23,13.81C571.33,348.89,573,438.13,460.89,478.87Z"/><path class="cls-2" d="M513.88,322.88,505,331.8l-8.53,8.53-16,16-27,27a10.9,10.9,0,0,1-15.41,0l0,0-27-27-3.2-3.2a10.92,10.92,0,1,1,15.44-15.45l18.65,18.65,3.84,3.84,3.84-3.84,25-25,23.91-23.91a10.92,10.92,0,0,1,15.44,15.44Z"/></g></g></svg>