<svg id="Layer_1" data-name="Layer 1" xmlns="http://www.w3.org/2000/svg" viewBox="0 0 557.21 551.95"><defs><style>.cls-1{fill:#fc4d44;}.cls-2{fill:#ff6e60;}.cls-3{opacity:0.55;}.cls-4{fill:#fff;}</style></defs><title>testimonials</title><path class="cls-1" d="M181.35,89.6c-1.17,24.17,6.71,50.89-6.29,71.3-14.68,23.06-37.79,5.69-59.81,6.57-24.94,1-50.57,7.5-71.41,21.63C21.06,204.6,9.79,235.6,4.32,262c-12,57.81,3,120.84,31.32,171.78,37.16,66.9,114.75,104.51,185.75,66.89,9.17-4.86,17.83-10.73,27.35-14.89,36.31-15.86,78.83-.21,116.68-2.88,45.16-3.19,87.42-3.12,127.73-27.43,56.27-33.92,85.43-116,46.23-172.07-17.38-24.89-40-46.77-50.91-75.1-15.29-39.85-4.74-85.87-19.12-126-15-41.79-56-70.86-99.54-79.31C314.75-7.68,206.37,9.3,184.55,71.7A63.87,63.87,0,0,0,181.35,89.6Z" transform="translate(-0.16 -0.02)"/><path class="cls-2" d="M177,70.6c-45,1.68-90,16.23-124.78,44.78-19.5,16-35.82,36.81-42.8,61.06C-2.11,216.38,13,259.09,32.6,295.71A482,482,0,0,0,207.54,479.6c10.89,6.57,22.15,12.74,34.3,16.5,16.76,5.18,34.58,5.57,52.12,5.91,22.48.45,45.27.86,67.07-4.65,20.48-5.17,39.33-15.38,57.13-26.75,53.36-34,100.66-81.27,122.38-140.73s13.63-132-30.38-177.55c-23.39-24.19-54.9-39.27-87.39-48-38-10.24-76.15-10.56-114.92-14.29C263.34,85.74,222.53,68.87,177,70.6Z" transform="translate(-0.16 -0.02)"/><path class="cls-2" d="M176.42,42.33a27.16,27.16,0,0,0,10.31-30.59,17.35,17.35,0,0,0-2.82-5.3C180.08,1.73,173.42.33,167.37.73,122,3.69,138.22,67.74,176.42,42.33Z" transform="translate(-0.16 -0.02)"/><path class="cls-2" d="M206.51,519.94c-19,11.44-22.61,34.48,1.67,31.82,6.52-.71,13.38-3.23,19.81-6.32,8.56-4.12,17.28-10,20.33-16.86C259.44,503.69,227.88,507.11,206.51,519.94Z" transform="translate(-0.16 -0.02)"/><g class="cls-3"><path class="cls-4" d="M259,222.59a9.66,9.66,0,0,0,4.86-13l-7.94-16.69a9.69,9.69,0,0,0-12.64-4.7c-13.78,5.83-25.61,13.45-35,22.69A84.81,84.81,0,0,0,184.78,248C180.57,262,178.3,281,178.3,305.1v49.76a9.75,9.75,0,0,0,9.72,9.73h63.71a9.75,9.75,0,0,0,9.72-9.73v-63.7a9.75,9.75,0,0,0-9.72-9.73H221.25c.33-16.37,4.22-29.5,11.35-39.39C238.43,234.1,247.19,227.62,259,222.59Z" transform="translate(-0.16 -0.02)"/><path class="cls-4" d="M373.46,222.59a9.66,9.66,0,0,0,4.86-13l-7.94-16.53a9.69,9.69,0,0,0-12.64-4.7,117.37,117.37,0,0,0-34.85,22.53c-11.51,11-19.45,23.51-23.67,37.28s-6.32,32.59-6.32,56.9v49.76a9.76,9.76,0,0,0,9.73,9.73h63.7a9.75,9.75,0,0,0,9.72-9.73v-63.7a9.75,9.75,0,0,0-9.72-9.73H335.69c.33-16.37,4.22-29.5,11.35-39.39C352.88,234.1,361.63,227.62,373.46,222.59Z" transform="translate(-0.16 -0.02)"/></g></svg>