<svg id="Layer_1" data-name="Layer 1" xmlns="http://www.w3.org/2000/svg" viewBox="0 0 557.21 551.95"><defs><style>.cls-1{fill:#03617a;}.cls-2{fill:#01719a;}.cls-3{opacity:0.55;}.cls-4{fill:#fff;}</style></defs><title>tools</title><path class="cls-1" d="M181.35,89.6c-1.17,24.17,6.71,50.89-6.29,71.3-14.68,23.06-37.79,5.69-59.81,6.57-24.94,1-50.57,7.5-71.41,21.63C21.06,204.6,9.79,235.6,4.32,262c-12,57.81,3,120.84,31.32,171.78,37.16,66.9,114.75,104.51,185.75,66.89,9.17-4.86,17.83-10.73,27.35-14.89,36.31-15.86,78.83-.21,116.68-2.88,45.16-3.19,87.42-3.12,127.73-27.43,56.27-33.92,85.43-116,46.23-172.07-17.38-24.89-40-46.77-50.91-75.1-15.29-39.85-4.74-85.87-19.12-126-15-41.79-56-70.86-99.54-79.31C314.75-7.68,206.37,9.3,184.55,71.7A63.87,63.87,0,0,0,181.35,89.6Z" transform="translate(-0.16 -0.02)"/><path class="cls-2" d="M177,70.6c-45,1.68-90,16.23-124.78,44.78-19.5,16-35.82,36.81-42.8,61.06C-2.11,216.38,13,259.09,32.6,295.71A482,482,0,0,0,207.54,479.6c10.89,6.57,22.15,12.74,34.3,16.5,16.76,5.18,34.58,5.57,52.12,5.91,22.48.45,45.27.86,67.07-4.65,20.48-5.17,39.33-15.38,57.13-26.75,53.36-34,100.66-81.27,122.38-140.73s13.63-132-30.38-177.55c-23.39-24.19-54.9-39.27-87.39-48-38-10.24-76.15-10.56-114.92-14.29C263.34,85.74,222.53,68.87,177,70.6Z" transform="translate(-0.16 -0.02)"/><path class="cls-2" d="M176.42,42.33a27.16,27.16,0,0,0,10.31-30.59,17.35,17.35,0,0,0-2.82-5.3C180.08,1.73,173.42.33,167.37.73,122,3.69,138.22,67.74,176.42,42.33Z" transform="translate(-0.16 -0.02)"/><path class="cls-2" d="M206.51,519.94c-19,11.44-22.61,34.48,1.67,31.82,6.52-.71,13.38-3.23,19.81-6.32,8.56-4.12,17.28-10,20.33-16.86C259.44,503.69,227.88,507.11,206.51,519.94Z" transform="translate(-0.16 -0.02)"/><g class="cls-3"><path class="cls-4" d="M330.08,286a5.76,5.76,0,0,0-8.32,0l-12.47,12.9-5.14-5.32-8.32,8.61,5.15,5.32-12.5,12.92a6.22,6.22,0,0,0,0,8.6l40.19,41.57a28.74,28.74,0,0,0,41.64,0,31.23,31.23,0,0,0,0-43.05Zm23.19,67a5.74,5.74,0,0,1-8.32,0L321.8,329a6.24,6.24,0,0,1,0-8.6,5.75,5.75,0,0,1,8.33,0l23.14,23.93A6.23,6.23,0,0,1,353.27,353Z" transform="translate(-0.16 -0.02)"/><path class="cls-4" d="M328.35,251.31c28.9,8.68,50.83-6.41,50.83-38.68a50,50,0,0,0-2.62-16,5.8,5.8,0,0,0-9.71-2.3L350,211.73h-6.21l-2.72-2.82c.06-2.1.17-3.85.22-6.13l17.09-17.67a6.18,6.18,0,0,0-2.15-10,45.54,45.54,0,0,0-16.18-3c-31.57,0-46.07,23.28-37.23,53.22l-73,75.5c-29-9.15-51.45,5.88-51.45,38.51a50.2,50.2,0,0,0,2.85,16.74,5.81,5.81,0,0,0,9.69,2.22L208,340.68h6.2l2.47,2.56v6.42l-16.87,17.45A6.19,6.19,0,0,0,202,377.16a45.75,45.75,0,0,0,15.52,2.7c31.13,0,45.8-22.61,37.39-52.57Z" transform="translate(-0.16 -0.02)"/><path class="cls-4" d="M198.25,219.07a5.79,5.79,0,0,0,4.16,1.79h14.82l36.64,37.89,8.32-8.6-36.44-37.7V197.53a6.17,6.17,0,0,0-1.73-4.3l-18.3-18.94a5.74,5.74,0,0,0-8.32,0l-17.07,17.65a6.25,6.25,0,0,0,0,8.61Z" transform="translate(-0.16 -0.02)"/></g></svg>