<svg xmlns="http://www.w3.org/2000/svg" viewBox="0 0 557.53 551.95"><defs><style>.cls-1,.cls-3{fill:#fff;}.cls-1{opacity:0.1;}.cls-2{opacity:0.3;}.cls-4{opacity:0.8;}</style></defs><title>bubble_1</title><g id="Layer_2" data-name="Layer 2"><g id="Layer_1-2" data-name="Layer 1"><path class="cls-1" d="M181.51,89.58c-1.17,24.17,6.71,50.89-6.29,71.3-14.68,23.06-37.79,5.69-59.81,6.57-24.94,1-50.57,7.5-71.41,21.63-22.78,15.5-34,46.5-39.52,72.9-12,57.81,3,120.84,31.32,171.78C73,500.66,150.55,538.27,221.55,500.65c9.17-4.86,17.83-10.73,27.35-14.89,36.31-15.86,78.83-.21,116.68-2.88,45.16-3.19,87.42-3.12,127.73-27.43,56.27-33.92,85.43-115.95,46.23-172.07-17.38-24.89-40-46.77-50.91-75.1-15.29-39.85-4.74-85.87-19.12-126-15-41.79-56-70.86-99.54-79.31C314.91-7.7,206.53,9.28,184.71,71.68A63.39,63.39,0,0,0,181.51,89.58Z"/><g class="cls-2"><path class="cls-3" d="M171.57,70.58c-45,1.68-90,16.23-124.78,44.78C27.29,131.36,11,152.17,4,176.42c-11.5,39.94,3.57,82.65,23.21,119.27A482,482,0,0,0,202.14,479.58c10.89,6.57,22.15,12.74,34.3,16.5,16.76,5.18,34.58,5.57,52.12,5.91,22.48.45,45.27.86,67.07-4.65,20.48-5.17,39.33-15.38,57.13-26.75,53.36-34,100.66-81.27,122.38-140.73s13.63-132-30.38-177.55c-23.39-24.19-54.9-39.27-87.39-48-38-10.24-76.15-10.56-114.92-14.29C257.94,85.72,217.13,68.85,171.57,70.58Z"/><path class="cls-3" d="M176.42,42.31a27.16,27.16,0,0,0,10.31-30.59,17.24,17.24,0,0,0-2.82-5.3C180.08,1.71,173.42.31,167.37.71,122,3.67,138.22,67.72,176.42,42.31Z"/><path class="cls-3" d="M206.51,519.92c-19,11.44-22.61,34.48,1.67,31.82,6.52-.71,13.38-3.23,19.81-6.32,8.56-4.12,17.28-10,20.33-16.86C259.44,503.67,227.88,507.09,206.51,519.92Z"/></g><g class="cls-4"><path class="cls-3" d="M278.76,147.69C205.42,147.69,146,200.18,146,264.93c0,32.84,15.33,62.48,40,83.77-5.4,31.19-40.25,43.84-37.85,52.43,29.43,12.18,88.39-14.63,102.79-21.59a150.21,150.21,0,0,0,27.89,2.64c73.34,0,132.8-52.48,132.8-117.25S352.1,147.69,278.76,147.69Zm-9.41,122.13c0,31.88-14.11,49.76-41.9,53.15h-.17a1.27,1.27,0,0,1-.85-.32,1.29,1.29,0,0,1-.45-1v-16.2a1.28,1.28,0,0,1,.67-1.13c12.67-6.91,19-17.8,19.33-33.24h-18.7a1.31,1.31,0,0,1-1.3-1.29V229.06a1.31,1.31,0,0,1,1.3-1.29h40.77a1.3,1.3,0,0,1,1.3,1.29Zm72.18,0c0,31.39-12.48,47.29-41.79,53.14l-.25,0a1.33,1.33,0,0,1-.83-.29,1.29,1.29,0,0,1-.47-1v-16.2a1.29,1.29,0,0,1,.66-1.13c12.68-6.91,19-17.8,19.33-33.24H299.49a1.3,1.3,0,0,1-1.3-1.29V229.06a1.3,1.3,0,0,1,1.3-1.29h40.75a1.29,1.29,0,0,1,1.29,1.29Z"/></g></g></g></svg>