<svg xmlns="http://www.w3.org/2000/svg" xmlns:xlink="http://www.w3.org/1999/xlink" viewBox="0 0 192.74 192.74"><defs><style>.cls-1{fill:url(#Безымянный_градиент_12);}</style><linearGradient id="Безымянный_градиент_12" x1="35.83" y1="154.77" x2="176.82" y2="18.77" gradientUnits="userSpaceOnUse"><stop offset="0" stop-color="#a452e2"/><stop offset="1" stop-color="#17ffff"/></linearGradient></defs><title>Asset 1</title><g id="Layer_2" data-name="Layer 2"><g id="OBJECTS"><path class="cls-1" d="M96.37,0a96.37,96.37,0,1,0,96.37,96.37A96.48,96.48,0,0,0,96.37,0Zm0,189.39a93,93,0,1,1,93-93A93.13,93.13,0,0,1,96.37,189.39Zm0-174.8a81.78,81.78,0,1,0,81.78,81.78A81.86,81.86,0,0,0,96.37,14.59Zm0,160.21A78.44,78.44,0,1,1,174.8,96.37,78.52,78.52,0,0,1,96.37,174.8Zm0-145.63a67.2,67.2,0,1,0,67.19,67.2A67.28,67.28,0,0,0,96.37,29.17Zm0,131.05a63.85,63.85,0,1,1,63.85-63.85A63.92,63.92,0,0,1,96.37,160.22Zm0-116.46A52.61,52.61,0,1,0,149,96.37,52.67,52.67,0,0,0,96.37,43.76Zm0,101.87a49.26,49.26,0,1,1,49.26-49.26A49.32,49.32,0,0,1,96.37,145.63Zm0-87.28a38,38,0,1,0,38,38A38.06,38.06,0,0,0,96.37,58.35Zm0,72.69A34.67,34.67,0,1,1,131,96.37,34.71,34.71,0,0,1,96.37,131Zm0-58.1A23.43,23.43,0,1,0,119.8,96.37,23.46,23.46,0,0,0,96.37,72.94Zm0,43.52a20.09,20.09,0,1,1,20.09-20.09A20.12,20.12,0,0,1,96.37,116.46Zm0-28.94a8.85,8.85,0,1,0,8.85,8.85A8.86,8.86,0,0,0,96.37,87.52Zm0,14.35a5.5,5.5,0,1,1,5.5-5.5A5.51,5.51,0,0,1,96.37,101.87Z"/></g></g></svg>