<svg xmlns="http://www.w3.org/2000/svg" viewBox="0 0 500 500"><defs><style>.cls-1,.cls-2{fill:#fff;}.cls-1{opacity:0.3;}</style></defs><title>contact-1</title><g id="Layer_2" data-name="Layer 2"><g id="Layer_1-2" data-name="Layer 1"><path class="cls-1" d="M250,0C111.93,0,0,111.93,0,250S111.93,500,250,500,500,388.07,500,250,388.07,0,250,0Zm73.93,301a41.24,41.24,0,0,1-2.24,7.29q-2.24,5.34-13,11.3A41.34,41.34,0,0,1,288.88,325a42.55,42.55,0,0,1-5.59-.37,46.62,46.62,0,0,1-6.13-1.34q-3.41-1-5.06-1.54t-5.91-2.19q-4.26-1.59-5.22-1.91a96.7,96.7,0,0,1-18.64-8.85q-13.64-8.42-28.18-22.95t-23-28.18A96.8,96.8,0,0,1,182.35,239q-.32-1-1.91-5.22t-2.19-5.91q-.58-1.65-1.54-5.06a46,46,0,0,1-1.33-6.12,39.32,39.32,0,0,1,5.06-25.41q6-10.76,11.29-13a42.64,42.64,0,0,1,7.3-2.23,34.58,34.58,0,0,1,7.51-1.07,6.07,6.07,0,0,1,2.24.32c1.27.43,3.16,3.13,5.64,8.1.78,1.35,1.85,3.26,3.2,5.75s2.59,4.74,3.73,6.76,2.23,3.93,3.3,5.7c.21.29.83,1.17,1.86,2.67a28.79,28.79,0,0,1,2.29,3.78,6.91,6.91,0,0,1,.75,3q0,2.13-3,5.33a52,52,0,0,1-6.6,5.86,63.86,63.86,0,0,0-6.61,5.64c-2,2-3,3.63-3,4.9a7.08,7.08,0,0,0,.53,2.4,23.34,23.34,0,0,0,.9,2.18c.25.5.75,1.35,1.5,2.56s1.15,1.88,1.22,2A105.71,105.71,0,0,0,258,285.58c.14.07.82.48,2,1.22s2.06,1.25,2.55,1.5,1.23.55,2.19.9a7.23,7.23,0,0,0,2.4.53c1.27,0,2.91-1,4.9-3a65.11,65.11,0,0,0,5.64-6.61,52,52,0,0,1,5.86-6.61q3.19-3,5.32-3a7,7,0,0,1,3,.74,31.19,31.19,0,0,1,3.78,2.29l2.67,1.87q2.65,1.59,5.7,3.3t6.76,3.73c2.48,1.35,4.4,2.41,5.75,3.2q7.46,3.72,8.1,5.64a5.92,5.92,0,0,1,.31,2.25A35.18,35.18,0,0,1,323.93,301Z"/><path class="cls-1" d="M250,50C139.54,50,50,139.54,50,250s89.54,200,200,200,200-89.54,200-200S360.46,50,250,50Zm73.93,251a41.24,41.24,0,0,1-2.24,7.29q-2.24,5.34-13,11.3A41.34,41.34,0,0,1,288.88,325a42.55,42.55,0,0,1-5.59-.37,46.62,46.62,0,0,1-6.13-1.34q-3.41-1-5.06-1.54t-5.91-2.19q-4.26-1.59-5.22-1.91a96.7,96.7,0,0,1-18.64-8.85q-13.64-8.42-28.18-22.95t-23-28.18A96.8,96.8,0,0,1,182.35,239q-.32-1-1.91-5.22t-2.19-5.91q-.58-1.65-1.54-5.06a46,46,0,0,1-1.33-6.12,39.32,39.32,0,0,1,5.06-25.41q6-10.76,11.29-13a42.64,42.64,0,0,1,7.3-2.23,34.58,34.58,0,0,1,7.51-1.07,6.07,6.07,0,0,1,2.24.32c1.27.43,3.16,3.13,5.64,8.1.78,1.35,1.85,3.26,3.2,5.75s2.59,4.74,3.73,6.76,2.23,3.93,3.3,5.7c.21.29.83,1.17,1.86,2.67a28.79,28.79,0,0,1,2.29,3.78,6.91,6.91,0,0,1,.75,3q0,2.13-3,5.33a52,52,0,0,1-6.6,5.86,63.86,63.86,0,0,0-6.61,5.64c-2,2-3,3.63-3,4.9a7.08,7.08,0,0,0,.53,2.4,23.34,23.34,0,0,0,.9,2.18c.25.5.75,1.35,1.5,2.56s1.15,1.88,1.22,2A105.71,105.71,0,0,0,258,285.58c.14.07.82.48,2,1.22s2.06,1.25,2.55,1.5,1.23.55,2.19.9a7.23,7.23,0,0,0,2.4.53c1.27,0,2.91-1,4.9-3a65.11,65.11,0,0,0,5.64-6.61,52,52,0,0,1,5.86-6.61q3.19-3,5.32-3a7,7,0,0,1,3,.74,31.19,31.19,0,0,1,3.78,2.29l2.67,1.87q2.65,1.59,5.7,3.3t6.76,3.73c2.48,1.35,4.4,2.41,5.75,3.2q7.46,3.72,8.1,5.64a5.92,5.92,0,0,1,.31,2.25A35.18,35.18,0,0,1,323.93,301Z"/><path class="cls-2" d="M250,100A150,150,0,1,0,400,250,150,150,0,0,0,250,100Zm73.93,201a41.24,41.24,0,0,1-2.24,7.29q-2.24,5.34-13,11.3A41.34,41.34,0,0,1,288.88,325a42.55,42.55,0,0,1-5.59-.37,46.62,46.62,0,0,1-6.13-1.34q-3.41-1-5.06-1.54t-5.91-2.19q-4.26-1.59-5.22-1.91a96.7,96.7,0,0,1-18.64-8.85q-13.64-8.42-28.18-22.95t-23-28.18A96.8,96.8,0,0,1,182.35,239q-.32-1-1.91-5.22t-2.19-5.91q-.58-1.65-1.54-5.06a46,46,0,0,1-1.33-6.12,39.32,39.32,0,0,1,5.06-25.41q6-10.76,11.29-13a42.64,42.64,0,0,1,7.3-2.23,34.58,34.58,0,0,1,7.51-1.07,6.07,6.07,0,0,1,2.24.32c1.27.43,3.16,3.13,5.64,8.1.78,1.35,1.85,3.26,3.2,5.75s2.59,4.74,3.73,6.76,2.23,3.93,3.3,5.7c.21.29.83,1.17,1.86,2.67a28.79,28.79,0,0,1,2.29,3.78,6.91,6.91,0,0,1,.75,3q0,2.13-3,5.33a52,52,0,0,1-6.6,5.86,63.86,63.86,0,0,0-6.61,5.64c-2,2-3,3.63-3,4.9a7.08,7.08,0,0,0,.53,2.4,23.34,23.34,0,0,0,.9,2.18c.25.5.75,1.35,1.5,2.56s1.15,1.88,1.22,2A105.71,105.71,0,0,0,258,285.58c.14.07.82.48,2,1.22s2.06,1.25,2.55,1.5,1.23.55,2.19.9a7.23,7.23,0,0,0,2.4.53c1.27,0,2.91-1,4.9-3a65.11,65.11,0,0,0,5.64-6.61,52,52,0,0,1,5.86-6.61q3.19-3,5.32-3a7,7,0,0,1,3,.74,31.19,31.19,0,0,1,3.78,2.29l2.67,1.87q2.65,1.59,5.7,3.3t6.76,3.73c2.48,1.35,4.4,2.41,5.75,3.2q7.46,3.72,8.1,5.64a5.92,5.92,0,0,1,.31,2.25A35.18,35.18,0,0,1,323.93,301Z"/></g></g></svg>