<?xml version="1.0" encoding="utf-8"?>
<!-- Generator: Adobe Illustrator 22.1.0, SVG Export Plug-In . SVG Version: 6.00 Build 0)  -->
<svg version="1.1" id="Layer_1" xmlns="http://www.w3.org/2000/svg" xmlns:xlink="http://www.w3.org/1999/xlink" x="0px" y="0px"
	 viewBox="0 0 500 500" style="enable-background:new 0 0 500 500;" xml:space="preserve">
<style type="text/css">
	.st0{fill:#FFC24A;}
	.st1{fill:#FFA712;}
	.st2{filter:url(#b);}
	.st3{fill:#F4BD62;}
	.st4{fill:#FFA50E;}
	.st5{filter:url(#d);}
	.st6{fill:#F6820C;}
	.st7{fill:#FDE068;}
	.st8{fill:#FCCA3F;}
	.st9{fill:#EEAB37;}
</style>
<filter  filterUnits="objectBoundingBox" height="200%" id="d" width="200%" x="-50%" y="-50%">
	<feGaussianBlur  in="SourceAlpha" result="shadowBlurInner1" stdDeviation="3.5"></feGaussianBlur>
	<feOffset  dx="1" dy="-9" in="shadowBlurInner1" result="shadowOffsetInner1"></feOffset>
	<feComposite  in="shadowOffsetInner1" in2="SourceAlpha" k2="-1" k3="1" operator="arithmetic" result="shadowInnerInner1">
		</feComposite>
	<feColorMatrix  in="shadowInnerInner1" values="0 0 0 0 0 0 0 0 0 0 0 0 0 0 0 0 0 0 0.09 0"></feColorMatrix>
</filter>
<filter  filterUnits="objectBoundingBox" height="200%" id="b" width="200%" x="-50%" y="-50%">
	<feGaussianBlur  in="SourceAlpha" result="shadowBlurInner1" stdDeviation="17.5"></feGaussianBlur>
	<feOffset  in="shadowBlurInner1" result="shadowOffsetInner1"></feOffset>
	<feComposite  in="shadowOffsetInner1" in2="SourceAlpha" k2="-1" k3="1" operator="arithmetic" result="shadowInnerInner1">
		</feComposite>
	<feColorMatrix  in="shadowInnerInner1" values="0 0 0 0 0 0 0 0 0 0 0 0 0 0 0 0 0 0 0.06 0"></feColorMatrix>
</filter>
<g>
	<path class="st0" d="M115.4,363.5l2.2-3.1l105.8-200.8l0.2-2.1L177,69.8c-3.9-7.3-14.9-5.5-16.2,2.7L115.4,363.5z"/>
	<g>
		<path id="a" class="st1" d="M116.7,361.1l1.7-3.3l104.7-198.7l-46.5-88c-3.9-7.3-13.7-5.4-15,2.7L116.7,361.1z"/>
	</g>
	<g class="st2">
		<path id="a_1_" d="M116.7,361.1l1.7-3.3l104.7-198.7l-46.5-88c-3.9-7.3-13.7-5.4-15,2.7L116.7,361.1z"/>
	</g>
	<path class="st3" d="M257.7,223.7l34.7-35.6l-34.7-66.3c-3.3-6.3-12.5-6.3-15.8,0l-18.6,35.4v3L257.7,223.7L257.7,223.7z"/>
	<g>
		<path id="c" class="st4" d="M257.1,222.3l33.8-34.6l-33.8-64.3c-3.2-6.1-11-6.7-14.2-0.6l-18.7,35.9l-0.6,1.8L257.1,222.3z"/>
	</g>
	<g class="st5">
		<path id="c_1_" d="M257.1,222.3l33.8-34.6l-33.8-64.3c-3.2-6.1-11-6.7-14.2-0.6l-18.7,35.9l-0.6,1.8L257.1,222.3z"/>
	</g>
	<path class="st6" d="M115.4,363.5l1-1l3.7-1.5l135.4-134.9l1.7-4.7L223.5,157L115.4,363.5z"/>
	<path class="st7" d="M262,431.5l122.5-68.3l-35-215.5c-1.1-6.7-9.4-9.4-14.2-4.6l-220,220.4l121.8,68
		C245,435.8,254.3,435.8,262,431.5"/>
	<path class="st8" d="M383.5,362.6l-34.7-213.9c-1.1-6.7-8-9.5-12.8-4.7l-219.2,219l120.5,67.4c7.6,4.3,16.9,4.3,24.6,0L383.5,362.6
		L383.5,362.6z"/>
	<path class="st9" d="M262,429.5c-7.7,4.3-17.1,4.3-24.8,0l-120.9-67.1l-1,1l121.8,68c7.7,4.3,17.1,4.3,24.8,0l122.5-68.3l-0.3-1.8
		L262,429.5L262,429.5z"/>
</g>
</svg>
