<?xml version="1.0" encoding="utf-8"?>
<!-- Generator: Adobe Illustrator 22.1.0, SVG Export Plug-In . SVG Version: 6.00 Build 0)  -->
<svg version="1.1" id="Layer_1" xmlns="http://www.w3.org/2000/svg" xmlns:xlink="http://www.w3.org/1999/xlink" x="0px" y="0px"
	 viewBox="0 0 500 500" style="enable-background:new 0 0 500 500;" xml:space="preserve">
<style type="text/css">
	.st0{fill:#F35045;}
</style>
<g>
	<path class="st0" d="M297.7,367.5c2.9,4.2,4.7,3.9,7,2.9c2.3-1,119.8-40.6,123.4-41.9c3.6-1.3,2.4-2.4,1.3-4.2
		c-1.1-1.8-40.3-55-42.3-58.1c-2-3.1-2.9-2.4-6-1.5l-124.6,32.4C256.5,297.1,294.7,363.3,297.7,367.5z M438,313.3v-62.3
		c-14,3.7-31.7,8.5-38.7,10.3C409.8,275.5,426.3,297.6,438,313.3z M399.1,184.7c-1.9,0.4-44.4,8.1-47,8.5c-2.6,0.3-1.7,1.8-0.7,3.3
		l37.4,51.3c0,0,45.7-11.3,48.5-12c0.2,0,0.4-0.1,0.7-0.2v-6.8c-8.3-10.5-31-39.2-32.9-41.9C402.7,183.7,401.1,184.2,399.1,184.7
		L399.1,184.7z"/>
	<path class="st0" d="M131.7,104.1c9.2-0.4,10,1.7,14.1,7.7l101.6,169.8L375.1,251c-7.1-10-39.2-55.6-42.3-59.9
		c-3.5-4.9,0.1-7.2,5.8-8.1c5.7-1,54.5-9.2,58.7-9.8c4.2-0.6,7.5-2.1,14.3,6.1c3.5,4.2,15.3,18.9,26.4,32.7v-79.4
		c0-19.4-6.9-36-20.7-49.8C403.5,68.9,386.9,62,367.5,62h-235c-19.4,0-36,6.9-49.8,20.7c-7.9,7.9-13.5,16.7-16.9,26.5
		C88.8,107.3,125.3,104.3,131.7,104.1L131.7,104.1z"/>
	<path class="st0" d="M309.2,390.4c-10.8,3.3-15.6,4.9-22.6-4.9c-5.3-7.3-33.7-58.5-47.6-83.8c-26.4,6.9-74.6,19.5-88.6,22.8
		c-13.6,3.3-19.4-4.9-21.6-9.9c-1.6-3.5-41.4-89.4-66.8-144.5v197.3c0,19.4,6.9,36,20.7,49.8c13.8,13.8,30.4,20.7,49.8,20.7h235
		c19.4,0,36-6.9,49.8-20.7c13.8-13.8,20.7-30.4,20.7-49.8v-23.2C409.2,354.9,316.4,388.2,309.2,390.4z"/>
	<path class="st0" d="M150.7,304.8c3.8-0.9,75.4-18,76.9-18.3c1.5-0.3,2.5-1.2,0.9-4c-1.6-2.8-95.4-164.6-95.4-164.6
		c-0.9-1.5-0.6-2-3-1.9c-2.1,0.1-55.1,4.8-67.4,5.9c-0.4,2.6-0.6,5.2-0.7,7.8c12.5,25.5,84,173.1,84.4,174.3
		C146.9,305.2,146.9,305.6,150.7,304.8L150.7,304.8z"/>
</g>
</svg>
