<svg id="Layer_1" data-name="Layer 1" xmlns="http://www.w3.org/2000/svg" viewBox="0 0 163.3 140.56"><defs><style>.cls-1{fill:#fff;}</style></defs><title>circle-3</title><path class="cls-1" d="M-310.39,43.8a41.08,41.08,0,0,0-17.29-26.48,41,41,0,0,0-30.95-6.5A41,41,0,0,0-385.11,28.1a41.21,41.21,0,0,0-6.05,32.95,39.65,39.65,0,0,0-7.66,8.88,39.83,39.83,0,0,0,12.34,54.95,39.83,39.83,0,0,0,55-12.34A39.67,39.67,0,0,0-326,84.29a40.85,40.85,0,0,0,9.07-9.54A41.08,41.08,0,0,0-310.39,43.8Zm-9,29.26a38,38,0,0,1-7.31,8,39.62,39.62,0,0,0-17.18-23.45A39.83,39.83,0,0,0-388.55,59a38.07,38.07,0,0,1-.76-7.61,38.07,38.07,0,0,1,6.68-21.58,38.09,38.09,0,0,1,24.56-16,39.31,39.31,0,0,1,7.15-.66,38,38,0,0,1,21.55,6.7,38.07,38.07,0,0,1,16,24.56A38.05,38.05,0,0,1-319.38,73.06Z" transform="translate(405 -10.1)"/><circle class="cls-1" cx="143.71" cy="120.98" r="19.58"/></svg>