<?xml version="1.0" encoding="utf-8"?>
<!-- Generator: Adobe Illustrator 22.1.0, SVG Export Plug-In . SVG Version: 6.00 Build 0)  -->
<svg version="1.1" id="Layer_1" xmlns="http://www.w3.org/2000/svg" xmlns:xlink="http://www.w3.org/1999/xlink" x="0px" y="0px"
	 viewBox="0 0 500 500" style="enable-background:new 0 0 500 500;" xml:space="preserve">
<style type="text/css">
	.st0{fill:none;}
	.st1{fill:#5D87A1;}
	.st2{fill:#F8981D;}
</style>
<g>
	<path class="st0" d="M-21,62.2h542v375.7H-21V62.2z"/>
	<path class="st1" d="M144.9,365.6h-14.7c-0.5-24.8-1.9-48.1-4.3-69.9h-0.1l-22.3,69.9H92.3l-22.2-69.9H70
		c-1.6,20.9-2.7,44.2-3.1,69.9H53.5c0.9-31.2,3-60.4,6.5-87.7h18.2l21.2,64.4h0.1l21.3-64.4h17.4C142,309.8,144.2,339.1,144.9,365.6
		 M208.5,300.9c-6,32.4-13.9,56-23.6,70.7c-7.6,11.3-16,17-25.1,17c-2.4,0-5.4-0.7-9-2.2v-7.8c1.7,0.2,3.8,0.4,6.1,0.4
		c4.2,0,7.7-1.2,10.3-3.5c3.1-2.9,4.7-6.1,4.7-9.6c0-2.4-1.2-7.4-3.6-14.9l-16.1-50h14.4l11.6,37.4c2.6,8.5,3.7,14.4,3.2,17.8
		c6.3-16.9,10.7-35.3,13.3-55.2L208.5,300.9L208.5,300.9L208.5,300.9z"/>
	<path class="st2" d="M403.9,365.6h-41.7v-87.7h14v76.9h27.7V365.6z M351.3,367.7l-16.1-8c1.4-1.2,2.8-2.4,4-3.9
		c6.9-8,10.3-19.9,10.3-35.7c0-29-11.4-43.5-34.2-43.5c-11.2,0-19.9,3.7-26.1,11c-6.8,8.1-10.3,19.9-10.3,35.6
		c0,15.4,3,26.7,9.1,33.9c5.5,6.5,13.9,9.7,25.1,9.7c4.2,0,8-0.5,11.5-1.5l21,12.2L351.3,367.7z M299.1,348
		c-3.5-5.7-5.3-14.9-5.3-27.5c0-22.1,6.7-33.1,20.1-33.1c7,0,12.2,2.6,15.5,7.9c3.5,5.7,5.3,14.8,5.3,27.3
		c0,22.3-6.7,33.4-20.1,33.4C307.5,356,302.4,353.3,299.1,348 M272.8,341.3c0,7.4-2.7,13.5-8.2,18.3c-5.5,4.8-12.8,7.1-21.9,7.1
		c-8.6,0-16.9-2.7-24.9-8.2l3.8-7.5c6.9,3.5,13.2,5.2,18.8,5.2c5.3,0,9.4-1.2,12.4-3.5c3-2.3,4.8-5.6,4.8-9.7
		c0-5.2-3.6-9.7-10.3-13.4c-6.1-3.4-18.4-10.4-18.4-10.4c-6.7-4.9-10-10.1-10-18.7c0-7.1,2.5-12.8,7.5-17.2c5-4.4,11.4-6.6,19.3-6.6
		c8.1,0,15.5,2.2,22.2,6.5l-3.4,7.5c-5.7-2.4-11.3-3.6-16.9-3.6c-4.5,0-8,1.1-10.4,3.2c-2.4,2.2-3.9,4.9-3.9,8.3
		c0,5.2,3.7,9.7,10.6,13.5c6.2,3.4,18.8,10.6,18.8,10.6C269.4,327.6,272.8,332.7,272.8,341.3"/>
	<path class="st1" d="M421.5,248.5c-8.5-0.2-15,0.6-20.6,3c-1.6,0.6-4.1,0.6-4.3,2.6c0.9,0.9,1,2.2,1.7,3.4c1.3,2.1,3.5,5,5.5,6.5
		c2.2,1.7,4.4,3.4,6.8,4.9c4.1,2.5,8.8,4,12.8,6.6c2.3,1.5,4.7,3.4,7,5c1.2,0.8,1.9,2.2,3.4,2.8v-0.3c-0.7-1-1-2.3-1.7-3.4l-3.2-3.1
		c-3.1-4.1-6.9-7.7-11-10.7c-3.4-2.3-10.8-5.5-12.2-9.4l-0.2-0.2c2.3-0.2,5.1-1.1,7.3-1.7c3.6-0.9,6.9-0.7,10.6-1.7
		c1.7-0.4,3.4-1,5.1-1.5v-1c-1.9-1.9-3.3-4.4-5.3-6.2c-5.4-4.7-11.3-9.2-17.5-13c-3.3-2.1-7.5-3.5-11-5.3c-1.3-0.6-3.4-1-4.1-2
		c-1.9-2.3-3-5.4-4.3-8.2c-3.1-5.8-6-12.3-8.7-18.4c-1.9-4.1-3.1-8.3-5.4-12.1c-10.9-18-22.8-28.9-41-39.6
		c-3.9-2.2-8.6-3.2-13.6-4.3l-7.9-0.4c-1.7-0.7-3.4-2.8-4.9-3.7c-6-3.8-21.6-12.1-26.1-1.2c-2.9,6.9,4.2,13.7,6.7,17.2
		c1.8,2.4,4.1,5.2,5.4,7.9c0.7,1.8,1,3.7,1.7,5.6c1.7,4.7,3.3,9.8,5.5,14.2c1.2,2.2,2.4,4.5,3.9,6.6c0.9,1.2,2.3,1.7,2.7,3.6
		c-1.5,2.1-1.6,5.3-2.4,7.9c-3.8,12-2.3,26.8,3.1,35.6c1.7,2.6,5.7,8.5,11.1,6.2c4.8-1.9,3.7-7.9,5.1-13.2c0.3-1.3,0.1-2.1,0.7-3
		v0.2c1.5,3,3,5.8,4.3,8.8c3.3,5.2,9,10.6,13.8,14.2c2.5,1.9,4.5,5.2,7.7,6.4v-0.3h-0.2c-0.6-0.9-1.6-1.4-2.4-2.1
		c-1.9-1.9-4-4.2-5.5-6.4c-4.4-5.9-8.4-12.5-11.9-19.3c-1.7-3.3-3.2-6.9-4.6-10.2c-0.6-1.3-0.6-3.2-1.7-3.8
		c-1.6,2.3-3.9,4.3-5.1,7.2c-2,4.6-2.2,10.2-3,16l-0.4,0.2c-3.4-0.8-4.5-4.3-5.8-7.3c-3.2-7.5-3.7-19.6-1-28.3
		c0.7-2.2,3.9-9.2,2.7-11.3c-0.6-2-2.8-3.2-3.9-4.8c-1.4-2-2.9-4.5-3.8-6.8c-2.5-5.9-3.8-12.5-6.6-18.4c-1.3-2.8-3.5-5.6-5.3-8.2
		c-2-2.9-4.2-4.9-5.8-8.3c-0.5-1.2-1.3-3.1-0.4-4.3c0.2-0.9,0.6-1.2,1.5-1.4c1.4-1.2,5.3,0.3,6.7,1c3.9,1.6,7.2,3.1,10.5,5.3
		c1.5,1.1,3.1,3.1,5,3.6h2.2c3.4,0.7,7.2,0.2,10.4,1.2c5.6,1.8,10.7,4.4,15.3,7.3c13.9,8.8,25.3,21.3,33,36.2c1.3,2.4,1.8,4.7,3,7.2
		c2.2,5.2,5,10.5,7.2,15.6c2.2,5,4.3,10.1,7.5,14.2c1.6,2.2,8,3.4,10.8,4.6c2.1,0.9,5.4,1.8,7.3,3c3.6,2.2,7.2,4.8,10.6,7.2
		C415.8,243.8,421.2,246.4,421.5,248.5 M313.4,156.5c-1.5,0-2.9,0.2-4.3,0.5v0.2h0.2c0.9,1.7,2.3,2.9,3.4,4.3
		c0.9,1.7,1.6,3.4,2.4,5.1l0.2-0.2c1.5-1.1,2.2-2.8,2.2-5.3c-0.6-0.7-0.7-1.5-1.3-2.2C315.7,157.9,314.3,157.3,313.4,156.5"/>
	<path class="st2" d="M431.6,365.6h2.2v-10.7h-3.3l-2.7,7.3l-2.9-7.3h-3.2v10.7h2.1v-8.2h0.1l3.1,8.2h1.6l3-8.2L431.6,365.6
		L431.6,365.6z M413.9,365.6h2.3v-8.9h3v-1.8h-8.5v1.8h3.2L413.9,365.6L413.9,365.6z"/>
</g>
</svg>
