<?xml version="1.0" encoding="utf-8"?>
<!-- Generator: Adobe Illustrator 22.1.0, SVG Export Plug-In . SVG Version: 6.00 Build 0)  -->
<svg version="1.1" id="Layer_1" xmlns="http://www.w3.org/2000/svg" xmlns:xlink="http://www.w3.org/1999/xlink" x="0px" y="0px"
	 viewBox="0 0 500 285.2" style="enable-background:new 0 0 500 285.2;" xml:space="preserve">
<style type="text/css">
	.st0{opacity:0.15;fill:#FF6E60;enable-background:new    ;}
	.st1{opacity:0.2;}
	.st2{fill:#FF6E60;}
	.st3{fill:#B56561;}
	.st4{fill:#01719A;}
</style>
<title>mlm-plan-3</title>
<g id="Layer_2_4_">
	<g id="Layer_1-2_3_">
		<path class="st0" d="M169.1,58.1c-0.5,11,3.1,23.1-2.9,32.4c-6.6,10.5-17.2,2.5-27.1,3c-11.4,0.5-22.9,3.4-32.4,9.8
			c-10.4,7-15.5,21.1-17.9,33.1c-5.4,26.2,1.4,54.8,14.2,77.9c16.8,30.3,52,47.4,84.2,30.3c4.2-2.2,8.1-4.9,12.4-6.7
			c16.5-7.2,35.8-0.1,52.9-1.3c20.5-1.4,39.6-1.4,58-12.4c25.5-15.4,38.8-52.5,20.9-78c-7.9-11.3-18.2-21.2-23.1-34.1
			c-7-18.1-2.2-38.9-8.7-57.2c-6.8-19-25.4-32.1-45.1-35.9c-25-4.8-74.1,2.9-84.1,31.1C169.7,52.6,169.2,55.4,169.1,58.1z"/>
		<g class="st1">
			<path class="st2" d="M164.6,49.5c-20.5,0.8-40.9,7.3-56.6,20.3c-8.9,7.3-16.3,16.7-19.5,27.7c-5.3,18.1,1.6,37.6,10.5,54.1
				c18.5,34.4,45.9,63.1,79.4,83.5c4.9,3.1,10,5.6,15.6,7.5c7.6,2.3,15.7,2.5,23.6,2.6c10.3,0.2,20.6,0.4,30.4-2.1
				c9.3-2.3,17.8-7,25.9-12.1c24.2-15.5,45.7-36.9,55.6-63.7c9.9-26.9,6.2-59.9-13.8-80.5C305,75.8,290.8,69,276.1,65
				c-17.2-4.6-34.5-4.8-52.2-6.5C203.7,56.3,185.2,48.7,164.6,49.5z"/>
			<path class="st2" d="M166.7,36.7c4.4-3.1,6.3-8.7,4.7-13.9c-0.3-0.8-0.8-1.6-1.3-2.4c-1.8-2.1-4.8-2.8-7.5-2.5
				C142.1,19.1,149.4,48.2,166.7,36.7z"/>
			<path class="st2" d="M180.4,253.2c-8.7,5.2-10.3,15.6,0.8,14.4c3.1-0.5,6.2-1.4,9-2.9c3.9-1.9,7.8-4.6,9.2-7.6
				C204.3,245.8,190.1,247.4,180.4,253.2z"/>
		</g>
		<path class="st3" d="M213.6,142.1l-0.8,0.8C213,142.7,213.3,142.5,213.6,142.1z"/>
		<path class="st2" d="M234.1,36.3V19c0-10.5-8.6-19-19-19h-3.7c-10.5,0-19,8.5-19.1,19v17.3c0,3.1,1.3,6,3.5,8.2v13.2
			c-8.4,4.3-16.4,9.5-23.7,15.5c-2.7,2.2-4.3,5.6-4.3,9.2v11.8c0,1.9,1.5,3.5,3.4,3.6h84.1c1.9-0.1,3.4-1.5,3.4-3.5V82.4
			c0-3.6-1.5-7-4.3-9.2c-7.3-5.9-15.3-11-23.7-15.5V44.4C232.9,42.3,234.1,39.3,234.1,36.3z M249.9,78.6c1.2,0.9,1.8,2.3,1.8,3.7
			v8.3h-77v-8.3c0-1.4,0.7-2.9,1.8-3.7c7.4-5.9,15.5-11,23.9-15.4c1.5-0.7,2.4-2.2,2.4-3.8V42.7c0-1.2-0.6-2.2-1.5-2.9
			c-1.2-0.8-1.9-2.1-1.9-3.6V19c0-6.6,5.4-12.1,12.1-12.1h3.7c6.6,0,12.1,5.4,12.1,12.1l0,0v17.3c0,1.4-0.7,2.8-1.9,3.6
			c-0.9,0.6-1.5,1.8-1.5,2.9v16.6c0,1.6,0.9,3.1,2.4,3.8C234.5,67.4,242.5,72.6,249.9,78.6z"/>
		<path class="st2" d="M229,238.6v-13.1c0-8-6.5-14.4-14.4-14.4l0,0h-2.7c-8,0-14.4,6.5-14.4,14.4v13.1c0,2.3,0.9,4.6,2.6,6.2v10
			c-6.4,3.2-12.4,7.2-18,11.7c-2.1,1.7-3.2,4.2-3.2,7v9c0,1.5,1.2,2.6,2.5,2.7l0,0H245c1.4,0,2.6-1.2,2.6-2.6v-9.1
			c0-2.7-1.2-5.3-3.2-7c-5.6-4.5-11.6-8.4-18-11.7v-10C228,243.2,229,241,229,238.6z M241,270.7c0.8,0.7,1.4,1.8,1.4,2.9v6.3H184
			v-6.3c0-1.1,0.5-2.2,1.4-2.9c5.6-4.5,11.7-8.4,18.1-11.6c1.1-0.5,1.9-1.6,1.9-2.9v-12.7c0-0.8-0.4-1.7-1.2-2.2
			c-0.8-0.6-1.4-1.6-1.4-2.6v-13.1c0-5,4.1-9.1,9.1-9.1h2.8c5,0,9.1,4.1,9.1,9.1v13.1c0,1.1-0.5,2.1-1.4,2.7
			c-0.8,0.5-1.2,1.3-1.2,2.2v12.7c0,1.2,0.8,2.4,1.9,2.9C229.3,262.3,235.4,266.1,241,270.7L241,270.7z"/>
		<path class="st2" d="M130.4,238.6v-13.1c0-8-6.5-14.4-14.4-14.4l0,0h-2.9c-8,0-14.4,6.5-14.4,14.4v13.1c0,2.3,0.9,4.6,2.6,6.2v10
			c-6.4,3.2-12.4,7.2-18,11.7c-2.1,1.7-3.2,4.2-3.2,7v9c0,1.4,1.2,2.6,2.5,2.7h63.7c1.4,0,2.6-1.2,2.6-2.6v-9c0-2.7-1.2-5.3-3.2-7
			c-5.6-4.5-11.6-8.4-18-11.7v-10C129.5,243.2,130.4,241,130.4,238.6z M142.4,270.7c0.8,0.7,1.4,1.8,1.4,2.9v6.3H85.4v-6.3
			c0-1.1,0.5-2.2,1.4-2.9c5.6-4.5,11.7-8.4,18.1-11.6c1.1-0.5,1.9-1.7,1.9-2.9v-12.7c0-0.8-0.4-1.7-1.2-2.2
			c-0.8-0.6-1.4-1.6-1.4-2.6v-13.1c0-5,4.1-9.1,9.1-9.1h2.9c5,0,9.1,4.1,9.1,9.1v13.1c0,1.1-0.5,2.1-1.4,2.7
			c-0.8,0.5-1.2,1.3-1.2,2.2v12.7c0,1.2,0.8,2.4,1.9,2.9C130.8,262.3,136.9,266.1,142.4,270.7L142.4,270.7z"/>
		<path class="st4" d="M247.4,174.3c-0.8,1.2-2.1,1.9-3.6,2c-0.8,0-1.5-0.2-2.2-0.7l-24.2-15.7l0,0v12.2c0,1.1-0.5,2.2-1.2,2.9
			l-0.3,0.3c-0.2,0.1-0.2,0.2-0.3,0.3c-0.2,0.2-0.5,0.3-0.8,0.4s-0.5,0.2-0.8,0.2l-0.3,0.1c-0.2,0-0.4,0-0.6,0s-0.3,0-0.5,0
			l-0.3-0.1c-0.3-0.1-0.5-0.2-0.8-0.2c-0.6-0.3-1.2-0.7-1.6-1.2c-0.6-0.8-0.9-1.7-0.9-2.6V160l0,0l-24.4,15.7
			c-0.7,0.4-1.5,0.7-2.2,0.7c-1.4,0-2.8-0.8-3.6-2c-1.3-1.9-0.8-4.6,1.2-5.9l0,0l28.7-18.7l0,0v-34.4c0-0.3,0-0.5,0.1-0.8
			c0.2-0.7,0.4-1.4,0.8-1.9l0.3-0.3c0.7-0.7,1.5-1.1,2.5-1.2h0.4h0.2h0.4c1.2,0.2,2.4,0.8,3.1,1.9c0.3,0.5,0.5,1,0.7,1.5
			c0.1,0.3,0.1,0.5,0.1,0.8v34.3l0,0l28.7,18.7l0,0c2,1.2,2.6,3.7,1.4,5.8C247.5,174.2,247.4,174.2,247.4,174.3z"/>
		<path class="st4" d="M403.5,188c-21.9-21.9-57.6-22.3-79.8-0.5l-0.5,0.5c-2.5,2.5-4.8,5.3-6.8,8.3c1.9-1.1,3.9-1.7,6.1-1.7h3.7
			c2-2.2,4.1-4.2,6.4-5.9c21.8-17,53.3-13.1,70.4,8.8c17.1,21.8,13.1,53.3-8.8,70.4c-7.1,5.5-15.5,9-24.4,10.1
			c-2.1,0.3-4.2,0.4-6.4,0.4h-0.5l0,0h-26.2c8.2,4.3,17.4,6.6,26.7,6.6c1.6,0,3.2-0.1,4.8-0.2l0,0c31.2-2.7,54.3-30.3,51.6-61.4
			c-1.2-13.3-7-25.8-16.4-35.2L403.5,188z M312.4,227.5c-1.2-0.8-1.9-2.1-1.9-3.6v-16.4c-2.5,6.6-3.9,13.6-3.9,20.7
			c0,1.3,0.1,2.5,0.2,3.8c0,0.4,0,0.8,0.1,1.2c0.5,6.2,2,12.2,4.6,17.8l0.2-0.1c0.8-0.5,1.6-1.2,2-2.2c0.2-0.5,0.3-1.1,0.3-1.7
			v-10.7c-0.4-2.6-0.7-5.3-0.7-8C313,228.1,312.7,227.7,312.4,227.5L312.4,227.5z"/>
		<path class="st4" d="M366.9,224.9h-7.1c-4.1-0.2-7.2-3.6-7.1-7.6c0.2-3.9,3.2-7,7.1-7.1h14.3c1.9,0,3.3-1.5,3.3-3.3
			s-1.5-3.3-3.3-3.3h-7.3v-7.3c0.2-1.9-1.3-3.4-3.1-3.6s-3.4,1.3-3.6,3.1c0,0.2,0,0.3,0,0.4v7.3h-0.3c-7.7,0-14,6.3-14,14
			s6.3,14,14,14l0,0h7.1c4.1,0,7.4,3.3,7.4,7.4s-3.3,7.4-7.4,7.4h-14.3c-1.9,0.2-3.2,1.7-3.1,3.6c0.1,1.7,1.4,3.1,3.1,3.1h7.3v7.3
			c-0.2,1.9,1.3,3.4,3.1,3.6c1.9,0.2,3.4-1.3,3.6-3.1c0-0.2,0-0.3,0-0.4v-7.3h0.3c7.7-0.2,13.9-6.6,13.6-14.4
			C380.3,231.1,374.3,225.1,366.9,224.9L366.9,224.9z"/>
		<path class="st2" d="M313.2,228.4c0,2.6,0.2,5.3,0.7,8v-5.9C313.9,229.7,313.6,228.9,313.2,228.4z M369.1,266.1
			c-0.5-1.7-1.5-3.2-2.7-4.4c-0.3-0.3-0.6-0.6-0.9-0.8c-1.8-1.4-3.6-2.8-5.4-4.2c-1.6-1.2-3.2-2.3-4.9-3.4l0,0l-0.6-0.4
			c-1.4-0.9-2.8-1.9-4.2-2.6l-1-0.6c-2.5-1.5-5-2.9-7.6-4.2v-13.3c2.2-2.1,3.6-5,3.6-8.1v-17.4c0-1.5-0.2-3.2-0.6-4.8
			c-0.5-2.3-1.5-4.5-3-6.4c-2.2-3.2-5.4-5.6-9.1-6.9c-2-0.8-4.2-1.2-6.4-1.2h-3.8c-10.5,0-19,8.6-19,19v17.4c0,0.2,0,0.3,0,0.4
			c0.1,2.9,1.3,5.6,3.3,7.6l0.1,0.1v13.3c-0.8,0.5-1.9,0.9-2.7,1.4c-7.4,4-14.4,8.7-21,14c-2.8,2.2-4.3,5.6-4.3,9.2v11.8
			c0,1.9,1.5,3.6,3.5,3.6l0,0h84.1c0.7,0,1.4-0.2,2-0.6l0,0c0.9-0.7,1.5-1.7,1.5-2.9v-11.8C369.7,268.7,369.5,267.4,369.1,266.1z
			 M285.8,278.4v-8.3c0-1.4,0.6-2.9,1.8-3.7c6.4-5.2,13.3-9.7,20.5-13.5c1.1-0.6,2.2-1.2,3.2-1.7l0.2-0.1c0.8-0.5,1.6-1.2,2-2.2
			c0.2-0.5,0.3-1.1,0.3-1.7v-16.7c0-0.8-0.3-1.4-0.7-2c-0.2-0.3-0.5-0.6-0.8-0.8c-1.2-0.8-1.9-2.1-1.9-3.6v-17.4
			c0-6.6,5.4-12.1,12.1-12.1h3.7c4.6,0,8.8,2.6,10.8,6.8c0.8,1.6,1.2,3.4,1.2,5.3v17.2c0,1.4-0.8,2.8-1.9,3.6
			c-0.9,0.6-1.5,1.8-1.5,2.9v16.7c0,1.6,0.9,3.1,2.4,3.8c8.5,4.2,16.5,9.3,23.9,15.3l0,0c0.5,0.4,0.9,0.9,1.2,1.5
			c0.3,0.7,0.5,1.5,0.5,2.2v8.3h-77L285.8,278.4L285.8,278.4z"/>
	</g>
</g>
</svg>
