<svg xmlns="http://www.w3.org/2000/svg" viewBox="0 0 572 500.5"><defs><style>.cls-1{fill:#ff6e60;}.cls-2{fill:#01719a;}</style></defs><title>Asset 4</title><g id="Layer_2" data-name="Layer 2"><g id="Layer_1-2" data-name="Layer 1"><path class="cls-1" d="M375.54,371.06q-6.69,6.9-14.09,13.22a38.2,38.2,0,0,1,11.65,8,44.57,44.57,0,0,1,6.63,8.38q7-6.15,13.44-12.8A60,60,0,0,0,375.54,371.06Zm15.64-208.6a66.39,66.39,0,0,0-66.32,66.32,14.91,14.91,0,1,1-29.82,0V222a15,15,0,0,1,6-11.94l7.81-5.85a101.38,101.38,0,0,0,40.38-80.74v-2.77c0-66.4-54-120.55-120.47-120.71A228.16,228.16,0,0,0,52.11,83.33c-43.65,52.94-61,122.6-47.74,191.1,17.39,89.49,89.2,161.3,178.69,178.69a237.2,237.2,0,0,0,45.24,4.37,230.71,230.71,0,0,0,46.58-4.75q9.67-2,19.14-4.8c.88-9.05.81-17.8,2.33-26.32q-9.41,3.28-19.14,5.66a206.33,206.33,0,0,1-48.91,5.88,212.3,212.3,0,0,1-40.59-3.93C107.85,413.72,43.77,349.64,28.26,269.78c-11.92-61.34,3.62-123.66,42.62-171A203.94,203.94,0,0,1,228.69,24.33a96.55,96.55,0,0,1,96.17,96.38v2.77a76.93,76.93,0,0,1-30.65,61.27l-7.81,5.86A39.43,39.43,0,0,0,270.7,222v6.77a39.25,39.25,0,0,0,78.49,0,42,42,0,0,1,84,0,205.58,205.58,0,0,1-4,40.18,203,203,0,0,1-14.95,45.82C424.7,301.94,438.71,285.34,454,269a228.2,228.2,0,0,0,3.29-29.67q.25-5.26.25-10.57A66.39,66.39,0,0,0,391.18,162.46Zm5.25,183.32,17.45,17.45q5.49-7.55,10.34-15.51l-17.78-17.78Q401.82,338.07,396.43,345.78Z"/><path class="cls-1" d="M209.27,321.09a23.76,23.76,0,1,1-33.35-4.1,23.76,23.76,0,0,1,33.35,4.1Z"/><path class="cls-1" d="M238.27,85.27a23.76,23.76,0,1,1-33.35-4.1,23.77,23.77,0,0,1,33.35,4.1Z"/><path class="cls-1" d="M105.86,188.69a23.76,23.76,0,1,1-33.35-4.1,23.75,23.75,0,0,1,33.35,4.1Z"/><path class="cls-1" d="M114.31,267.31A23.75,23.75,0,1,1,87.83,288a23.75,23.75,0,0,1,26.48-20.68Z"/><path class="cls-1" d="M134.81,100.58a23.76,23.76,0,1,1-26.48,20.68,23.77,23.77,0,0,1,26.48-20.68Z"/><path class="cls-2" d="M535.22,188.72c-15.71,1.65-34.61,12.11-57.77,32-6.58,5.64-13.34,11.92-20.2,18.67-9.26,9.14-18.69,19.15-28,29.61-27.79,31.09-54.88,66.17-75,94.32C331,359.65,306.48,369.6,292,387.74c-11,13.78-13.67,27-14.76,39.54-.76,8.77-.77,17.25-2.33,25.46a46.68,46.68,0,0,1-12.37,24.49,9.14,9.14,0,0,0,3,14.69c41.1,17.6,93.64,6.63,118.29-19.35,15.06-15.89,23.26-39.33,19.14-61.41,44-33.79,104.9-85.89,139.36-129.11,19.09-23.94,28.77-43.19,29.61-58.86C573.07,202.07,556.68,186.46,535.22,188.72ZM370.56,460c-16.67,17.58-53.56,27.82-86.39,19.07,6.75-10.76,8.89-21.11,9.85-31.11.88-9.05.81-17.8,2.33-26.32a48.09,48.09,0,0,1,9.89-22.46c13-16.28,36.75-23,55.21-14.88a38.2,38.2,0,0,1,11.65,8,44.57,44.57,0,0,1,6.63,8.38C392.39,421.43,383,446.84,370.56,460Zm25.9-66.89a58.09,58.09,0,0,0-3.29-5.25,60,60,0,0,0-17.63-16.78c-1-.63-2-1.22-3.1-1.78,4.48-6.19,11.5-15.76,20.28-27.21l21.16,21.16,8.83,8.84C411.67,381.15,402.45,388.43,396.46,393.09ZM553.68,222.21c-2,38.39-87.65,113.36-116.87,138.1l-12.59-12.59-17.78-17.78L404,327.53c2.81-3.56,6.26-7.89,10.23-12.75C424.7,301.94,438.71,285.34,454,269c28.38-30.39,61.07-59.79,83.17-62.12C547.4,205.82,554.22,212.3,553.68,222.21Z"/></g></g></svg>