<svg xmlns="http://www.w3.org/2000/svg" viewBox="0 0 590 504.46"><defs><style>.cls-1{fill:#ff6e60;}.cls-2{fill:#01719a;}</style></defs><title>Asset 8</title><g id="Layer_2" data-name="Layer 2"><g id="Layer_1-2" data-name="Layer 1"><path class="cls-1" d="M499.5,0H48A48.05,48.05,0,0,0,0,48V365.53a48.06,48.06,0,0,0,48,48H180v-25H48a23,23,0,0,1-23-23V232.83H180.73a47.86,47.86,0,0,1,12.77-25H26V123.74H522v69.44h20a47.51,47.51,0,0,1,5.5.32V48A48.05,48.05,0,0,0,499.5,0Zm23,98.74H25V48A23,23,0,0,1,48,25H499.5a23,23,0,0,1,23,23Z"/><path class="cls-2" d="M547.5,193.5a47.51,47.51,0,0,0-5.5-.32H228a48,48,0,0,0-48,48V456.46a48.05,48.05,0,0,0,48,48H542a48.05,48.05,0,0,0,48-48V241.18A48.05,48.05,0,0,0,547.5,193.5Zm17.5,263a23,23,0,0,1-23,23H228a23,23,0,0,1-23-23V241.18a22.71,22.71,0,0,1,1.58-8.35A23,23,0,0,1,228,218.18H542a23,23,0,0,1,23,23Z"/><path class="cls-2" d="M438.5,289.65a62,62,0,0,0-18.28-2.74,59.61,59.61,0,0,0-6.72.37A61.83,61.83,0,0,0,384.8,298a62.29,62.29,0,1,0-.58,102A62.29,62.29,0,1,0,438.5,289.65Zm-71.59,91.74a37.3,37.3,0,1,1,.37-65,62.18,62.18,0,0,0-.37,65Zm68.13,2a37.23,37.23,0,0,1-30-.13,36.27,36.27,0,0,1-3.35-1.7,37.43,37.43,0,0,1-17.29-21.85,37.31,37.31,0,0,1,.12-21.48,37.49,37.49,0,0,1,17.54-21.65,37.22,37.22,0,0,1,36.39.1A37.27,37.27,0,0,1,435,383.42Z"/></g></g></svg>