<?xml version="1.0" encoding="utf-8"?>
<!-- Generator: Adobe Illustrator 22.1.0, SVG Export Plug-In . SVG Version: 6.00 Build 0)  -->
<svg version="1.1" id="Layer_1" xmlns="http://www.w3.org/2000/svg" xmlns:xlink="http://www.w3.org/1999/xlink" x="0px" y="0px"
	 viewBox="0 0 500 292.5" style="enable-background:new 0 0 500 292.5;" xml:space="preserve">
<style type="text/css">
	.st0{opacity:0.15;fill:#FF6E60;enable-background:new    ;}
	.st1{opacity:0.2;}
	.st2{fill:#FF6E60;}
	.st3{fill:#B56561;}
	.st4{fill:#01719A;}
</style>
<title>MLM-plan-1</title>
<g id="Layer_2_5_">
	<g id="Layer_1-2_4_">
		<path class="st0" d="M205.3,62c-0.5,11,3.1,23.4-2.9,32.8c-6.8,10.6-17.4,2.6-27.5,3c-11.5,0.4-23.2,3.5-32.8,9.9
			c-10.4,7.1-15.6,21.4-18,33.4c-5.6,26.5,1.3,55.5,14.4,78.9c17.1,30.7,52.6,48,85.3,30.7c4.2-2.2,8.2-5,12.6-6.8
			c16.7-7.3,36.3-0.1,53.5-1.3c20.8-1.5,40.2-1.4,58.7-12.6c25.9-15.6,39.3-53.2,21.2-79c-8-11.4-18.4-21.4-23.4-34.5
			c-7-18.3-2.2-39.4-8.7-57.8C330.8,39.5,312,26.1,292,22.3c-25.3-4.9-75.1,2.9-85.1,31.6C205.9,56.4,205.4,59.1,205.3,62z"/>
		<g class="st1">
			<path class="st2" d="M200.7,53.3c-20.6,0.7-41.3,7.4-57.2,20.5c-9,7.4-16.5,16.9-19.6,28.1c-5.3,18.4,1.7,38,10.7,54.8
				c18.8,34.8,46.5,64,80.3,84.5c5,3.2,10.2,5.7,15.7,7.6c7.7,2.4,15.9,2.6,23.9,2.7c10.4,0.1,20.8,0.4,30.8-2.2
				c9.4-2.4,18.1-7,26.2-12.3c24.5-15.6,46.3-37.3,56.2-64.7c9.9-27.3,6.2-60.6-13.9-81.5c-10.8-11-25.2-18.1-40.2-22
				c-17.4-4.7-35-4.8-52.8-6.5C240.4,60.3,221.6,52.5,200.7,53.3z"/>
			<path class="st2" d="M203,40.3c4.4-3.2,6.4-8.8,4.7-14.1c-0.3-0.9-0.7-1.7-1.3-2.4c-1.7-2.2-4.8-2.8-7.6-2.6
				C178,22.5,185.4,51.9,203,40.3z"/>
			<path class="st2" d="M216.7,259.6c-8.7,5.3-10.4,15.9,0.7,14.6c3.2-0.4,6.2-1.4,9.1-2.9c3.9-1.9,7.9-4.6,9.3-7.7
				C241.1,252.1,226.5,253.8,216.7,259.6z"/>
		</g>
		<path class="st3" d="M250.4,147.2l-0.9,0.9C249.8,147.7,250.1,147.5,250.4,147.2z"/>
		<path class="st3" d="M250.4,147.2l-0.9,0.9C249.8,147.7,250.1,147.5,250.4,147.2z"/>
		<path class="st2" d="M161.4,174.2v-12.9c0-7.9-6.4-14.2-14.2-14.2l0,0h-2.7c-7.9,0-14.2,6.4-14.2,14.2l0,0v12.9
			c0,2.3,1,4.4,2.6,6.1v9.9c-6.2,3.2-12.2,7.1-17.7,11.5c-2,1.7-3.2,4.2-3.2,6.8v8.8c0,1.4,1.1,2.6,2.6,2.6l0,0h62.7
			c1.4,0,2.6-1.2,2.6-2.6l0,0l0,0v-8.8c0-2.6-1.1-5.2-3.2-6.8c-5.6-4.4-11.5-8.3-17.7-11.5v-9.9
			C160.3,178.7,161.4,176.6,161.4,174.2z M173.1,205.8c0.8,0.7,1.3,1.7,1.3,2.8v6.2h-57.5v-6.2c0-1,0.4-2.1,1.3-2.8
			c5.5-4.4,11.5-8.3,17.8-11.4c1-0.5,1.8-1.6,1.9-2.8v-12.5c0-0.9-0.4-1.7-1.1-2.2c-0.9-0.6-1.4-1.6-1.4-2.7v-12.9c0-5,4.1-9,9-9
			h2.7c5,0,9,4.1,9,9v13c0,1-0.5,2.1-1.4,2.6c-0.7,0.4-1.2,1.3-1.1,2.2v12.5c0,1.2,0.7,2.3,1.8,2.9
			C161.6,197.6,167.6,201.4,173.1,205.8L173.1,205.8z"/>
		<path class="st2" d="M265.6,102.5V89.6c0-7.9-6.4-14.2-14.2-14.2h-2.8c-7.9,0-14.2,6.4-14.2,14.2l0,0v12.9c0,2.3,0.9,4.4,2.6,6.1
			v9.9c-6.2,3.2-12.2,7.1-17.7,11.5c-2,1.7-3.2,4.2-3.2,6.8v8.8c0,1.4,1.1,2.6,2.6,2.6l0,0h62.7c1.4,0,2.6-1.2,2.6-2.6l0,0l0,0v-8.7
			c0.1-2.7-1.1-5.2-3.2-6.9c-5.6-4.4-11.5-8.3-17.7-11.5v-9.8C264.7,107.1,265.6,104.8,265.6,102.5z M277.4,134.1
			c0.8,0.7,1.3,1.7,1.3,2.8v6.2h-57.5v-6.2c0-1,0.4-2.2,1.3-2.8c5.6-4.4,11.5-8.4,17.8-11.5c1-0.5,1.8-1.7,1.8-2.9v-12.4
			c0-0.9-0.4-1.7-1.1-2.2c-0.9-0.6-1.4-1.6-1.4-2.6V89.6c0-5,4.1-9,9-9h2.8c5,0,9,4.1,9,9v12.9c0,1-0.5,2.1-1.4,2.7
			c-0.7,0.4-1.2,1.3-1.1,2.2v12.5c0,1.2,0.7,2.3,1.8,2.9c6.3,3.2,12.3,7.1,17.9,11.5L277.4,134.1z"/>
		<path class="st2" d="M369.9,29.8V17c0-7.9-6.4-14.2-14.2-14.2h-2.8c-7.9,0-14.2,6.4-14.2,14.2l0,0v12.9c0,2.3,1,4.5,2.6,6.1v9.9
			c-6.3,3.2-12.2,7.1-17.7,11.5c-2,1.7-3.2,4.2-3.2,6.8V73c0,1.4,1.1,2.6,2.6,2.6h62.7c1.4,0,2.6-1.2,2.6-2.6l0,0l0,0v-8.7
			c0.1-2.7-1.1-5.2-3.2-6.9c-5.6-4.4-11.5-8.3-17.7-11.5V36C368.9,34.3,369.9,32.2,369.9,29.8z M381.6,61.4c0.8,0.7,1.3,1.7,1.3,2.8
			v6.2h-57.5v-6.2c0-1,0.4-2.2,1.3-2.8c5.5-4.4,11.5-8.4,17.8-11.5c1-0.5,1.8-1.7,1.8-2.9V34.6c0-0.9-0.4-1.7-1.1-2.2
			c-0.9-0.6-1.4-1.6-1.4-2.6v-13c0-5,4.1-9,9-9h2.8c5,0,9,4.1,9,9v12.9c0,1-0.5,2-1.4,2.6c-0.7,0.4-1.2,1.3-1.1,2.2V47
			c0,1.2,0.7,2.3,1.7,2.8C370.2,53.1,376.1,57,381.6,61.4L381.6,61.4z"/>
		<path class="st2" d="M180.4,292.5H111c-5.5,0-9.9-4.4-10-9.9v-36.9c0-5.6,4.4-10,10-10h69.4c5.6,0,10,4.4,10,10v36.9
			C190.3,288,185.9,292.5,180.4,292.5z M111,240.8c-2.7,0-4.8,2.2-4.8,4.8v36.9c0,2.7,2.2,4.8,4.8,4.8h69.4c2.7,0,4.8-2.2,4.8-4.8
			v-36.9c0-2.7-2.2-4.8-4.8-4.8H111z"/>
		<path class="st4" d="M284.7,292.5h-69.4c-5.5,0-9.9-4.4-10-9.9v-36.9c0-5.6,4.4-9.9,10-10h69.4c5.6,0,10,4.4,10,10v36.9
			C294.7,288,290.2,292.5,284.7,292.5z M215.3,240.8c-2.7,0-4.8,2.2-4.8,4.9l0,0v36.9c0,2.7,2.2,4.8,4.8,4.8h69.4
			c2.7,0,4.8-2.2,4.8-4.8v-36.9c0-2.7-2.2-4.8-4.8-4.8L215.3,240.8z"/>
		<path class="st4" d="M388.9,292.5h-69.4c-5.6,0-10-4.4-10-9.9v-36.9c0-5.6,4.4-9.9,10-10H389c5.6,0,10,4.4,10,10v36.9
			C398.9,288,394.5,292.5,388.9,292.5z M319.5,240.8c-2.7,0-4.8,2.2-4.8,4.8v36.9c0,2.7,2.2,4.8,4.8,4.8h69.4c2.7,0,4.8-2.2,4.8-4.8
			v-36.9c0-2.7-2.2-4.8-4.8-4.8H319.5z"/>
		<path class="st2" d="M284.7,220.4h-69.4c-5.6,0-10-4.4-10-10v-36.8c0-5.6,4.4-9.9,10-10h69.4c5.6,0,10,4.4,10,10v36.9
			C294.7,216,290.2,220.4,284.7,220.4z M215.3,168.7c-2.7,0-4.8,2.2-4.8,4.8v36.9c0,2.7,2.2,4.8,4.8,4.8h69.4c2.7,0,4.8-2.2,4.8-4.8
			v-36.8c0-2.7-2.2-4.8-4.8-4.8h-69.4V168.7z"/>
		<path class="st4" d="M388.9,220.4h-69.4c-5.6,0-10-4.4-10-10v-36.8c0-5.6,4.4-9.9,10-10h69.4c5.6,0,10,4.4,10,10v36.9
			C398.9,216,394.5,220.4,388.9,220.4z M319.5,168.7c-2.7,0-4.8,2.2-4.8,4.8v36.9c0,2.7,2.2,4.8,4.8,4.8h69.4c2.7,0,4.8-2.2,4.8-4.8
			v-36.8c0-2.7-2.2-4.8-4.8-4.8h-69.4V168.7z"/>
		<path class="st2" d="M388.9,148.3h-69.4c-5.6,0-10-4.4-10-10v-36.9c0-5.6,4.4-9.9,10-10h69.4c5.6,0,10,4.4,10,10v36.9
			C398.9,143.8,394.5,148.3,388.9,148.3z M319.5,96.7c-2.7,0-4.8,2.2-4.8,4.8v36.9c0,2.7,2.2,4.8,4.8,4.8h69.4
			c2.7,0,4.8-2.2,4.8-4.8v-36.9c0-2.7-2.2-4.8-4.8-4.8L319.5,96.7L319.5,96.7z"/>
		<path class="st4" d="M207.7,109.2L207.7,109.2l-0.7,9c-0.1,1.5-1.5,2.6-3,2.5s-2.6-1.5-2.5-3l0,0l0.2-2.4l-22.5,18.9l0,0l-0.1,0.1
			c-1.1,1-2.9,0.8-3.9-0.4c-1-1.1-0.8-2.9,0.4-3.9l0,0l0.1-0.1l0,0l22.5-18.9l-2.4-0.2c-1.5-0.1-2.7-1.4-2.6-2.9
			c0.1-1.5,1.4-2.7,2.9-2.6h0.1l9,0.7C206.7,106.4,207.8,107.7,207.7,109.2L207.7,109.2z"/>
		<path class="st4" d="M312,34.2L312,34.2l-0.8,9c-0.1,1.5-1.5,2.6-3,2.5s-2.6-1.5-2.5-3l0.1-2.4l-22.5,18.9l0,0l-0.1,0.1
			c-0.5,0.4-1.3,0.7-2,0.6c-1.5-0.1-2.6-1.4-2.5-3c0.1-0.7,0.4-1.3,1-1.9l0.1-0.1l0,0l22.5-18.8l-2.4-0.1c-1.5-0.1-2.7-1.4-2.6-2.9
			c0.1-1.5,1.4-2.7,2.9-2.6c0.1,0,0.1,0,0.1,0l9,0.7C310.9,31.5,312,32.7,312,34.2z"/>
	</g>
</g>
</svg>
